<svg width="722" height="137" viewBox="0 0 722 137" fill="none" xmlns="http://www.w3.org/2000/svg">
<path d="M12.76 57.24C13.32 57.72 14.04 57.64 14.68 57.08C15.08 56.68 15.08 56.52 14.84 56.12C14.52 55.64 14.6 55.16 15.48 52.68C18.2 44.68 22.92 35.16 30.04 23C30.76 21.72 33.48 17 36.12 12.44L41 4.12L42.28 3.96C42.92 3.8 49.4 3.72 56.68 3.72C70.36 3.64 72.76 3.8 73.48 4.68C73.8 5 73.96 5 74.44 4.84C75.08 4.44 75.24 3.72 74.68 3.32C73.32 2.36 63.32 1.8 53.08 2.04C49.24 2.12 45.24 2.2 44.2 2.28L42.28 2.44V1.64C42.36 0.999996 42.28 0.839998 41.72 0.759999C41.24 0.759999 40.92 0.919997 40.36 1.64L39.72 2.52L36.84 2.68C31.72 3 19.8 4.2 13.8 5.08C10.36 5.56 5.56 6.6 5.16 6.84C4.76 7.16 4.68 7.88 5.08 8.12C5.24 8.2 6.6 7.96 8.12 7.64C11.88 6.84 15.72 6.28 25.8 5.16C29.72 4.76 35.96 4.28 37.4 4.28H38.76L34.76 11.08C22.36 32.28 20.36 35.88 17.08 43.56C13.56 51.72 12.04 56.52 12.76 57.24ZM56.7275 31.48C56.3275 31 55.5275 31.4 53.4475 32.68C49.9275 34.84 46.5675 35.8 44.0075 35.8H42.7275L43.1275 34.76C43.7675 32.84 43.6075 31.88 42.2475 30.76C41.9275 30.36 41.2875 30.2 40.6475 30.2C40.0075 30.2 39.3675 30.36 38.8875 30.6C38.4875 30.84 38.0075 31.08 37.7675 31.16C37.5275 31.24 36.8075 31.96 36.1675 32.76C33.5275 35.88 33.0475 38.76 34.8875 40.04C35.9275 40.84 36.7275 40.92 38.1675 40.44C39.2075 40.04 41.3675 38.28 41.6875 37.64C41.7675 37.32 42.1675 37.24 43.4475 37.24C46.8075 37.24 50.0075 36.44 54.1675 34.04C56.4075 32.68 57.0475 31.96 56.7275 31.48ZM39.5275 37.64C39.2075 38.04 38.4875 38.6 37.9275 38.84C36.7275 39.48 36.1675 39.48 35.7675 38.76C35.3675 38.04 35.6075 37 36.4875 35.48L37.1275 34.36L37.7675 35.16C38.0875 35.64 38.8875 36.12 39.4475 36.52L40.1675 36.92L39.5275 37.64ZM41.4475 34.04C41.2875 34.68 41.0475 35.32 40.9675 35.4C40.8075 35.56 40.3275 35.32 39.8475 35C39.1275 34.52 38.9675 34.2 38.9675 33.64C38.9675 32.68 39.7675 31.72 40.5675 31.64C40.6475 31.64 40.7275 31.64 40.7275 31.64C41.5275 31.72 41.7675 32.6 41.4475 34.04ZM104.519 19.56C99.7994 19.48 95.9594 19.4 95.9594 19.32C95.9594 19.32 96.5994 18.28 97.3194 17.16C98.6794 14.92 98.7594 14.04 97.6394 14.2C97.2394 14.2 96.5994 15 95.3194 17L93.5594 19.72H91.9594C89.3994 19.72 81.7994 20.2 79.3194 20.44C76.9194 20.76 76.3594 21.08 76.9194 21.72C77.2394 22.04 77.5594 22.12 79.4794 21.88C82.1194 21.56 92.2794 21.08 92.4394 21.16C92.5194 21.24 91.8794 22.6 90.9994 24.12C90.0394 25.64 88.4394 28.52 87.2394 30.52C86.1194 32.52 83.7994 36.68 81.9594 39.72C77.1594 48.12 74.0394 54.76 74.5994 55.64C74.9994 56.12 76.1994 56.28 76.5194 55.8C76.6794 55.64 76.7594 55 76.7594 54.44C76.8394 53 78.9194 48.52 91.3194 27.32C92.1994 25.8 93.3194 23.8 93.8794 22.84C94.7594 21.32 94.9194 21.16 95.8794 21.08C97.7994 20.76 111.559 20.84 111.879 21.16C112.439 21.56 113.799 21.32 113.959 20.76C114.119 19.72 113.639 19.64 104.519 19.56ZM108.107 33C102.587 37.24 98.9869 39.08 96.2669 39.08C94.1869 39 93.2269 38.44 93.0669 37.16C93.0669 36.68 93.1469 35.96 93.2269 35.64C93.4669 35.16 93.6269 35.4 95.2269 35.24C96.1869 35.24 97.1469 35 98.0269 34.2C99.6269 32.84 99.7069 31.4 98.3469 30.76C98.0269 30.6 97.7069 30.6 97.3869 30.6C94.9069 30.6 91.4669 33.64 91.1469 36.44C90.9069 38.44 92.3469 39.88 94.9869 40.36C98.5069 40.92 102.587 39.24 108.507 34.52C110.347 33.08 111.147 32.12 111.227 31.88C111.307 31.4 110.987 30.84 108.107 33ZM95.2269 33.08C96.0269 32.44 96.9869 31.96 97.3869 31.96C97.4669 31.96 97.4669 31.96 97.5469 32.04C97.8669 32.28 97.2269 33.16 96.3469 33.56C95.3069 34.12 95.3069 34.12 94.8269 33.8C94.5869 33.72 94.6669 33.48 95.2269 33.08ZM128.574 32.2C128.014 32.68 127.214 33.24 126.174 34.04C122.494 37 120.174 38.2 118.414 38.44C117.454 38.52 117.214 38.44 116.974 38.04C116.494 37.32 116.814 35.88 117.854 33.96C118.574 32.68 118.654 32.36 118.414 32.04C117.854 31.56 117.534 31.56 116.654 32.28L115.854 32.92L115.374 32.12C114.894 31.16 114.094 30.68 112.974 30.68C112.094 30.76 111.054 31.08 109.934 31.72C106.014 33.88 103.294 38.76 105.294 39.96C106.734 40.84 109.374 39.88 113.054 37.08L114.974 35.64V36.92C114.974 38.12 115.054 38.36 115.934 39.08C117.534 40.36 119.534 40.12 123.054 38.2C125.054 37.08 128.014 34.76 129.614 33.24C130.174 32.68 130.494 32.28 130.494 32.12C130.494 31.24 130.094 31.16 128.574 32.2ZM112.414 35.64C111.294 36.36 109.694 37.48 108.814 37.96C106.734 39.16 106.254 39.24 106.494 38.2C107.054 35.88 111.374 32.12 113.134 32.2C113.294 32.2 113.454 32.28 113.614 32.36C113.694 32.44 113.934 32.92 114.094 33.4C114.254 34.2 114.254 34.28 112.414 35.64ZM143.753 33.24C136.713 38.04 132.393 39.56 129.433 38.92C127.512 38.52 127.192 37.16 128.553 34.84C129.353 33.4 131.433 31.56 132.073 31.72C132.233 31.8 132.473 32.12 132.553 32.52C132.793 33.48 133.113 33.8 133.673 33.8C135.113 33.8 134.473 31.08 132.953 30.52C130.553 29.64 126.952 32.44 125.992 36.04C125.432 37.96 126.712 39.88 128.793 40.28C129.193 40.36 129.673 40.44 129.833 40.44C130.952 40.76 134.313 40.04 136.713 39C139.753 37.64 143.513 35.48 145.993 33.56C147.033 32.76 147.673 32.2 147.753 31.88C147.753 30.92 146.633 31.32 143.753 33.24ZM170.843 31.72C170.603 31.24 170.123 31.4 169.323 31.88C168.523 32.28 163.963 35.56 161.963 36.68C160.283 37.56 159.643 37.8 158.843 37.72C158.043 37.64 157.803 37.56 157.723 36.44L157.643 34.76C157.563 32.28 157.483 31.8 157.003 31.56C156.683 31.4 156.123 31.24 155.803 31.24C154.763 31.24 151.643 32.92 149.003 34.92C147.643 36.04 146.443 36.84 146.363 36.76C146.203 36.68 148.763 31.96 150.683 29C153.083 25.24 156.203 20.84 159.163 17.08C160.523 15.32 161.323 14.04 161.323 13.88C161.563 13.16 161.083 13 160.283 13.24C158.443 13.8 147.563 29.48 144.683 35.72C143.403 38.6 143.243 39.32 143.643 39.72C143.883 39.96 144.203 40.12 144.523 40.12C144.763 40.12 146.523 38.92 148.363 37.4C151.483 35 154.763 32.84 155.403 32.84C155.563 32.84 155.643 33.8 155.643 34.92C155.643 36.04 155.803 37.32 155.963 37.72C156.523 39.08 158.843 39.56 160.923 38.84C163.003 38.12 167.803 34.92 169.883 33C170.523 32.36 170.923 31.96 170.843 31.72ZM206.807 26.76C207.607 25.72 207.527 25.08 206.567 24.92C206.007 24.84 204.487 26.92 204.727 27.4C205.047 28.04 206.007 27.72 206.807 26.76ZM213.607 33.08C208.407 36.44 203.927 38.44 202.167 38.44C200.247 38.44 200.407 37.08 202.727 33.48C203.927 31.64 204.087 31.16 203.767 30.84C203.527 30.6 203.367 30.52 203.127 30.52C202.567 30.6 201.927 31.24 200.807 32.92C199.767 34.44 198.967 36.6 198.967 37.64C198.967 38.28 199.127 38.68 199.847 39.16C200.567 39.72 200.967 39.88 202.007 39.88C203.687 39.88 204.967 39.4 208.327 37.8C210.727 36.6 213.767 34.84 215.927 33.24C216.807 32.6 217.447 32.04 217.447 31.88C217.207 31.08 216.167 31.4 213.607 33.08ZM229.079 31.88C227.879 32.36 225.399 33.16 223.159 34.04C220.919 34.92 218.839 35.72 218.679 35.88C218.119 36.2 217.959 35.96 217.559 34.44C217.159 32.92 217.399 31.96 218.279 31.48C218.999 31 218.999 30.52 218.279 30.2C218.119 30.12 217.959 30.12 217.719 30.12C216.999 30.12 216.199 30.76 215.719 31.8C215.319 32.68 215.399 33 215.799 34.84L216.359 36.84L215.719 37.24C214.359 37.88 212.199 39.48 211.639 40.12C210.839 40.92 210.839 42.28 211.559 42.76C212.359 43.24 214.039 43.16 215.479 42.52C217.079 41.88 218.199 40.36 218.519 38.6L218.679 37.4L223.239 35.56C225.799 34.6 228.519 33.64 229.719 33.16C231.479 32.52 231.959 32.2 231.959 31.8C231.959 31.08 231.319 31.08 229.079 31.88ZM214.839 41.08C214.359 41.4 213.639 41.64 213.239 41.64C212.679 41.64 212.599 41.64 212.839 41.24C213.159 40.76 216.039 38.6 216.359 38.6C217.079 38.6 216.039 40.2 214.839 41.08ZM279.988 19.56C275.268 19.48 271.428 19.4 271.428 19.32C271.428 19.32 272.068 18.28 272.788 17.16C274.148 14.92 274.228 14.04 273.108 14.2C272.708 14.2 272.068 15 270.788 17L269.028 19.72H267.428C264.868 19.72 257.268 20.2 254.788 20.44C252.388 20.76 251.828 21.08 252.388 21.72C252.708 22.04 253.028 22.12 254.948 21.88C257.588 21.56 267.748 21.08 267.908 21.16C267.988 21.24 267.348 22.6 266.468 24.12C265.508 25.64 263.908 28.52 262.708 30.52C261.588 32.52 259.268 36.68 257.428 39.72C252.628 48.12 249.508 54.76 250.068 55.64C250.468 56.12 251.668 56.28 251.988 55.8C252.148 55.64 252.228 55 252.228 54.44C252.308 53 254.388 48.52 266.788 27.32C267.668 25.8 268.788 23.8 269.348 22.84C270.228 21.32 270.388 21.16 271.348 21.08C273.268 20.76 287.028 20.84 287.348 21.16C287.908 21.56 289.268 21.32 289.428 20.76C289.588 19.72 289.108 19.64 279.988 19.56ZM289.462 31.48C289.062 31 288.262 31.4 286.182 32.68C282.662 34.84 279.302 35.8 276.742 35.8H275.462L275.862 34.76C276.502 32.84 276.342 31.88 274.982 30.76C274.662 30.36 274.022 30.2 273.382 30.2C272.742 30.2 272.102 30.36 271.622 30.6C271.222 30.84 270.742 31.08 270.502 31.16C270.262 31.24 269.542 31.96 268.902 32.76C266.262 35.88 265.782 38.76 267.622 40.04C268.662 40.84 269.462 40.92 270.902 40.44C271.942 40.04 274.102 38.28 274.422 37.64C274.502 37.32 274.902 37.24 276.182 37.24C279.542 37.24 282.742 36.44 286.902 34.04C289.142 32.68 289.782 31.96 289.462 31.48ZM272.262 37.64C271.942 38.04 271.222 38.6 270.662 38.84C269.462 39.48 268.902 39.48 268.502 38.76C268.102 38.04 268.342 37 269.222 35.48L269.862 34.36L270.502 35.16C270.822 35.64 271.622 36.12 272.182 36.52L272.902 36.92L272.262 37.64ZM274.182 34.04C274.022 34.68 273.782 35.32 273.702 35.4C273.542 35.56 273.062 35.32 272.582 35C271.862 34.52 271.702 34.2 271.702 33.64C271.702 32.68 272.502 31.72 273.302 31.64C273.382 31.64 273.462 31.64 273.462 31.64C274.262 31.72 274.502 32.6 274.182 34.04ZM334.534 33.24C327.494 38.04 323.174 39.56 320.214 38.92C318.294 38.52 317.974 37.16 319.334 34.84C320.134 33.4 322.214 31.56 322.854 31.72C323.014 31.8 323.254 32.12 323.334 32.52C323.574 33.48 323.894 33.8 324.454 33.8C325.894 33.8 325.254 31.08 323.734 30.52C321.334 29.64 317.734 32.44 316.774 36.04C316.214 37.96 317.494 39.88 319.574 40.28C319.974 40.36 320.454 40.44 320.614 40.44C321.734 40.76 325.094 40.04 327.494 39C330.534 37.64 334.294 35.48 336.774 33.56C337.814 32.76 338.454 32.2 338.534 31.88C338.534 30.92 337.414 31.32 334.534 33.24ZM351.144 31.72C350.024 32.2 348.984 32.36 347.864 32.36C345.944 32.36 345.544 31.8 344.904 30.84C343.944 29.24 343.544 29.32 340.584 31.64C338.264 33.56 338.184 33.56 338.824 32.6C339.384 31.64 339.384 31.48 338.984 31.16C338.264 30.52 337.624 31.08 335.864 33.88C333.784 37.32 332.904 39.48 333.384 39.88C333.544 40.12 333.944 40.28 334.104 40.28C334.344 40.28 335.624 39 336.984 37.48C339.704 34.52 342.744 31.64 343.144 31.64C343.304 31.64 343.704 31.88 344.104 32.28C345.064 33.24 346.264 33.88 348.584 33.72C350.024 33.64 351.704 33.16 352.744 32.68C353.304 32.44 353.704 32.12 353.704 31.88C353.704 31.16 352.984 31.08 351.144 31.72ZM369.357 33C363.837 37.24 360.237 39.08 357.517 39.08C355.437 39 354.477 38.44 354.317 37.16C354.317 36.68 354.397 35.96 354.477 35.64C354.717 35.16 354.877 35.4 356.477 35.24C357.437 35.24 358.397 35 359.277 34.2C360.877 32.84 360.957 31.4 359.597 30.76C359.277 30.6 358.957 30.6 358.637 30.6C356.157 30.6 352.717 33.64 352.397 36.44C352.157 38.44 353.597 39.88 356.237 40.36C359.757 40.92 363.837 39.24 369.757 34.52C371.597 33.08 372.397 32.12 372.477 31.88C372.557 31.4 372.237 30.84 369.357 33ZM356.477 33.08C357.277 32.44 358.237 31.96 358.637 31.96C358.717 31.96 358.717 31.96 358.797 32.04C359.117 32.28 358.477 33.16 357.597 33.56C356.557 34.12 356.557 34.12 356.077 33.8C355.837 33.72 355.917 33.48 356.477 33.08ZM389.824 32.2C389.264 32.68 388.464 33.24 387.424 34.04C383.744 37 381.424 38.2 379.664 38.44C378.704 38.52 378.464 38.44 378.224 38.04C377.744 37.32 378.064 35.88 379.104 33.96C379.824 32.68 379.904 32.36 379.664 32.04C379.104 31.56 378.784 31.56 377.904 32.28L377.104 32.92L376.624 32.12C376.144 31.16 375.344 30.68 374.224 30.68C373.344 30.76 372.304 31.08 371.184 31.72C367.264 33.88 364.544 38.76 366.544 39.96C367.984 40.84 370.624 39.88 374.304 37.08L376.224 35.64V36.92C376.224 38.12 376.304 38.36 377.184 39.08C378.784 40.36 380.784 40.12 384.304 38.2C386.304 37.08 389.264 34.76 390.864 33.24C391.424 32.68 391.744 32.28 391.744 32.12C391.744 31.24 391.344 31.16 389.824 32.2ZM373.664 35.64C372.544 36.36 370.944 37.48 370.064 37.96C367.984 39.16 367.504 39.24 367.744 38.2C368.304 35.88 372.624 32.12 374.384 32.2C374.544 32.2 374.704 32.28 374.864 32.36C374.944 32.44 375.184 32.92 375.344 33.4C375.504 34.2 375.504 34.28 373.664 35.64ZM408.816 19.56C404.096 19.48 400.256 19.4 400.256 19.32C400.256 19.32 400.896 18.28 401.616 17.16C402.976 14.92 403.056 14.04 401.936 14.2C401.536 14.2 400.896 15 399.616 17L397.856 19.72H396.256C393.696 19.72 386.096 20.2 383.616 20.44C381.216 20.76 380.656 21.08 381.216 21.72C381.536 22.04 381.856 22.12 383.776 21.88C386.416 21.56 396.576 21.08 396.736 21.16C396.816 21.24 396.176 22.6 395.296 24.12C394.336 25.64 392.736 28.52 391.536 30.52C390.416 32.52 388.096 36.68 386.256 39.72C381.456 48.12 378.336 54.76 378.896 55.64C379.296 56.12 380.496 56.28 380.816 55.8C380.976 55.64 381.056 55 381.056 54.44C381.136 53 383.216 48.52 395.616 27.32C396.496 25.8 397.616 23.8 398.176 22.84C399.056 21.32 399.216 21.16 400.176 21.08C402.096 20.76 415.856 20.84 416.176 21.16C416.736 21.56 418.096 21.32 418.256 20.76C418.416 19.72 417.936 19.64 408.816 19.56ZM412.404 33C406.884 37.24 403.284 39.08 400.564 39.08C398.484 39 397.524 38.44 397.364 37.16C397.364 36.68 397.444 35.96 397.524 35.64C397.764 35.16 397.924 35.4 399.524 35.24C400.484 35.24 401.444 35 402.324 34.2C403.924 32.84 404.004 31.4 402.644 30.76C402.324 30.6 402.004 30.6 401.684 30.6C399.204 30.6 395.764 33.64 395.444 36.44C395.204 38.44 396.644 39.88 399.284 40.36C402.804 40.92 406.884 39.24 412.804 34.52C414.644 33.08 415.444 32.12 415.524 31.88C415.604 31.4 415.284 30.84 412.404 33ZM399.524 33.08C400.324 32.44 401.284 31.96 401.684 31.96C401.764 31.96 401.764 31.96 401.844 32.04C402.164 32.28 401.524 33.16 400.644 33.56C399.604 34.12 399.604 34.12 399.124 33.8C398.884 33.72 398.964 33.48 399.524 33.08ZM463.028 32.2C462.468 32.68 461.668 33.24 460.628 34.04C456.947 37 454.628 38.2 452.868 38.44C451.908 38.52 451.668 38.44 451.428 38.04C450.948 37.32 451.268 35.88 452.308 33.96C453.028 32.68 453.108 32.36 452.868 32.04C452.308 31.56 451.988 31.56 451.108 32.28L450.308 32.92L449.828 32.12C449.348 31.16 448.548 30.68 447.428 30.68C446.548 30.76 445.508 31.08 444.387 31.72C440.467 33.88 437.747 38.76 439.747 39.96C441.187 40.84 443.827 39.88 447.508 37.08L449.428 35.64V36.92C449.428 38.12 449.508 38.36 450.388 39.08C451.988 40.36 453.988 40.12 457.508 38.2C459.508 37.08 462.468 34.76 464.068 33.24C464.628 32.68 464.948 32.28 464.948 32.12C464.948 31.24 464.548 31.16 463.028 32.2ZM446.868 35.64C445.748 36.36 444.147 37.48 443.267 37.96C441.187 39.16 440.707 39.24 440.947 38.2C441.507 35.88 445.828 32.12 447.588 32.2C447.748 32.2 447.908 32.28 448.068 32.36C448.148 32.44 448.388 32.92 448.548 33.4C448.708 34.2 448.708 34.28 446.868 35.64ZM507.204 31.88C506.004 32.36 503.524 33.16 501.284 34.04C499.044 34.92 496.964 35.72 496.804 35.88C496.244 36.2 496.084 35.96 495.684 34.44C495.284 32.92 495.524 31.96 496.404 31.48C497.124 31 497.124 30.52 496.404 30.2C496.244 30.12 496.084 30.12 495.844 30.12C495.124 30.12 494.324 30.76 493.844 31.8C493.444 32.68 493.524 33 493.924 34.84L494.484 36.84L493.844 37.24C492.484 37.88 490.324 39.48 489.764 40.12C488.964 40.92 488.964 42.28 489.684 42.76C490.484 43.24 492.164 43.16 493.604 42.52C495.204 41.88 496.324 40.36 496.644 38.6L496.804 37.4L501.364 35.56C503.924 34.6 506.644 33.64 507.844 33.16C509.604 32.52 510.084 32.2 510.084 31.8C510.084 31.08 509.444 31.08 507.204 31.88ZM492.964 41.08C492.484 41.4 491.764 41.64 491.364 41.64C490.804 41.64 490.724 41.64 490.964 41.24C491.284 40.76 494.164 38.6 494.484 38.6C495.204 38.6 494.164 40.2 492.964 41.08ZM530.154 31.4C529.834 31.16 529.274 31.4 527.834 32.52C523.834 35.32 521.434 36.2 517.834 37L515.834 37.48L516.954 36.12C519.594 32.92 519.594 30.28 516.874 30.28C514.714 30.28 511.034 33.24 507.354 37.96C506.474 39.08 505.674 40.12 505.594 40.12C505.514 40.12 505.914 39.4 506.474 38.52C509.754 33.16 511.194 30.44 511.114 30.12C511.034 29.96 510.714 29.8 510.394 29.8H510.314C509.754 29.88 509.034 30.92 506.314 35.32C503.194 40.28 497.194 50.84 496.314 52.76C496.154 53.24 496.074 53.8 496.154 53.96C496.394 54.44 497.034 54.44 497.594 54.04C497.834 53.8 499.914 51 502.234 47.72C507.194 40.76 507.354 40.52 507.834 40.92C508.554 41.56 510.634 41.08 512.794 39.72C513.274 39.4 514.234 39.08 514.954 39C516.954 38.76 520.474 37.8 522.474 37.08C524.794 36.12 527.674 34.6 529.594 33.08C530.234 32.52 530.714 32.12 530.714 31.88C530.714 31.72 530.474 31.48 530.154 31.4ZM511.914 37.96C511.594 37.96 510.714 38.12 510.074 38.28L508.874 38.68L509.274 38.12C510.554 36.2 514.554 32.6 516.154 31.88C516.874 31.56 517.114 31.4 517.194 31.96C517.514 33.48 513.274 37.96 511.914 37.96ZM547.637 32.2C547.077 32.68 546.277 33.24 545.237 34.04C541.557 37 539.237 38.2 537.477 38.44C536.517 38.52 536.277 38.44 536.037 38.04C535.557 37.32 535.877 35.88 536.917 33.96C537.637 32.68 537.717 32.36 537.477 32.04C536.917 31.56 536.597 31.56 535.717 32.28L534.917 32.92L534.437 32.12C533.957 31.16 533.157 30.68 532.037 30.68C531.157 30.76 530.117 31.08 528.997 31.72C525.077 33.88 522.357 38.76 524.357 39.96C525.797 40.84 528.437 39.88 532.117 37.08L534.037 35.64V36.92C534.037 38.12 534.117 38.36 534.997 39.08C536.597 40.36 538.597 40.12 542.117 38.2C544.117 37.08 547.077 34.76 548.677 33.24C549.237 32.68 549.557 32.28 549.557 32.12C549.557 31.24 549.157 31.16 547.637 32.2ZM531.477 35.64C530.357 36.36 528.757 37.48 527.877 37.96C525.797 39.16 525.317 39.24 525.557 38.2C526.117 35.88 530.437 32.12 532.197 32.2C532.357 32.2 532.517 32.28 532.677 32.36C532.757 32.44 532.997 32.92 533.157 33.4C533.317 34.2 533.317 34.28 531.477 35.64ZM562.815 33.24C555.775 38.04 551.455 39.56 548.495 38.92C546.575 38.52 546.255 37.16 547.615 34.84C548.415 33.4 550.495 31.56 551.135 31.72C551.295 31.8 551.535 32.12 551.615 32.52C551.855 33.48 552.175 33.8 552.735 33.8C554.175 33.8 553.535 31.08 552.015 30.52C549.615 29.64 546.015 32.44 545.055 36.04C544.495 37.96 545.775 39.88 547.855 40.28C548.255 40.36 548.735 40.44 548.895 40.44C550.015 40.76 553.375 40.04 555.775 39C558.815 37.64 562.575 35.48 565.055 33.56C566.095 32.76 566.735 32.2 566.815 31.88C566.815 30.92 565.695 31.32 562.815 33.24ZM579.044 33C573.524 37.24 569.924 39.08 567.204 39.08C565.124 39 564.164 38.44 564.004 37.16C564.004 36.68 564.084 35.96 564.164 35.64C564.404 35.16 564.564 35.4 566.164 35.24C567.124 35.24 568.084 35 568.964 34.2C570.564 32.84 570.644 31.4 569.284 30.76C568.964 30.6 568.644 30.6 568.324 30.6C565.844 30.6 562.404 33.64 562.084 36.44C561.844 38.44 563.284 39.88 565.924 40.36C569.444 40.92 573.524 39.24 579.444 34.52C581.284 33.08 582.084 32.12 582.164 31.88C582.244 31.4 581.924 30.84 579.044 33ZM566.164 33.08C566.964 32.44 567.924 31.96 568.324 31.96C568.404 31.96 568.404 31.96 568.484 32.04C568.804 32.28 568.164 33.16 567.284 33.56C566.244 34.12 566.244 34.12 565.764 33.8C565.524 33.72 565.604 33.48 566.164 33.08ZM617.588 26.76C618.388 25.72 618.308 25.08 617.348 24.92C616.788 24.84 615.268 26.92 615.508 27.4C615.828 28.04 616.788 27.72 617.588 26.76ZM624.388 33.08C619.188 36.44 614.708 38.44 612.948 38.44C611.028 38.44 611.188 37.08 613.508 33.48C614.708 31.64 614.868 31.16 614.548 30.84C614.308 30.6 614.148 30.52 613.908 30.52C613.348 30.6 612.708 31.24 611.588 32.92C610.548 34.44 609.748 36.6 609.748 37.64C609.748 38.28 609.908 38.68 610.628 39.16C611.348 39.72 611.748 39.88 612.788 39.88C614.468 39.88 615.748 39.4 619.108 37.8C621.508 36.6 624.548 34.84 626.708 33.24C627.588 32.6 628.228 32.04 628.228 31.88C627.988 31.08 626.948 31.4 624.388 33.08ZM652.039 31.8C651.719 31.08 650.999 31.4 648.759 33C643.159 37 638.919 39.24 637.399 38.84C636.839 38.68 636.999 37.16 637.799 35.24C638.679 33.08 638.679 31.96 637.959 31.4C636.519 30.36 633.559 31.72 628.279 35.88C625.959 37.64 625.079 38.2 625.239 37.8C625.479 37.08 627.399 33.96 628.439 32.52C629.079 31.56 629.159 31.48 628.679 31.08C628.359 30.84 628.119 30.76 627.719 30.92C626.599 31.56 623.479 36.76 623.159 38.52C623.079 39.16 623.159 39.48 623.479 39.8C623.799 39.96 624.199 40.2 624.519 40.2C625.079 40.2 628.039 38.2 630.199 36.28C632.359 34.44 636.279 32.2 636.679 32.52C636.759 32.6 636.519 33.48 636.119 34.44C635.079 37.16 634.919 38.12 635.479 39C636.439 40.44 638.359 40.6 641.239 39.32C644.119 38.12 648.519 35.16 650.759 33.24C651.639 32.52 652.119 32.04 652.039 31.8ZM29.72 71.64C29.56 70.92 28.44 71.16 26.76 72.2C24.2 73.88 22.04 74.36 20.04 74.36C19.08 74.36 18.28 74.36 18.12 74.28C18.04 74.2 18.2 73.48 18.44 72.84C19.08 71.16 18.76 70.28 17.48 70.36C16.52 70.44 15.64 71.8 15.64 73.32C15.64 74.12 15.48 74.68 14.84 75.56C13.96 76.6 11.32 78.76 10.84 78.76C10.28 78.76 9.96 76.92 10.04 75.08C10.2 73.56 10.12 73 9.8 72.76C8.92 72.04 8.44 72.36 5.64 75.48C3.96 77.32 2.92 78.2 2.68 77.96C2.44 77.72 3.64 74.28 4.52 72.6C5.48 70.84 5.48 70.28 4.36 70.28C3.8 70.28 3.56 70.52 3 71.56C1.88 73.64 1.16 75.72 0.92 77.24C0.84 78.52 0.84 78.76 1.4 79.16C1.72 79.48 2.2 79.64 2.52 79.64C3.48 79.64 4.92 78.68 6.52 76.92L8.12 75.16L8.2 76.2C8.36 77.96 8.6 78.68 9.16 79.32C9.88 80.04 11.24 80.12 12.52 79.56C13.4 79.16 15.72 77.16 16.52 76.12C17 75.4 17.16 75.4 18.6 75.72C19.8 75.96 22.36 75.64 24.36 74.92C25.48 74.52 26.44 74.12 27.8 73.24C28.92 72.52 29.72 71.88 29.72 71.64ZM52.1713 71.72C51.9313 71.24 51.4513 71.4 50.6513 71.88C49.8513 72.28 45.2913 75.56 43.2913 76.68C41.6113 77.56 40.9713 77.8 40.1713 77.72C39.3713 77.64 39.1313 77.56 39.0513 76.44L38.9713 74.76C38.8913 72.28 38.8113 71.8 38.3313 71.56C38.0113 71.4 37.4513 71.24 37.1313 71.24C36.0913 71.24 32.9713 72.92 30.3313 74.92C28.9713 76.04 27.7713 76.84 27.6913 76.76C27.5312 76.68 30.0913 71.96 32.0113 69C34.4113 65.24 37.5312 60.84 40.4913 57.08C41.8513 55.32 42.6513 54.04 42.6513 53.88C42.8913 53.16 42.4113 53 41.6113 53.24C39.7713 53.8 28.8913 69.48 26.0112 75.72C24.7312 78.6 24.5712 79.32 24.9712 79.72C25.2112 79.96 25.5312 80.12 25.8512 80.12C26.0912 80.12 27.8513 78.92 29.6913 77.4C32.8112 75 36.0913 72.84 36.7313 72.84C36.8913 72.84 36.9713 73.8 36.9713 74.92C36.9713 76.04 37.1313 77.32 37.2913 77.72C37.8513 79.08 40.1713 79.56 42.2513 78.84C44.3313 78.12 49.1313 74.92 51.2113 73C51.8513 72.36 52.2513 71.96 52.1713 71.72ZM55.9475 66.76C56.7475 65.72 56.6675 65.08 55.7075 64.92C55.1475 64.84 53.6275 66.92 53.8675 67.4C54.1875 68.04 55.1475 67.72 55.9475 66.76ZM62.7475 73.08C57.5475 76.44 53.0675 78.44 51.3075 78.44C49.3875 78.44 49.5475 77.08 51.8675 73.48C53.0675 71.64 53.2275 71.16 52.9075 70.84C52.6675 70.6 52.5075 70.52 52.2675 70.52C51.7075 70.6 51.0675 71.24 49.9475 72.92C48.9075 74.44 48.1075 76.6 48.1075 77.64C48.1075 78.28 48.2675 78.68 48.9875 79.16C49.7075 79.72 50.1075 79.88 51.1475 79.88C52.8275 79.88 54.1075 79.4 57.4675 77.8C59.8675 76.6 62.9075 74.84 65.0675 73.24C65.9475 72.6 66.5875 72.04 66.5875 71.88C66.3475 71.08 65.3075 71.4 62.7475 73.08ZM80.1588 73.24C73.1188 78.04 68.7988 79.56 65.8388 78.92C63.9187 78.52 63.5987 77.16 64.9588 74.84C65.7588 73.4 67.8388 71.56 68.4788 71.72C68.6388 71.8 68.8788 72.12 68.9588 72.52C69.1988 73.48 69.5188 73.8 70.0788 73.8C71.5188 73.8 70.8788 71.08 69.3588 70.52C66.9588 69.64 63.3587 72.44 62.3987 76.04C61.8387 77.96 63.1187 79.88 65.1988 80.28C65.5988 80.36 66.0788 80.44 66.2388 80.44C67.3587 80.76 70.7188 80.04 73.1188 79C76.1588 77.64 79.9188 75.48 82.3988 73.56C83.4388 72.76 84.0788 72.2 84.1588 71.88C84.1588 70.92 83.0388 71.32 80.1588 73.24ZM107.249 71.72C107.009 71.24 106.529 71.4 105.729 71.88C104.929 72.28 100.369 75.56 98.3694 76.68C96.6894 77.56 96.0494 77.8 95.2494 77.72C94.4494 77.64 94.2094 77.56 94.1294 76.44L94.0494 74.76C93.9694 72.28 93.8894 71.8 93.4094 71.56C93.0894 71.4 92.5294 71.24 92.2094 71.24C91.1694 71.24 88.0494 72.92 85.4094 74.92C84.0494 76.04 82.8494 76.84 82.7694 76.76C82.6094 76.68 85.1694 71.96 87.0894 69C89.4894 65.24 92.6094 60.84 95.5694 57.08C96.9294 55.32 97.7294 54.04 97.7294 53.88C97.9694 53.16 97.4894 53 96.6894 53.24C94.8494 53.8 83.9694 69.48 81.0894 75.72C79.8094 78.6 79.6494 79.32 80.0494 79.72C80.2894 79.96 80.6094 80.12 80.9294 80.12C81.1694 80.12 82.9294 78.92 84.7694 77.4C87.8894 75 91.1694 72.84 91.8094 72.84C91.9694 72.84 92.0494 73.8 92.0494 74.92C92.0494 76.04 92.2094 77.32 92.3694 77.72C92.9294 79.08 95.2494 79.56 97.3294 78.84C99.4094 78.12 104.209 74.92 106.289 73C106.929 72.36 107.329 71.96 107.249 71.72ZM156.493 71.48C156.093 71 155.293 71.4 153.213 72.68C149.693 74.84 146.333 75.8 143.773 75.8H142.493L142.893 74.76C143.533 72.84 143.373 71.88 142.013 70.76C141.693 70.36 141.053 70.2 140.413 70.2C139.773 70.2 139.133 70.36 138.653 70.6C138.253 70.84 137.773 71.08 137.533 71.16C137.293 71.24 136.573 71.96 135.933 72.76C133.293 75.88 132.813 78.76 134.653 80.04C135.693 80.84 136.493 80.92 137.933 80.44C138.973 80.04 141.133 78.28 141.453 77.64C141.533 77.32 141.933 77.24 143.213 77.24C146.573 77.24 149.773 76.44 153.933 74.04C156.173 72.68 156.813 71.96 156.493 71.48ZM139.293 77.64C138.973 78.04 138.253 78.6 137.693 78.84C136.493 79.48 135.933 79.48 135.533 78.76C135.133 78.04 135.373 77 136.253 75.48L136.893 74.36L137.533 75.16C137.853 75.64 138.653 76.12 139.213 76.52L139.933 76.92L139.293 77.64ZM141.213 74.04C141.053 74.68 140.813 75.32 140.733 75.4C140.573 75.56 140.093 75.32 139.613 75C138.893 74.52 138.733 74.2 138.733 73.64C138.733 72.68 139.533 71.72 140.333 71.64C140.413 71.64 140.493 71.64 140.493 71.64C141.293 71.72 141.533 72.6 141.213 74.04ZM178.296 71.88C178.136 70.92 177.256 71.4 175.256 73C173.336 74.52 171.416 75 169.416 75.72C168.376 76.12 165.256 76.68 165.096 76.52C165.016 76.44 165.336 75.8 165.816 75C166.936 73.24 167.016 71.88 165.976 71.08C164.296 69.72 161.256 70.92 156.936 74.6L154.376 76.68L155.416 74.84C158.776 68.44 161.816 63.4 165.656 57.96C166.936 56.2 167.816 54.68 167.816 54.44C167.656 53.88 166.616 53.8 166.056 54.28C165.336 55 160.296 62.28 158.296 65.56C155.896 69.56 152.936 75.16 151.736 78.12C150.696 80.6 150.536 81.32 150.936 81.56C151.496 82.04 152.296 81.56 154.376 79.32C158.296 75.16 162.616 71.96 164.216 71.96C165.336 71.96 164.696 73.88 162.936 75.72C162.296 76.44 161.896 76.6 160.696 76.68C158.856 76.92 157.416 77.4 156.536 78.04C154.136 79.88 158.536 80.6 161.656 78.92C162.856 78.2 163.496 78.04 165.176 77.88C169.976 77.48 172.376 77 176.616 73.72C177.896 72.76 178.376 72.28 178.296 71.88ZM190.138 73C184.618 77.24 181.018 79.08 178.298 79.08C176.218 79 175.258 78.44 175.098 77.16C175.098 76.68 175.178 75.96 175.258 75.64C175.498 75.16 175.658 75.4 177.258 75.24C178.218 75.24 179.178 75 180.058 74.2C181.658 72.84 181.738 71.4 180.378 70.76C180.058 70.6 179.738 70.6 179.418 70.6C176.938 70.6 173.498 73.64 173.178 76.44C172.938 78.44 174.378 79.88 177.018 80.36C180.538 80.92 184.618 79.24 190.538 74.52C192.378 73.08 193.178 72.12 193.258 71.88C193.338 71.4 193.018 70.84 190.138 73ZM177.258 73.08C178.058 72.44 179.018 71.96 179.418 71.96C179.498 71.96 179.498 71.96 179.578 72.04C179.898 72.28 179.258 73.16 178.378 73.56C177.338 74.12 177.338 74.12 176.858 73.8C176.618 73.72 176.698 73.48 177.258 73.08ZM215.603 71.4C215.123 71.24 214.083 71.88 209.123 75.56C204.403 79.08 201.523 80.2 201.043 78.6C200.323 76.36 205.923 63.32 210.403 56.52C211.523 54.92 211.603 54.6 210.963 54.12C210.883 54.04 210.723 54.04 210.563 54.04C210.003 53.96 209.363 54.84 207.683 57.4C203.203 64.2 200.963 67.48 199.363 69.56L197.683 71.88L196.723 71.08C195.523 70.12 194.483 70.04 193.123 70.84C191.123 71.88 188.883 75.48 188.883 77.4C188.883 79.32 190.883 79.8 193.203 78.52C194.643 77.72 197.283 75.08 199.683 72.04C201.283 70.04 201.283 70.04 200.083 73.24C199.523 74.76 199.363 75.88 199.283 77.32C199.283 79.16 199.363 79.4 199.923 79.96C200.323 80.28 200.883 80.6 201.203 80.68C203.683 81.08 206.323 79.72 212.563 75C215.843 72.44 216.483 71.64 215.603 71.4ZM194.643 75.16C192.563 77.32 190.963 78.28 190.723 77.72C190.243 76.84 193.043 72.52 194.403 71.96C194.643 71.8 194.883 71.8 195.043 71.72C195.443 71.72 195.763 71.96 196.083 72.6C196.483 73.24 196.483 73.32 194.643 75.16ZM220.01 66.76C220.81 65.72 220.73 65.08 219.77 64.92C219.21 64.84 217.69 66.92 217.93 67.4C218.25 68.04 219.21 67.72 220.01 66.76ZM226.81 73.08C221.61 76.44 217.13 78.44 215.37 78.44C213.45 78.44 213.61 77.08 215.93 73.48C217.13 71.64 217.29 71.16 216.97 70.84C216.73 70.6 216.57 70.52 216.33 70.52C215.77 70.6 215.13 71.24 214.01 72.92C212.97 74.44 212.17 76.6 212.17 77.64C212.17 78.28 212.33 78.68 213.05 79.16C213.77 79.72 214.17 79.88 215.21 79.88C216.89 79.88 218.17 79.4 221.53 77.8C223.93 76.6 226.97 74.84 229.13 73.24C230.01 72.6 230.65 72.04 230.65 71.88C230.41 71.08 229.37 71.4 226.81 73.08ZM243.341 73C237.821 77.24 234.221 79.08 231.501 79.08C229.421 79 228.461 78.44 228.301 77.16C228.301 76.68 228.381 75.96 228.461 75.64C228.701 75.16 228.861 75.4 230.461 75.24C231.421 75.24 232.381 75 233.261 74.2C234.861 72.84 234.941 71.4 233.581 70.76C233.261 70.6 232.941 70.6 232.621 70.6C230.141 70.6 226.701 73.64 226.381 76.44C226.141 78.44 227.581 79.88 230.221 80.36C233.741 80.92 237.821 79.24 243.741 74.52C245.581 73.08 246.381 72.12 246.461 71.88C246.541 71.4 246.221 70.84 243.341 73ZM230.461 73.08C231.261 72.44 232.221 71.96 232.621 71.96C232.701 71.96 232.701 71.96 232.781 72.04C233.101 72.28 232.461 73.16 231.581 73.56C230.541 74.12 230.541 74.12 230.061 73.8C229.821 73.72 229.901 73.48 230.461 73.08ZM270.086 71.8C269.766 71.08 269.046 71.4 266.806 73C261.206 77 256.966 79.24 255.446 78.84C254.886 78.68 255.046 77.16 255.846 75.24C256.726 73.08 256.726 71.96 256.006 71.4C254.566 70.36 251.606 71.72 246.326 75.88C244.006 77.64 243.126 78.2 243.286 77.8C243.526 77.08 245.446 73.96 246.486 72.52C247.126 71.56 247.206 71.48 246.726 71.08C246.406 70.84 246.166 70.76 245.766 70.92C244.646 71.56 241.526 76.76 241.206 78.52C241.126 79.16 241.206 79.48 241.526 79.8C241.846 79.96 242.246 80.2 242.566 80.2C243.126 80.2 246.086 78.2 248.246 76.28C250.406 74.44 254.326 72.2 254.726 72.52C254.806 72.6 254.566 73.48 254.166 74.44C253.126 77.16 252.966 78.12 253.526 79C254.486 80.44 256.406 80.6 259.286 79.32C262.166 78.12 266.566 75.16 268.806 73.24C269.686 72.52 270.166 72.04 270.086 71.8ZM283.284 73.24C276.244 78.04 271.924 79.56 268.964 78.92C267.044 78.52 266.724 77.16 268.084 74.84C268.884 73.4 270.964 71.56 271.604 71.72C271.764 71.8 272.004 72.12 272.084 72.52C272.324 73.48 272.644 73.8 273.204 73.8C274.644 73.8 274.004 71.08 272.484 70.52C270.084 69.64 266.484 72.44 265.524 76.04C264.964 77.96 266.244 79.88 268.324 80.28C268.724 80.36 269.204 80.44 269.364 80.44C270.484 80.76 273.844 80.04 276.244 79C279.284 77.64 283.044 75.48 285.524 73.56C286.564 72.76 287.204 72.2 287.284 71.88C287.284 70.92 286.164 71.32 283.284 73.24ZM299.513 73C293.993 77.24 290.393 79.08 287.673 79.08C285.593 79 284.633 78.44 284.473 77.16C284.473 76.68 284.553 75.96 284.633 75.64C284.873 75.16 285.033 75.4 286.633 75.24C287.593 75.24 288.553 75 289.433 74.2C291.033 72.84 291.113 71.4 289.753 70.76C289.433 70.6 289.113 70.6 288.793 70.6C286.313 70.6 282.873 73.64 282.553 76.44C282.313 78.44 283.753 79.88 286.393 80.36C289.913 80.92 293.993 79.24 299.913 74.52C301.753 73.08 302.553 72.12 302.633 71.88C302.713 71.4 302.393 70.84 299.513 73ZM286.633 73.08C287.433 72.44 288.393 71.96 288.793 71.96C288.873 71.96 288.873 71.96 288.953 72.04C289.273 72.28 288.633 73.16 287.753 73.56C286.713 74.12 286.713 74.12 286.233 73.8C285.993 73.72 286.073 73.48 286.633 73.08ZM350.457 59.56C345.737 59.48 341.897 59.4 341.897 59.32C341.897 59.32 342.537 58.28 343.257 57.16C344.617 54.92 344.697 54.04 343.577 54.2C343.177 54.2 342.537 55 341.257 57L339.497 59.72H337.897C335.337 59.72 327.737 60.2 325.257 60.44C322.857 60.76 322.297 61.08 322.857 61.72C323.177 62.04 323.497 62.12 325.417 61.88C328.057 61.56 338.217 61.08 338.377 61.16C338.457 61.24 337.817 62.6 336.937 64.12C335.977 65.64 334.377 68.52 333.177 70.52C332.057 72.52 329.737 76.68 327.897 79.72C323.097 88.12 319.977 94.76 320.537 95.64C320.937 96.12 322.137 96.28 322.457 95.8C322.617 95.64 322.697 95 322.697 94.44C322.777 93 324.857 88.52 337.257 67.32C338.137 65.8 339.257 63.8 339.817 62.84C340.697 61.32 340.857 61.16 341.817 61.08C343.737 60.76 357.497 60.84 357.817 61.16C358.377 61.56 359.737 61.32 359.897 60.76C360.057 59.72 359.577 59.64 350.457 59.56ZM359.931 71.48C359.531 71 358.731 71.4 356.651 72.68C353.131 74.84 349.771 75.8 347.211 75.8H345.931L346.331 74.76C346.971 72.84 346.811 71.88 345.451 70.76C345.131 70.36 344.491 70.2 343.851 70.2C343.211 70.2 342.571 70.36 342.091 70.6C341.691 70.84 341.211 71.08 340.971 71.16C340.731 71.24 340.011 71.96 339.371 72.76C336.731 75.88 336.251 78.76 338.091 80.04C339.131 80.84 339.931 80.92 341.371 80.44C342.411 80.04 344.571 78.28 344.891 77.64C344.971 77.32 345.371 77.24 346.651 77.24C350.011 77.24 353.211 76.44 357.371 74.04C359.611 72.68 360.251 71.96 359.931 71.48ZM342.731 77.64C342.411 78.04 341.691 78.6 341.131 78.84C339.931 79.48 339.371 79.48 338.971 78.76C338.571 78.04 338.811 77 339.691 75.48L340.331 74.36L340.971 75.16C341.291 75.64 342.091 76.12 342.651 76.52L343.371 76.92L342.731 77.64ZM344.651 74.04C344.491 74.68 344.251 75.32 344.171 75.4C344.011 75.56 343.531 75.32 343.051 75C342.331 74.52 342.171 74.2 342.171 73.64C342.171 72.68 342.971 71.72 343.771 71.64C343.851 71.64 343.931 71.64 343.931 71.64C344.731 71.72 344.971 72.6 344.651 74.04ZM407.723 59.56C403.003 59.48 399.163 59.4 399.163 59.32C399.163 59.32 399.803 58.28 400.523 57.16C401.883 54.92 401.963 54.04 400.843 54.2C400.443 54.2 399.803 55 398.523 57L396.763 59.72H395.163C392.603 59.72 385.002 60.2 382.522 60.44C380.122 60.76 379.562 61.08 380.122 61.72C380.442 62.04 380.762 62.12 382.682 61.88C385.322 61.56 395.483 61.08 395.643 61.16C395.723 61.24 395.083 62.6 394.203 64.12C393.243 65.64 391.643 68.52 390.443 70.52C389.322 72.52 387.002 76.68 385.162 79.72C380.362 88.12 377.242 94.76 377.803 95.64C378.202 96.12 379.402 96.28 379.722 95.8C379.882 95.64 379.962 95 379.962 94.44C380.042 93 382.122 88.52 394.523 67.32C395.403 65.8 396.523 63.8 397.083 62.84C397.963 61.32 398.123 61.16 399.083 61.08C401.003 60.76 414.763 60.84 415.083 61.16C415.643 61.56 417.003 61.32 417.163 60.76C417.323 59.72 416.843 59.64 407.723 59.56ZM412.707 71.72C411.587 72.2 410.547 72.36 409.427 72.36C407.507 72.36 407.107 71.8 406.467 70.84C405.507 69.24 405.107 69.32 402.147 71.64C399.827 73.56 399.747 73.56 400.387 72.6C400.947 71.64 400.947 71.48 400.547 71.16C399.827 70.52 399.187 71.08 397.427 73.88C395.347 77.32 394.467 79.48 394.947 79.88C395.107 80.12 395.507 80.28 395.667 80.28C395.907 80.28 397.187 79 398.547 77.48C401.267 74.52 404.307 71.64 404.707 71.64C404.867 71.64 405.267 71.88 405.667 72.28C406.627 73.24 407.827 73.88 410.147 73.72C411.587 73.64 413.267 73.16 414.307 72.68C414.867 72.44 415.267 72.12 415.267 71.88C415.267 71.16 414.547 71.08 412.707 71.72ZM438.999 71.72C438.759 71.24 438.039 71.4 437.479 71.8C436.999 72.12 436.359 72.52 435.719 72.92C428.679 77.72 424.439 79.4 424.439 77.32C424.439 77 424.759 75.72 425.239 74.52C425.799 73.24 426.119 72.12 425.959 71.96C425.559 71 424.919 71.32 422.039 73.64C418.759 76.2 416.439 77.96 416.039 77.96C415.719 77.96 415.799 76.68 416.279 75.56C416.519 75 417.159 73.8 417.719 72.84C418.679 71.24 418.759 71.08 418.359 70.76C417.559 70.12 416.999 70.52 415.639 72.84C414.039 75.56 413.559 77.64 414.199 78.52C415.399 79.96 417.239 79.4 420.759 76.68L422.919 74.92L422.759 76.52C422.599 77.96 423.239 79.48 425.559 79.56C427.479 79.64 431.479 77.64 435.799 74.76C438.919 72.6 439.239 72.28 438.999 71.72ZM456.004 59.56C451.284 59.48 447.444 59.4 447.444 59.32C447.444 59.32 448.084 58.28 448.804 57.16C450.164 54.92 450.244 54.04 449.124 54.2C448.724 54.2 448.084 55 446.804 57L445.044 59.72H443.444C440.884 59.72 433.284 60.2 430.804 60.44C428.404 60.76 427.844 61.08 428.404 61.72C428.724 62.04 429.044 62.12 430.964 61.88C433.604 61.56 443.764 61.08 443.924 61.16C444.004 61.24 443.364 62.6 442.484 64.12C441.524 65.64 439.924 68.52 438.724 70.52C437.604 72.52 435.284 76.68 433.444 79.72C428.644 88.12 425.524 94.76 426.084 95.64C426.484 96.12 427.684 96.28 428.004 95.8C428.164 95.64 428.244 95 428.244 94.44C428.324 93 430.404 88.52 442.804 67.32C443.684 65.8 444.804 63.8 445.364 62.84C446.244 61.32 446.404 61.16 447.364 61.08C449.284 60.76 463.044 60.84 463.364 61.16C463.924 61.56 465.284 61.32 465.444 60.76C465.604 59.72 465.124 59.64 456.004 59.56ZM470.531 71.72C470.291 71.24 469.811 71.4 469.011 71.88C468.211 72.28 463.651 75.56 461.651 76.68C459.971 77.56 459.331 77.8 458.531 77.72C457.731 77.64 457.491 77.56 457.411 76.44L457.331 74.76C457.251 72.28 457.171 71.8 456.691 71.56C456.371 71.4 455.811 71.24 455.491 71.24C454.451 71.24 451.331 72.92 448.691 74.92C447.331 76.04 446.131 76.84 446.051 76.76C445.891 76.68 448.451 71.96 450.371 69C452.771 65.24 455.891 60.84 458.851 57.08C460.211 55.32 461.011 54.04 461.011 53.88C461.251 53.16 460.771 53 459.971 53.24C458.131 53.8 447.251 69.48 444.371 75.72C443.091 78.6 442.931 79.32 443.331 79.72C443.571 79.96 443.891 80.12 444.211 80.12C444.451 80.12 446.211 78.92 448.051 77.4C451.171 75 454.451 72.84 455.091 72.84C455.251 72.84 455.331 73.8 455.331 74.92C455.331 76.04 455.491 77.32 455.651 77.72C456.211 79.08 458.531 79.56 460.611 78.84C462.691 78.12 467.491 74.92 469.571 73C470.211 72.36 470.611 71.96 470.531 71.72ZM506.494 66.76C507.294 65.72 507.214 65.08 506.254 64.92C505.694 64.84 504.174 66.92 504.414 67.4C504.734 68.04 505.694 67.72 506.494 66.76ZM513.294 73.08C508.094 76.44 503.614 78.44 501.854 78.44C499.934 78.44 500.094 77.08 502.414 73.48C503.614 71.64 503.774 71.16 503.454 70.84C503.214 70.6 503.054 70.52 502.814 70.52C502.254 70.6 501.614 71.24 500.494 72.92C499.454 74.44 498.654 76.6 498.654 77.64C498.654 78.28 498.814 78.68 499.534 79.16C500.254 79.72 500.654 79.88 501.694 79.88C503.374 79.88 504.654 79.4 508.014 77.8C510.414 76.6 513.454 74.84 515.614 73.24C516.494 72.6 517.134 72.04 517.134 71.88C516.894 71.08 515.854 71.4 513.294 73.08ZM528.767 71.88C527.567 72.36 525.087 73.16 522.847 74.04C520.607 74.92 518.527 75.72 518.367 75.88C517.807 76.2 517.647 75.96 517.247 74.44C516.847 72.92 517.087 71.96 517.967 71.48C518.687 71 518.687 70.52 517.967 70.2C517.807 70.12 517.647 70.12 517.407 70.12C516.687 70.12 515.887 70.76 515.407 71.8C515.007 72.68 515.087 73 515.487 74.84L516.047 76.84L515.407 77.24C514.047 77.88 511.887 79.48 511.327 80.12C510.527 80.92 510.527 82.28 511.247 82.76C512.047 83.24 513.727 83.16 515.167 82.52C516.767 81.88 517.887 80.36 518.207 78.6L518.367 77.4L522.927 75.56C525.487 74.6 528.207 73.64 529.407 73.16C531.167 72.52 531.647 72.2 531.647 71.8C531.647 71.08 531.007 71.08 528.767 71.88ZM514.527 81.08C514.047 81.4 513.327 81.64 512.927 81.64C512.367 81.64 512.287 81.64 512.527 81.24C512.847 80.76 515.727 78.6 516.047 78.6C516.767 78.6 515.727 80.2 514.527 81.08ZM583.436 71.4C583.116 71.16 582.556 71.4 581.116 72.52C577.116 75.32 574.716 76.2 571.116 77L569.116 77.48L570.236 76.12C572.876 72.92 572.876 70.28 570.156 70.28C567.996 70.28 564.316 73.24 560.636 77.96C559.756 79.08 558.956 80.12 558.876 80.12C558.796 80.12 559.196 79.4 559.756 78.52C563.036 73.16 564.476 70.44 564.396 70.12C564.316 69.96 563.996 69.8 563.676 69.8H563.596C563.036 69.88 562.316 70.92 559.596 75.32C556.476 80.28 550.476 90.84 549.596 92.76C549.436 93.24 549.356 93.8 549.436 93.96C549.676 94.44 550.316 94.44 550.876 94.04C551.116 93.8 553.196 91 555.516 87.72C560.476 80.76 560.636 80.52 561.116 80.92C561.836 81.56 563.916 81.08 566.076 79.72C566.556 79.4 567.516 79.08 568.236 79C570.236 78.76 573.756 77.8 575.756 77.08C578.076 76.12 580.956 74.6 582.876 73.08C583.516 72.52 583.996 72.12 583.996 71.88C583.996 71.72 583.756 71.48 583.436 71.4ZM565.196 77.96C564.876 77.96 563.996 78.12 563.356 78.28L562.156 78.68L562.556 78.12C563.836 76.2 567.836 72.6 569.436 71.88C570.156 71.56 570.396 71.4 570.476 71.96C570.796 73.48 566.556 77.96 565.196 77.96ZM595.754 71.72C594.634 72.2 593.594 72.36 592.474 72.36C590.554 72.36 590.154 71.8 589.514 70.84C588.554 69.24 588.154 69.32 585.194 71.64C582.874 73.56 582.794 73.56 583.434 72.6C583.994 71.64 583.994 71.48 583.594 71.16C582.874 70.52 582.234 71.08 580.474 73.88C578.394 77.32 577.514 79.48 577.994 79.88C578.154 80.12 578.554 80.28 578.714 80.28C578.954 80.28 580.234 79 581.594 77.48C584.314 74.52 587.354 71.64 587.754 71.64C587.914 71.64 588.314 71.88 588.714 72.28C589.674 73.24 590.874 73.88 593.194 73.72C594.634 73.64 596.314 73.16 597.354 72.68C597.914 72.44 598.314 72.12 598.314 71.88C598.314 71.16 597.594 71.08 595.754 71.72ZM619.903 72.2C619.343 72.68 618.543 73.24 617.503 74.04C613.822 77 611.503 78.2 609.743 78.44C608.783 78.52 608.543 78.44 608.303 78.04C607.823 77.32 608.143 75.88 609.183 73.96C609.903 72.68 609.983 72.36 609.743 72.04C609.183 71.56 608.863 71.56 607.983 72.28L607.183 72.92L606.703 72.12C606.223 71.16 605.423 70.68 604.303 70.68C603.423 70.76 602.383 71.08 601.262 71.72C597.342 73.88 594.622 78.76 596.622 79.96C598.062 80.84 600.702 79.88 604.383 77.08L606.303 75.64V76.92C606.303 78.12 606.383 78.36 607.263 79.08C608.863 80.36 610.863 80.12 614.383 78.2C616.383 77.08 619.343 74.76 620.943 73.24C621.503 72.68 621.823 72.28 621.823 72.12C621.823 71.24 621.423 71.16 619.903 72.2ZM603.743 75.64C602.623 76.36 601.022 77.48 600.142 77.96C598.062 79.16 597.582 79.24 597.822 78.2C598.382 75.88 602.703 72.12 604.463 72.2C604.623 72.2 604.783 72.28 604.943 72.36C605.023 72.44 605.263 72.92 605.423 73.4C605.583 74.2 605.583 74.28 603.743 75.64ZM635.081 73.24C628.041 78.04 623.721 79.56 620.761 78.92C618.841 78.52 618.521 77.16 619.881 74.84C620.681 73.4 622.761 71.56 623.401 71.72C623.561 71.8 623.801 72.12 623.881 72.52C624.121 73.48 624.441 73.8 625.001 73.8C626.441 73.8 625.801 71.08 624.281 70.52C621.881 69.64 618.281 72.44 617.321 76.04C616.761 77.96 618.041 79.88 620.121 80.28C620.521 80.36 621.001 80.44 621.161 80.44C622.281 80.76 625.641 80.04 628.041 79C631.081 77.64 634.841 75.48 637.321 73.56C638.361 72.76 639.001 72.2 639.081 71.88C639.081 70.92 637.961 71.32 635.081 73.24ZM655.691 59.56C650.971 59.48 647.131 59.4 647.131 59.32C647.131 59.32 647.771 58.28 648.491 57.16C649.851 54.92 649.931 54.04 648.811 54.2C648.411 54.2 647.771 55 646.491 57L644.731 59.72H643.131C640.571 59.72 632.971 60.2 630.491 60.44C628.091 60.76 627.531 61.08 628.091 61.72C628.411 62.04 628.731 62.12 630.651 61.88C633.291 61.56 643.451 61.08 643.611 61.16C643.691 61.24 643.051 62.6 642.171 64.12C641.211 65.64 639.611 68.52 638.411 70.52C637.291 72.52 634.971 76.68 633.131 79.72C628.331 88.12 625.211 94.76 625.771 95.64C626.171 96.12 627.371 96.28 627.691 95.8C627.851 95.64 627.931 95 627.931 94.44C628.011 93 630.091 88.52 642.491 67.32C643.371 65.8 644.491 63.8 645.051 62.84C645.931 61.32 646.091 61.16 647.051 61.08C648.971 60.76 662.731 60.84 663.051 61.16C663.611 61.56 664.971 61.32 665.131 60.76C665.291 59.72 664.811 59.64 655.691 59.56ZM652.276 66.76C653.076 65.72 652.996 65.08 652.036 64.92C651.476 64.84 649.956 66.92 650.196 67.4C650.516 68.04 651.476 67.72 652.276 66.76ZM659.076 73.08C653.876 76.44 649.396 78.44 647.636 78.44C645.716 78.44 645.876 77.08 648.196 73.48C649.396 71.64 649.556 71.16 649.236 70.84C648.996 70.6 648.836 70.52 648.596 70.52C648.036 70.6 647.396 71.24 646.276 72.92C645.236 74.44 644.436 76.6 644.436 77.64C644.436 78.28 644.596 78.68 645.316 79.16C646.036 79.72 646.436 79.88 647.476 79.88C649.156 79.88 650.436 79.4 653.796 77.8C656.196 76.6 659.236 74.84 661.396 73.24C662.276 72.6 662.916 72.04 662.916 71.88C662.676 71.08 661.636 71.4 659.076 73.08ZM676.487 73.24C669.447 78.04 665.127 79.56 662.167 78.92C660.247 78.52 659.927 77.16 661.287 74.84C662.087 73.4 664.167 71.56 664.807 71.72C664.967 71.8 665.207 72.12 665.287 72.52C665.527 73.48 665.847 73.8 666.407 73.8C667.847 73.8 667.207 71.08 665.687 70.52C663.287 69.64 659.687 72.44 658.727 76.04C658.167 77.96 659.447 79.88 661.527 80.28C661.927 80.36 662.407 80.44 662.567 80.44C663.687 80.76 667.047 80.04 669.447 79C672.487 77.64 676.247 75.48 678.727 73.56C679.767 72.76 680.407 72.2 680.487 71.88C680.487 70.92 679.367 71.32 676.487 73.24ZM692.716 73C687.196 77.24 683.596 79.08 680.876 79.08C678.796 79 677.836 78.44 677.676 77.16C677.676 76.68 677.756 75.96 677.836 75.64C678.076 75.16 678.236 75.4 679.836 75.24C680.796 75.24 681.756 75 682.636 74.2C684.236 72.84 684.316 71.4 682.956 70.76C682.636 70.6 682.316 70.6 681.996 70.6C679.516 70.6 676.076 73.64 675.756 76.44C675.516 78.44 676.956 79.88 679.596 80.36C683.116 80.92 687.196 79.24 693.116 74.52C694.956 73.08 695.756 72.12 695.836 71.88C695.916 71.4 695.596 70.84 692.716 73ZM679.836 73.08C680.636 72.44 681.596 71.96 681.996 71.96C682.076 71.96 682.076 71.96 682.156 72.04C682.476 72.28 681.836 73.16 680.956 73.56C679.916 74.12 679.916 74.12 679.436 73.8C679.196 73.72 679.276 73.48 679.836 73.08ZM718.181 71.4C717.701 71.24 716.661 71.88 711.701 75.56C706.981 79.08 704.101 80.2 703.621 78.6C702.901 76.36 708.501 63.32 712.981 56.52C714.101 54.92 714.181 54.6 713.541 54.12C713.461 54.04 713.301 54.04 713.141 54.04C712.581 53.96 711.941 54.84 710.261 57.4C705.781 64.2 703.541 67.48 701.941 69.56L700.261 71.88L699.301 71.08C698.101 70.12 697.061 70.04 695.701 70.84C693.701 71.88 691.461 75.48 691.461 77.4C691.461 79.32 693.461 79.8 695.781 78.52C697.221 77.72 699.861 75.08 702.261 72.04C703.861 70.04 703.861 70.04 702.661 73.24C702.101 74.76 701.941 75.88 701.861 77.32C701.861 79.16 701.941 79.4 702.501 79.96C702.901 80.28 703.461 80.6 703.781 80.68C706.261 81.08 708.901 79.72 715.141 75C718.421 72.44 719.061 71.64 718.181 71.4ZM697.221 75.16C695.141 77.32 693.541 78.28 693.301 77.72C692.821 76.84 695.621 72.52 696.981 71.96C697.221 71.8 697.461 71.8 697.621 71.72C698.021 71.72 698.341 71.96 698.661 72.6C699.061 73.24 699.061 73.32 697.221 75.16ZM719.228 79.32C718.588 79.56 718.428 80.44 718.988 80.84C719.468 81.32 720.588 81.24 720.908 80.68C721.468 79.8 720.268 78.84 719.228 79.32ZM28.76 111.32C28.68 110.84 28.6 110.84 23 110.84C11.4 111 5 111.24 4.84 111.56C4.76 111.72 4.92 112.04 5.16 112.2C5.48 112.44 6.28 112.6 7.56 112.6C11 112.6 27.32 112.12 28.12 111.96C28.68 111.88 28.84 111.72 28.76 111.32ZM95.255 80.84C83.655 82.92 73.415 88.36 67.335 95.56C64.695 98.76 63.335 102.84 64.775 103.32C65.415 103.48 65.655 103.24 65.975 101.8C67.495 95.08 78.855 86.6 90.615 83.48C103.095 80.04 118.135 81.08 123.815 85.72C125.575 87.16 126.295 88.52 126.295 90.68C126.215 94.44 123.735 98.12 117.895 102.84C107.495 111.24 94.535 117 83.335 118.28C82.615 118.36 82.295 118.28 82.295 118.12C82.295 117.96 83.255 115.96 84.535 113.72L86.695 109.64L88.855 109.24C90.055 109 92.055 108.68 93.415 108.52C95.575 108.28 95.895 108.36 96.775 108.68C98.375 109.4 99.255 108.6 97.815 107.64C97.175 107.24 96.615 107.16 94.855 107.16C93.575 107.16 91.575 107.32 90.375 107.56C89.175 107.72 88.055 107.88 87.895 107.88C87.575 107.88 91.255 101.72 95.895 94.52C101.415 86.04 101.495 85.96 101.335 85.48C101.335 85.24 101.015 85 100.615 85C100.135 84.92 99.815 85.32 98.535 87.08C95.415 91.72 89.735 100.52 87.495 104.36L85.095 108.44L82.215 109.32C79.175 110.2 77.655 110.76 76.055 111.8C72.215 114.12 71.095 116.52 73.095 118.28C74.135 119.16 75.175 119.56 77.095 119.72C78.055 119.8 78.855 119.96 78.855 120.12C78.855 120.2 77.975 122.12 76.935 124.36C74.855 128.76 73.015 133.24 72.695 134.6C72.535 135.16 72.615 135.48 73.015 135.8C73.575 136.28 73.495 136.2 74.375 135.96C75.175 135.72 75.335 135.08 74.855 134.6C74.455 134.36 75.575 131.48 78.455 125.64C81.415 119.4 81.015 119.88 83.495 119.72C91.415 119.16 102.375 115.24 110.615 110.2C119.175 104.92 125.335 99.4 127.335 95.08C128.535 92.36 128.455 89.08 127.175 87C125.095 83.48 119.575 81.08 111.895 80.28C110.535 80.12 108.775 80.04 106.935 80.04C102.775 80.04 97.975 80.36 95.255 80.84ZM81.815 114.68L79.815 118.36H78.455C76.935 118.36 75.175 117.96 74.375 117.48C74.215 117.32 73.975 116.84 73.975 116.36C73.975 114.76 78.375 111.88 82.855 110.52C83.255 110.44 83.495 110.36 83.655 110.36C84.215 110.28 83.735 111 81.815 114.68ZM136.856 112.2C136.296 112.68 135.496 113.24 134.456 114.04C130.776 117 128.456 118.2 126.696 118.44C125.736 118.52 125.496 118.44 125.256 118.04C124.776 117.32 125.096 115.88 126.136 113.96C126.856 112.68 126.936 112.36 126.696 112.04C126.136 111.56 125.816 111.56 124.936 112.28L124.136 112.92L123.656 112.12C123.176 111.16 122.376 110.68 121.256 110.68C120.376 110.76 119.336 111.08 118.216 111.72C114.296 113.88 111.576 118.76 113.576 119.96C115.016 120.84 117.656 119.88 121.336 117.08L123.256 115.64V116.92C123.256 118.12 123.336 118.36 124.216 119.08C125.816 120.36 127.816 120.12 131.336 118.2C133.336 117.08 136.296 114.76 137.896 113.24C138.456 112.68 138.776 112.28 138.776 112.12C138.776 111.24 138.376 111.16 136.856 112.2ZM120.696 115.64C119.576 116.36 117.976 117.48 117.096 117.96C115.016 119.16 114.536 119.24 114.776 118.2C115.336 115.88 119.656 112.12 121.416 112.2C121.576 112.2 121.736 112.28 121.896 112.36C121.976 112.44 122.216 112.92 122.376 113.4C122.536 114.2 122.536 114.28 120.696 115.64ZM150.754 111.72C149.634 112.2 148.594 112.36 147.474 112.36C145.554 112.36 145.154 111.8 144.514 110.84C143.554 109.24 143.154 109.32 140.194 111.64C137.874 113.56 137.794 113.56 138.434 112.6C138.994 111.64 138.994 111.48 138.594 111.16C137.874 110.52 137.234 111.08 135.474 113.88C133.394 117.32 132.514 119.48 132.994 119.88C133.154 120.12 133.554 120.28 133.714 120.28C133.954 120.28 135.234 119 136.594 117.48C139.314 114.52 142.354 111.64 142.754 111.64C142.914 111.64 143.314 111.88 143.714 112.28C144.674 113.24 145.874 113.88 148.194 113.72C149.634 113.64 151.314 113.16 152.354 112.68C152.914 112.44 153.314 112.12 153.314 111.88C153.314 111.16 152.594 111.08 150.754 111.72ZM177.686 111.64C177.366 111.08 176.646 111.64 175.126 112.84C172.966 114.52 169.206 116.2 167.046 117.16C163.846 118.52 161.766 118.52 160.166 117.24C158.966 116.28 158.966 115.56 160.246 115.32C161.606 115.08 164.166 114.12 165.126 113.4C166.246 112.52 166.806 111.48 166.566 110.84C166.006 108.84 162.006 110.2 156.966 114.2L154.406 116.2L155.446 114.36C157.206 111.24 161.926 103.88 165.446 98.84C167.206 96.28 168.726 93.88 168.726 93.64C168.726 93.24 168.406 93 168.006 93.08C167.766 93.08 167.526 93.16 167.286 93.32C166.086 94.28 159.126 104.36 155.286 110.84C151.846 116.68 149.766 121 150.166 121.4C150.326 121.56 150.646 121.72 150.886 121.72C151.126 121.72 152.486 120.52 154.006 119.08C155.446 117.64 156.806 116.36 156.966 116.28C157.126 116.2 157.446 116.44 157.686 116.92C158.246 117.96 159.446 118.84 160.966 119.32C162.726 119.88 164.886 119.64 167.366 118.68C169.686 117.72 173.686 115.64 176.326 113.64C177.766 112.6 177.926 111.96 177.686 111.64ZM160.726 113.48C161.046 113.08 163.686 111.72 164.006 111.72C164.406 111.72 164.086 112.2 163.286 112.6C162.886 112.92 162.006 113.24 161.366 113.48C160.406 113.8 160.326 113.8 160.726 113.48ZM190.294 113C184.774 117.24 181.174 119.08 178.454 119.08C176.374 119 175.414 118.44 175.254 117.16C175.254 116.68 175.334 115.96 175.414 115.64C175.654 115.16 175.814 115.4 177.414 115.24C178.374 115.24 179.334 115 180.214 114.2C181.814 112.84 181.894 111.4 180.534 110.76C180.214 110.6 179.894 110.6 179.574 110.6C177.094 110.6 173.654 113.64 173.334 116.44C173.094 118.44 174.534 119.88 177.174 120.36C180.694 120.92 184.774 119.24 190.694 114.52C192.534 113.08 193.334 112.12 193.414 111.88C193.494 111.4 193.174 110.84 190.294 113ZM177.414 113.08C178.214 112.44 179.174 111.96 179.574 111.96C179.654 111.96 179.654 111.96 179.734 112.04C180.054 112.28 179.414 113.16 178.534 113.56C177.494 114.12 177.494 114.12 177.014 113.8C176.774 113.72 176.854 113.48 177.414 113.08ZM205.519 111.72C204.399 112.2 203.359 112.36 202.239 112.36C200.319 112.36 199.919 111.8 199.279 110.84C198.319 109.24 197.919 109.32 194.959 111.64C192.639 113.56 192.559 113.56 193.199 112.6C193.759 111.64 193.759 111.48 193.359 111.16C192.639 110.52 191.999 111.08 190.239 113.88C188.159 117.32 187.279 119.48 187.759 119.88C187.919 120.12 188.319 120.28 188.479 120.28C188.719 120.28 189.999 119 191.359 117.48C194.079 114.52 197.119 111.64 197.519 111.64C197.679 111.64 198.079 111.88 198.479 112.28C199.439 113.24 200.639 113.88 202.959 113.72C204.399 113.64 206.079 113.16 207.119 112.68C207.679 112.44 208.079 112.12 208.079 111.88C208.079 111.16 207.359 111.08 205.519 111.72ZM273.771 80.84C262.171 82.92 251.931 88.36 245.851 95.56C243.211 98.76 241.851 102.84 243.291 103.32C243.931 103.48 244.171 103.24 244.491 101.8C246.011 95.08 257.371 86.6 269.131 83.48C281.611 80.04 296.651 81.08 302.331 85.72C304.091 87.16 304.811 88.52 304.811 90.68C304.731 94.44 302.251 98.12 296.411 102.84C286.011 111.24 273.051 117 261.851 118.28C261.131 118.36 260.811 118.28 260.811 118.12C260.811 117.96 261.771 115.96 263.051 113.72L265.211 109.64L267.371 109.24C268.571 109 270.571 108.68 271.931 108.52C274.091 108.28 274.411 108.36 275.291 108.68C276.891 109.4 277.771 108.6 276.331 107.64C275.691 107.24 275.131 107.16 273.371 107.16C272.091 107.16 270.091 107.32 268.891 107.56C267.691 107.72 266.571 107.88 266.411 107.88C266.091 107.88 269.771 101.72 274.411 94.52C279.931 86.04 280.011 85.96 279.851 85.48C279.851 85.24 279.531 85 279.131 85C278.651 84.92 278.331 85.32 277.051 87.08C273.931 91.72 268.251 100.52 266.011 104.36L263.611 108.44L260.731 109.32C257.691 110.2 256.171 110.76 254.571 111.8C250.731 114.12 249.611 116.52 251.611 118.28C252.651 119.16 253.691 119.56 255.611 119.72C256.571 119.8 257.371 119.96 257.371 120.12C257.371 120.2 256.491 122.12 255.451 124.36C253.371 128.76 251.531 133.24 251.211 134.6C251.051 135.16 251.131 135.48 251.531 135.8C252.091 136.28 252.011 136.2 252.891 135.96C253.691 135.72 253.851 135.08 253.371 134.6C252.971 134.36 254.091 131.48 256.971 125.64C259.931 119.4 259.531 119.88 262.011 119.72C269.931 119.16 280.891 115.24 289.131 110.2C297.691 104.92 303.851 99.4 305.851 95.08C307.051 92.36 306.971 89.08 305.691 87C303.611 83.48 298.091 81.08 290.411 80.28C289.051 80.12 287.291 80.04 285.451 80.04C281.291 80.04 276.491 80.36 273.771 80.84ZM260.331 114.68L258.331 118.36H256.971C255.451 118.36 253.691 117.96 252.891 117.48C252.731 117.32 252.491 116.84 252.491 116.36C252.491 114.76 256.891 111.88 261.371 110.52C261.771 110.44 262.011 110.36 262.171 110.36C262.731 110.28 262.251 111 260.331 114.68ZM315.371 112.2C314.811 112.68 314.011 113.24 312.971 114.04C309.291 117 306.971 118.2 305.211 118.44C304.251 118.52 304.011 118.44 303.771 118.04C303.291 117.32 303.611 115.88 304.651 113.96C305.371 112.68 305.451 112.36 305.211 112.04C304.651 111.56 304.331 111.56 303.451 112.28L302.651 112.92L302.171 112.12C301.691 111.16 300.891 110.68 299.771 110.68C298.891 110.76 297.851 111.08 296.731 111.72C292.811 113.88 290.091 118.76 292.091 119.96C293.531 120.84 296.171 119.88 299.851 117.08L301.771 115.64V116.92C301.771 118.12 301.851 118.36 302.731 119.08C304.331 120.36 306.331 120.12 309.851 118.2C311.851 117.08 314.811 114.76 316.411 113.24C316.971 112.68 317.291 112.28 317.291 112.12C317.291 111.24 316.891 111.16 315.371 112.2ZM299.211 115.64C298.091 116.36 296.491 117.48 295.611 117.96C293.531 119.16 293.051 119.24 293.291 118.2C293.851 115.88 298.171 112.12 299.931 112.2C300.091 112.2 300.251 112.28 300.411 112.36C300.491 112.44 300.731 112.92 300.891 113.4C301.051 114.2 301.051 114.28 299.211 115.64ZM333.589 111.4C333.349 111.4 331.269 113 330.069 113.88C328.229 115.16 325.509 117.16 324.629 117.72C321.029 119.96 317.909 120.68 316.709 119.64C315.829 118.84 315.989 116.36 317.029 113.48C317.749 111.24 317.829 111.16 318.869 110.84C319.429 110.6 320.709 109.96 321.749 109.4C331.029 104.04 337.349 95.4 333.669 93.16C333.269 92.92 333.109 92.76 332.789 92.76C332.549 92.76 332.229 92.84 331.589 93.08C327.989 94.2 322.229 99.96 318.469 106.2C314.789 112.28 313.349 116.84 314.309 119.16C314.709 120.12 315.589 121 316.469 121.32C318.389 121.96 321.429 121.24 325.189 119.16C327.109 118.04 330.869 115.16 332.949 113.32C333.669 112.6 334.149 112.12 334.149 111.96C334.069 111.72 333.829 111.4 333.589 111.4ZM321.109 105.4C324.069 100.92 329.349 95.64 331.909 94.52C332.389 94.36 332.549 94.28 332.709 94.28C332.869 94.28 332.949 94.36 333.029 94.6C333.349 95.64 331.749 98.76 329.669 101.16C327.829 103.16 324.629 105.8 321.909 107.48C320.549 108.36 319.269 109.08 319.109 109.08C318.869 109.08 319.749 107.48 321.109 105.4ZM366.055 111.72C365.735 111 364.855 111.48 362.375 113.4C357.815 116.76 355.575 118.28 353.415 118.92C352.215 119.24 352.055 119.24 351.735 118.92C351.335 118.44 351.335 118.6 352.295 115.08C353.095 112.52 353.095 112.44 352.615 111.8C352.135 111.32 351.975 111.24 351.015 111.32C349.655 111.48 348.375 112.2 345.255 114.36L343.015 115.96L343.175 114.6C343.655 111.8 343.255 110.84 341.495 110.84C339.975 110.84 338.135 111.88 334.615 115C333.735 115.8 332.935 116.44 332.855 116.36C332.855 116.36 333.255 115.32 333.815 114.2C335.255 111.08 335.495 110.36 335.095 110.04C334.935 109.96 334.615 109.88 334.295 109.96C333.335 110.28 330.375 116.84 330.375 118.76C330.295 119.72 330.375 119.8 331.095 119.88C331.655 119.96 332.055 119.64 333.415 118.28C336.935 114.76 340.215 112.2 341.255 112.2C341.575 112.2 341.655 112.52 341.415 113.88C341.175 116.2 341.255 116.92 341.815 117.32C342.615 117.8 343.575 117.4 345.975 115.72C348.695 113.72 350.695 112.6 350.935 112.76C351.095 112.84 351.015 113.4 350.775 113.88C350.615 114.44 350.215 115.72 349.975 116.68C349.495 118.76 349.735 119.64 350.855 120.12C353.255 121.08 356.535 119.72 362.535 115.16C366.135 112.44 366.295 112.28 366.055 111.72ZM378.888 113C373.368 117.24 369.768 119.08 367.048 119.08C364.968 119 364.008 118.44 363.848 117.16C363.848 116.68 363.928 115.96 364.008 115.64C364.248 115.16 364.408 115.4 366.008 115.24C366.968 115.24 367.928 115 368.808 114.2C370.408 112.84 370.488 111.4 369.128 110.76C368.808 110.6 368.488 110.6 368.168 110.6C365.688 110.6 362.248 113.64 361.928 116.44C361.688 118.44 363.128 119.88 365.768 120.36C369.288 120.92 373.368 119.24 379.288 114.52C381.128 113.08 381.928 112.12 382.008 111.88C382.088 111.4 381.768 110.84 378.888 113ZM366.008 113.08C366.808 112.44 367.768 111.96 368.168 111.96C368.248 111.96 368.248 111.96 368.328 112.04C368.648 112.28 368.008 113.16 367.128 113.56C366.088 114.12 366.088 114.12 365.608 113.8C365.368 113.72 365.448 113.48 366.008 113.08ZM394.113 111.72C392.993 112.2 391.953 112.36 390.833 112.36C388.913 112.36 388.513 111.8 387.873 110.84C386.913 109.24 386.513 109.32 383.553 111.64C381.233 113.56 381.153 113.56 381.793 112.6C382.353 111.64 382.353 111.48 381.953 111.16C381.233 110.52 380.593 111.08 378.833 113.88C376.753 117.32 375.873 119.48 376.353 119.88C376.513 120.12 376.913 120.28 377.073 120.28C377.313 120.28 378.593 119 379.953 117.48C382.673 114.52 385.713 111.64 386.113 111.64C386.273 111.64 386.673 111.88 387.073 112.28C388.033 113.24 389.233 113.88 391.553 113.72C392.993 113.64 394.673 113.16 395.713 112.68C396.273 112.44 396.673 112.12 396.673 111.88C396.673 111.16 395.953 111.08 394.113 111.72Z" fill="black" fill-opacity="0.2"/>
</svg>
