<svg width="187" height="125" viewBox="0 0 187 125" fill="none" xmlns="http://www.w3.org/2000/svg">
<g clip-path="url(#clip0)">
<path d="M0.113281 124.362C2.18645 124.362 2.29955 123.949 3.07227 122.24L8.48136 109.772H8.80175L14.2297 122.24C14.9836 123.949 15.1155 124.362 17.151 124.362V124.887H10.3472V124.362C12.3827 124.362 12.8539 123.855 12.2319 122.484L11.0823 119.855H5.12659L3.95807 122.578C3.35497 123.911 3.82614 124.456 5.84277 124.456V124.981H0.188671L0.113281 124.362ZM10.6676 118.879L8.08557 112.983L5.52238 118.879H10.6676Z" fill="#DA9E63"/>
<path d="M17.2639 125H10.2151V124.249H10.347C11.4401 124.249 12.0621 124.099 12.2317 123.761C12.4013 123.423 12.3636 123.122 12.0998 122.559L10.9878 119.855H5.22063L4.07096 122.503C3.8071 123.066 3.76941 123.441 3.93903 123.686C4.10865 123.93 4.7683 124.192 5.82373 124.192H6.06874V124.944H0V124.192H0.113077C1.99778 124.192 2.18625 123.855 2.88359 122.315V122.165L8.31154 109.64H8.80155L14.3237 122.315C15.0211 123.892 15.1718 124.192 17.0754 124.192H17.1885L17.2639 125ZM10.4601 124.756H17.0188V124.493C15.1341 124.493 14.8703 124.024 14.173 122.427V122.277L8.70732 109.903H8.55654L3.10976 122.427C2.41242 124.024 2.20511 124.474 0.24502 124.493V124.756H5.74834V124.493C4.61752 124.493 3.99557 124.286 3.73171 123.892C3.46786 123.498 3.56209 123.103 3.84479 122.446L5.051 119.667H11.1574L12.3636 122.465C12.6652 123.122 12.684 123.573 12.4767 123.892C12.2694 124.211 11.5909 124.474 10.4601 124.493V124.756ZM10.8559 119.01H5.33371L8.08537 112.682L10.8559 119.01ZM5.71064 118.766H10.4789L8.08537 113.283L5.71064 118.766Z" fill="#DA9E63"/>
<path d="M26.9702 124.362C29.0057 124.362 29.3073 123.949 29.3073 121.507V113.546C29.3073 111.105 29.0057 110.711 26.9702 110.711V110.204H33.6044V110.711C31.5689 110.711 31.2673 111.105 31.2673 113.546V121.057C31.2673 123.498 31.5689 123.892 33.6044 123.892H36.5445C38.7873 123.892 39.0512 123.329 39.3716 122.014L39.5035 121.526H39.9935L39.805 124.794H26.9702V124.362Z" fill="#DA9E63"/>
<path d="M39.9932 125H26.8003V124.249H26.9322C28.8169 124.249 29.1373 123.911 29.1373 121.508V113.546C29.1373 111.143 28.8923 110.823 26.9322 110.823H26.8003V110.072H33.6795V110.823H33.5664C31.6817 110.823 31.3613 111.143 31.3613 113.546V121.057C31.3613 123.479 31.6063 123.78 33.5664 123.78H36.5065C38.6928 123.78 38.9189 123.235 39.2205 122.015L39.3712 121.432H40.1063L39.9932 125ZM27.1395 124.756H39.767L39.9367 121.752H39.654L39.5597 122.146C39.2016 123.536 38.8435 124.024 36.6007 124.024H33.6041C31.512 124.024 31.1539 123.573 31.1539 121.057V113.546C31.1539 111.086 31.4932 110.598 33.4721 110.579V110.316H27.083V110.579C29.0808 110.579 29.42 111.086 29.42 113.546V121.508C29.42 123.986 29.0808 124.474 27.083 124.493L27.1395 124.756Z" fill="#DA9E63"/>
<path d="M50.9248 124.362C52.9603 124.362 53.2618 123.949 53.2618 121.507V113.546C53.2618 111.105 52.9603 110.711 50.9248 110.711V110.204H62.1199L62.3461 113.433H61.8184L61.7053 112.926C61.366 111.668 61.121 111.049 58.8594 111.049H55.2219V116.682H56.447C58.8971 116.682 59.2929 116.381 59.2929 114.316H59.8206V119.949H59.2929C59.2929 117.884 58.8971 117.602 56.447 117.602H55.2219V121.17C55.2219 123.611 55.5046 124.005 57.5589 124.005H59.6698C61.9315 124.005 62.1953 123.442 62.5157 122.127L62.6288 121.639H63.1565L62.9492 124.906H50.9248V124.362Z" fill="#DA9E63"/>
<path d="M63.0619 125H50.7925V124.249H50.9244C52.8091 124.249 53.1295 123.911 53.1295 121.508V113.546C53.1295 111.143 52.8845 110.823 50.9244 110.823H50.7925V110.072H62.2326L62.4776 113.546H61.7237L61.5918 112.964C61.2526 111.725 61.0264 111.218 58.859 111.218H55.3346V116.532H56.4466C58.859 116.532 59.1794 116.288 59.1794 114.297V114.222H59.9333V120.062H59.1794V119.855C59.1794 117.977 58.859 117.621 56.4466 117.621H55.3346V121.076C55.3346 123.498 55.5796 123.798 57.5586 123.798H59.6694C61.8745 123.798 62.1007 123.254 62.4022 122.033L62.5342 121.451H63.288L63.0619 125ZM51.0375 124.756H62.8357L63.0242 121.752H62.7415L62.6284 122.146C62.2892 123.536 61.9311 124.024 59.6694 124.024H57.5586C55.4665 124.024 55.0896 123.573 55.0896 121.057V117.301H56.4466C58.9155 117.301 59.4056 117.658 59.4244 119.649H59.6883V114.297H59.4244C59.4244 116.288 58.9155 116.644 56.4466 116.644H55.0707V110.842H58.8401C61.1772 110.842 61.4599 111.481 61.7991 112.72V113.114H62.1007L61.8934 110.129H50.9244V110.391C52.8091 110.391 53.2614 110.898 53.2614 113.358V121.32C53.2614 123.798 52.9033 124.287 50.9244 124.305L51.0375 124.756Z" fill="#DA9E63"/>
<path d="M78.6485 124.361C80.684 124.361 81.0044 123.948 81.0044 121.507V111.142H77.8192C75.5576 111.142 75.3126 111.706 74.9733 113.02L74.8414 113.508H74.3325L74.5398 110.222H89.429L89.6551 113.508H89.1463L89.0143 113.02C88.6751 111.724 88.4301 111.142 86.1684 111.142H82.9833V121.507C82.9833 123.948 83.2848 124.361 85.3392 124.361V124.887H78.6485V124.361Z" fill="#DA9E63"/>
<path d="M85.4524 125H78.5355V124.249H78.6486C80.5333 124.249 80.8914 123.911 80.8914 121.508V111.274H77.8193C75.6331 111.274 75.4257 111.781 75.0865 113.039L74.9357 113.621H74.2007L74.4268 110.072H89.5045L89.7495 113.621H88.9956L88.8448 113.039C88.5056 111.781 88.2794 111.274 86.112 111.274H83.0399V121.508C83.0399 123.911 83.3038 124.249 85.2827 124.249H85.3958L85.4524 125ZM78.7805 124.756H85.2262V124.493C83.2284 124.493 82.8703 123.986 82.8703 121.508V111.03H86.1874C88.5244 111.03 88.8071 111.668 89.1464 112.908L89.2594 113.302H89.5422L89.3348 110.241H74.6719L74.4645 113.302H74.7472V112.908C75.1053 111.593 75.3692 111.03 77.7251 111.03H81.0421V121.508C81.0421 123.986 80.6841 124.474 78.6863 124.493L78.7805 124.756Z" fill="#DA9E63"/>
<path d="M100.643 124.362C102.679 124.362 102.961 123.949 102.961 121.507V113.546C102.961 111.105 102.679 110.711 100.643 110.711V110.204H107.258V110.711C105.223 110.711 104.94 111.105 104.94 113.546V116.625H113.271V113.546C113.271 111.105 112.95 110.711 110.896 110.711V110.204H117.587V110.711C115.513 110.711 115.231 111.105 115.231 113.546V121.507C115.231 123.949 115.513 124.362 117.587 124.362V124.887H110.896V124.362C112.95 124.362 113.271 123.949 113.271 121.507V117.546H104.94V121.507C104.94 123.949 105.223 124.362 107.258 124.362V124.887H100.643V124.362Z" fill="#DA9E63"/>
<path d="M117.7 125H110.783V124.249H110.896C112.781 124.249 113.139 123.911 113.139 121.508V117.752H105.053V121.508C105.053 123.911 105.317 124.249 107.258 124.249H107.39V125H100.511V124.249H100.643C102.528 124.249 102.848 123.911 102.848 121.508V113.546C102.848 111.143 102.603 110.823 100.643 110.823H100.511V110.072H107.39V110.823H107.258C105.374 110.823 105.053 111.143 105.053 113.546V116.513H113.139V113.546C113.139 111.161 112.875 110.823 110.896 110.823H110.783V110.072H117.7V110.823H117.587C115.702 110.823 115.344 111.143 115.344 113.546V121.508C115.344 123.911 115.627 124.249 117.587 124.249H117.7V125ZM111.028 124.756H117.455V124.493C115.457 124.493 115.099 123.986 115.099 121.508V113.546C115.099 111.086 115.457 110.598 117.455 110.579V110.316H111.028V110.579C113.026 110.579 113.384 111.086 113.384 113.546V116.757H104.808V113.546C104.808 111.086 105.166 110.598 107.145 110.579V110.316H100.756V110.579C102.641 110.579 103.093 111.086 103.093 113.546V121.508C103.093 123.986 102.735 124.474 100.756 124.493V124.756H107.145V124.493C105.261 124.493 104.808 123.986 104.808 121.508V117.414H113.384V121.508C113.384 123.986 113.026 124.474 111.028 124.493V124.756Z" fill="#DA9E63"/>
<path d="M129.253 124.362C131.288 124.362 131.59 123.949 131.59 121.507V113.546C131.59 111.105 131.288 110.711 129.253 110.711V110.204H140.448L140.674 113.433H140.165L140.033 112.926C139.694 111.668 139.449 111.049 137.188 111.049H133.55V116.682H134.775C137.244 116.682 137.621 116.381 137.621 114.316H138.149V119.949H137.621C137.621 117.884 137.244 117.602 134.775 117.602H133.55V121.17C133.55 123.611 133.852 124.005 135.887 124.005H137.998C140.26 124.005 140.523 123.442 140.844 122.127L140.976 121.639H141.485L141.296 124.906H129.253V124.362Z" fill="#DA9E63"/>
<path d="M141.409 125H129.121V124.249H129.253C131.137 124.249 131.458 123.911 131.458 121.508V113.546C131.458 111.143 131.213 110.823 129.253 110.823H129.121V110.072H140.561L140.806 113.546H140.071L139.92 112.964C139.581 111.725 139.355 111.218 137.187 111.218H133.682V116.532H134.775C137.206 116.532 137.508 116.288 137.508 114.297V114.222H138.261V120.062H137.508V119.855C137.508 117.977 137.206 117.621 134.775 117.621H133.682V121.076C133.682 123.498 133.927 123.798 135.887 123.798H137.998C140.203 123.798 140.429 123.254 140.73 122.033L140.881 121.451H141.616L141.409 125ZM129.366 124.756H141.164L141.352 121.752H141.07L140.957 122.146C140.617 123.536 140.259 124.024 137.998 124.024H135.887C133.795 124.024 133.437 123.573 133.437 121.057V117.301H134.775C137.263 117.301 137.734 117.658 137.753 119.649H137.998V114.297H137.734C137.734 116.288 137.244 116.644 134.756 116.644H133.418V110.842H137.187C139.524 110.842 139.807 111.481 140.146 112.72L140.259 113.114H140.542L140.335 110.129H129.366V110.391C131.363 110.391 131.703 110.898 131.703 113.358V121.32C131.703 123.798 131.363 124.287 129.366 124.305V124.756Z" fill="#DA9E63"/>
<path d="M153.396 124.362C155.431 124.362 155.733 123.949 155.733 121.507V113.546C155.733 111.105 155.431 110.711 153.396 110.711V110.204H160.03V110.711C157.994 110.711 157.693 111.105 157.693 113.546V121.507C157.693 123.949 157.994 124.362 160.03 124.362V124.887H153.396V124.362Z" fill="#DA9E63"/>
<path d="M160.162 125H153.283V124.249H153.396C155.28 124.249 155.601 123.911 155.601 121.508V113.546C155.601 111.143 155.356 110.823 153.396 110.823H153.283V110.072H160.162V110.823H160.03C158.145 110.823 157.825 111.143 157.825 113.546V121.508C157.825 123.911 158.089 124.249 160.03 124.249H160.162V125ZM153.528 124.756H159.898V124.493C157.919 124.493 157.58 123.986 157.58 121.508V113.546C157.58 111.086 157.919 110.598 159.898 110.579V110.316H153.528V110.579C155.412 110.579 155.846 111.086 155.846 113.546V121.508C155.846 123.986 155.507 124.474 153.528 124.493V124.756Z" fill="#DA9E63"/>
<path d="M169.849 124.362C171.922 124.362 172.035 123.949 172.808 122.24L178.198 109.772H178.519L183.947 122.24C184.719 123.949 184.833 124.362 186.887 124.362V124.887H180.083V124.362C182.119 124.362 182.571 123.855 181.968 122.484L180.799 119.761H174.844L173.675 122.484C173.072 123.817 173.543 124.362 175.56 124.362V124.887H169.906L169.849 124.362ZM180.385 118.879L177.821 112.983L175.258 118.879H180.385Z" fill="#DA9E63"/>
<path d="M187 125H179.951V124.249H180.083C181.176 124.249 181.798 124.099 181.968 123.761C182.137 123.423 182.1 123.122 181.836 122.559L180.686 119.911H174.938L173.807 122.559C173.543 123.122 173.505 123.498 173.675 123.742C173.845 123.986 174.504 124.249 175.56 124.249H175.692V125H169.698V124.249H169.811C171.696 124.249 171.884 123.911 172.582 122.371V122.221L178.01 109.697H178.5L184.022 122.371C184.719 123.948 184.87 124.249 186.774 124.249H187V125ZM180.196 124.756H186.755V124.493C184.87 124.493 184.606 124.024 183.909 122.427V122.277L178.519 109.903H178.368L172.921 122.427C172.224 124.024 172.016 124.474 170.056 124.493V124.756H175.56V124.493C174.429 124.493 173.807 124.286 173.543 123.892C173.279 123.498 173.355 123.103 173.656 122.446L174.862 119.667H180.969L182.175 122.465C182.458 123.122 182.495 123.573 182.288 123.892C182.081 124.211 181.402 124.474 180.271 124.493L180.196 124.756ZM180.573 119.01H175.07L177.821 112.682L180.573 119.01ZM175.447 118.766H180.196L177.821 113.283L175.447 118.766Z" fill="#DA9E63"/>
<path d="M74.823 18.6456C80.3451 19.04 80.7221 14.6836 80.7221 14.6836L80.5336 14.4208C80.5336 14.4208 76.3495 13.1251 74.6533 18.3828L74.823 18.6456Z" fill="#DA9E63"/>
<path d="M79.5722 26.7012C79.5722 26.7012 76.8205 30.0998 81.0988 33.6112H81.4004C83.7939 28.6352 79.8738 26.7012 79.8738 26.7012H79.5722Z" fill="#DA9E63"/>
<path d="M59.1042 34.5502L58.8026 34.4375C54.1286 37.4231 56.4656 41.1222 56.4656 41.1222L56.7483 41.2161C56.7483 41.2161 60.8946 39.7702 59.1042 34.5502Z" fill="#DA9E63"/>
<path d="M83.1151 21.1244L82.9644 21.4061C82.9644 21.4061 83.7371 25.7061 89.2027 24.786L89.3535 24.5231C87.1107 19.4532 83.1151 21.1244 83.1151 21.1244Z" fill="#DA9E63"/>
<path d="M59.2739 25.969L59.142 25.6873C53.7894 24.2415 52.6021 28.4476 52.6021 28.4476L52.734 28.7292C52.734 28.7292 56.5788 30.7759 59.2739 25.969Z" fill="#DA9E63"/>
<path d="M63.929 21.5186H64.2494C66.888 16.6553 63.0432 14.5522 63.0432 14.5522H62.7416C62.7416 14.5522 59.8392 17.8007 63.929 21.5186Z" fill="#DA9E63"/>
<path d="M71.4491 36.484V36.1648C67.2273 32.5971 64.3438 35.8831 64.3438 35.8831V36.1836C64.3438 36.1836 66.9635 39.7137 71.4491 36.484Z" fill="#DA9E63"/>
<path d="M87.356 8.44979L87.5068 8.18691C85.3206 3.09828 81.2685 4.78824 81.2685 4.78824L81.1177 5.05112C81.1177 5.05112 81.8904 9.3511 87.356 8.44979Z" fill="#DA9E63"/>
<path d="M112.215 18.6456L112.385 18.3828C110.688 13.1251 106.504 14.4208 106.504 14.4208L106.316 14.6836C106.316 14.6836 106.693 19.04 112.215 18.6456Z" fill="#DA9E63"/>
<path d="M105.675 33.4796H105.977C110.255 29.9683 107.503 26.5696 107.503 26.5696H107.202C107.202 26.5696 103.282 28.56 105.675 33.4796Z" fill="#DA9E63"/>
<path d="M127.934 34.5502C126.143 39.7702 130.289 41.2161 130.289 41.2161L130.572 41.1222C130.572 41.1222 132.909 37.3667 128.235 34.4375L127.934 34.5502Z" fill="#DA9E63"/>
<path d="M104.073 21.4061L103.922 21.1244C103.922 21.1244 99.8703 19.4532 97.6841 24.5231L97.8349 24.786C103.301 25.7061 104.073 21.4061 104.073 21.4061Z" fill="#DA9E63"/>
<path d="M127.896 25.6685L127.764 25.9502C130.459 30.7759 134.322 28.7104 134.322 28.7104L134.435 28.4288C134.435 28.4288 133.248 24.2227 127.896 25.6685Z" fill="#DA9E63"/>
<path d="M123.109 21.5188C127.199 17.7634 124.296 14.5337 124.296 14.5337H123.995C123.995 14.5337 120.225 16.6367 122.789 21.5L123.109 21.5188Z" fill="#DA9E63"/>
<path d="M115.57 36.1648V36.484C120.055 39.7137 122.656 36.1836 122.656 36.1836V35.8831C122.656 35.8831 119.792 32.5971 115.57 36.1648Z" fill="#DA9E63"/>
<path d="M105.958 5.05112L105.807 4.78824C105.807 4.78824 101.755 3.09828 99.5688 8.18691L99.7196 8.44979C105.148 9.3511 105.958 5.05112 105.958 5.05112Z" fill="#DA9E63"/>
<path d="M140.938 46.6239C138.709 47.1901 136.388 47.2987 134.115 46.9431C128.461 46.3985 123.636 43.4881 118.642 40.4086L118.284 40.202C116.291 38.8584 114.114 37.8085 111.819 37.085C110.467 36.6992 109.055 36.5655 107.654 36.6907C108.333 35.9772 108.992 35.2636 109.652 34.5313L110.255 33.8553C111.179 32.8226 112.14 31.7523 113.139 30.7947C115.311 28.7925 117.801 27.162 120.508 25.9689C122.826 30.0436 127.293 32.1842 132.042 34.1558L132.4 34.306C133.009 35.1786 133.503 36.1251 133.87 37.1226C134.367 38.5786 135.193 39.9019 136.283 40.9907C137.366 41.8206 138.621 42.398 139.958 42.6806L140.222 40.9907C139.214 40.7602 138.264 40.3255 137.432 39.7138C136.576 38.7582 135.933 37.6316 135.548 36.409C135.422 36.0585 135.271 35.7018 135.095 35.3387L139.864 37.3291L140.523 35.7518L132.796 32.5222C128.405 30.6444 124.296 28.7667 122.204 25.2366C126.215 23.838 130.389 22.9546 134.624 22.6078L134.436 20.8991C127.896 21.5938 120.508 22.9458 114.288 27.6025C114.403 24.6979 114.969 21.8286 115.966 19.0964C117.551 14.5209 118.192 9.67316 117.85 4.84453L116.154 5.05108C116.438 8.4091 116.125 11.7906 115.231 15.0406C113.691 11.265 113.215 7.14221 113.855 3.11703L112.14 2.92925C111.499 9.01307 112.309 13.7637 114.59 17.444L114.251 18.5895C113.014 21.9018 112.438 25.4225 112.554 28.9545L111.989 29.4427C110.915 30.4379 109.935 31.5457 108.973 32.616L108.389 33.292C105.996 35.9396 103.451 38.5121 100.85 40.9156C99.2796 42.5828 97.3451 43.8677 95.1962 44.671C96.8954 41.2387 97.7126 37.4397 97.5745 33.615C97.4363 29.7904 96.3471 26.0598 94.4047 22.758C96.2164 19.3111 97.2741 15.5206 97.508 11.6366C97.7419 7.75264 97.1467 3.86338 95.7617 0.225332L94.2162 0.976417C96.6051 7.38742 96.3613 14.4782 93.5377 20.7113C92.0938 17.5995 91.2822 14.2338 91.1496 10.8081C91.017 7.38243 91.566 3.96446 92.765 0.751092L91.2195 0C89.8451 3.64022 89.2556 7.52804 89.4894 11.4103C89.7232 15.2926 90.7751 19.0823 92.5765 22.5327C90.6478 25.8172 89.5615 29.5247 89.4135 33.3271C89.2656 37.1295 90.0607 40.9097 91.7284 44.333C89.6344 43.5495 87.7417 42.3116 86.1874 40.709C83.5484 38.2947 81.0323 35.7503 78.6486 33.0855L78.0643 32.4283C77.1031 31.358 76.1796 30.2501 75.0299 29.2361L74.5211 28.7855C74.6182 25.2609 74.0426 21.7499 72.8248 18.4392L72.4856 17.3502C74.7661 13.5947 75.5577 8.88163 74.9169 2.81658H73.9557L73.0887 2.91048H72.9756C73.5772 6.80676 73.1551 10.7919 71.7506 14.4772C70.9085 11.3462 70.6278 8.0916 70.9213 4.8633H70.7894L69.9413 4.75064L68.9612 4.63798C68.6046 9.48551 69.246 14.3545 70.8459 18.9462C71.7954 21.5941 72.3602 24.3636 72.5233 27.1706C66.3038 22.6078 58.9911 21.2746 52.4889 20.5986V20.7113V21.575V22.5515C56.6603 22.881 60.7715 23.7457 64.7206 25.1239C62.6286 28.5226 58.5765 30.4191 54.2605 32.2217L46.5521 35.4514L46.9291 36.3527L47.2495 37.1414V37.254L51.7162 35.3763C51.6031 35.6204 51.49 35.8833 51.3958 36.1462C51.0166 37.3602 50.373 38.4758 49.5111 39.4134C48.6943 40.0116 47.7649 40.4394 46.7783 40.6715V40.9907L46.9102 41.8357L47.061 42.8121C48.4307 42.5224 49.7183 41.9323 50.8304 41.0846C51.9507 39.9687 52.7903 38.6046 53.2805 37.1038C53.6312 36.1296 54.1131 35.2074 54.7129 34.3623L55.0333 34.2121C59.7827 32.3344 64.2306 30.1187 66.5676 26.0628C69.2257 27.223 71.6716 28.8158 73.8049 30.7759C74.819 31.7453 75.7815 32.7669 76.6885 33.8366L77.3104 34.5125C77.8759 35.151 78.479 35.7894 79.0632 36.3903C77.7552 36.3193 76.4442 36.4588 75.1807 36.8034C72.877 37.5411 70.6883 38.5966 68.6785 39.9392L68.3393 40.1457C63.3448 43.2252 58.6142 46.1356 52.9036 46.6802C50.6483 47.0219 48.3471 46.907 46.1375 46.3422V46.4736L45.8548 47.2811L45.5532 48.2011C46.9358 48.639 48.381 48.8483 49.8315 48.8208C50.9435 48.8208 52.0554 48.8208 53.1297 48.633C59.2927 48.0509 64.4379 44.8776 69.4135 41.8169L69.7528 41.6103C71.6245 40.38 73.6613 39.4191 75.8027 38.7562C77.7917 38.1177 79.9511 38.2656 81.8337 39.1693C82.908 40.2396 83.9823 41.2724 85.0942 42.2863C87.0026 44.3459 89.4402 45.8459 92.143 46.6239C90.3883 50.0753 89.5071 53.9018 89.5761 57.7701C89.645 61.6385 90.6621 65.4314 92.5388 68.8185C91.2761 70.9028 86.4701 80.0849 92.765 92.1586H94.2916C100.568 80.1788 95.7805 70.9404 94.4989 68.8373C96.3896 65.4287 97.408 61.6083 97.4639 57.7142C97.5197 53.8201 96.6114 49.9723 94.8193 46.5112C97.5397 45.7846 100.005 44.3224 101.943 42.2863C103.055 41.2724 104.167 40.2208 105.242 39.1505C107.148 38.2116 109.347 38.0565 111.367 38.7186C113.498 39.4039 115.522 40.3836 117.379 41.6291L117.737 41.8544C122.694 44.8964 127.82 48.0509 133.965 48.633C135.039 48.633 136.132 48.8208 137.244 48.8208C138.681 48.8467 140.112 48.6439 141.485 48.2199L140.938 46.6239ZM93.5189 24.7672C94.9601 27.7621 95.7082 31.041 95.7082 34.3623C95.7082 37.6836 94.9601 40.9626 93.5189 43.9575C92.0868 40.96 91.3438 37.6821 91.3438 34.3623C91.3438 31.0426 92.0868 27.7647 93.5189 24.7672ZM93.5189 89.6988C92.0872 86.7046 91.3442 83.4297 91.3442 80.113C91.3442 76.7964 92.0872 73.5215 93.5189 70.5273C94.3202 72.1282 94.9094 73.8261 95.2716 75.5783C96.2239 80.3506 95.6093 85.3015 93.5189 89.6988ZM93.5189 66.8282C92.0868 63.8307 91.3438 60.5527 91.3438 57.233C91.3438 53.9133 92.0868 50.6353 93.5189 47.6378C94.3162 49.2471 94.9051 50.9506 95.2716 52.7077C96.2239 57.4799 95.6093 62.4308 93.5189 66.8282Z" fill="#DA9E63"/>
</g>
<defs>
<clipPath id="clip0">
<rect width="187" height="125" fill="white"/>
</clipPath>
</defs>
</svg>
