<svg width="898" height="178" viewBox="0 0 898 178" fill="none" xmlns="http://www.w3.org/2000/svg">
<path d="M119.883 49.96L118.843 52.52H117.723C115.483 52.68 107.883 53.32 107.083 53.48C105.963 53.64 105.643 54.2 106.363 54.6C106.683 54.84 107.323 54.92 107.803 54.84C109.163 54.68 113.243 54.28 115.963 54.12C118.043 53.96 118.443 54.04 118.763 54.36C119.323 54.84 120.123 54.84 120.523 54.28C120.923 53.8 121.323 53.8 126.523 53.72C130.043 53.72 132.283 53.8 132.683 53.96C133.883 54.52 134.523 53.4 133.323 52.76C132.763 52.44 131.643 52.36 126.763 52.36C123.483 52.36 120.843 52.36 120.843 52.28C120.843 51.88 123.643 45.96 125.723 41.96C129.403 34.84 136.683 22.84 144.923 10.12C146.683 7.48 148.603 4.52 149.243 3.56C150.043 2.28 150.443 1.8 151.003 1.72C151.883 1.56 165.803 1.8 166.763 1.96C167.563 2.2 167.883 1.48 167.243 0.999996C166.683 0.519998 162.443 0.279996 154.763 0.279996C147.083 0.199997 140.603 0.599997 135.723 1.4C133.963 1.72 133.323 2.2 134.043 2.68C134.443 3 134.683 3.08 136.123 2.84C140.523 2.12 147.963 1.64 147.963 2.04C147.963 2.2 145.963 5.24 142.923 9.8C132.283 25.88 123.963 40.44 119.883 49.96ZM166.993 31.8C166.673 31.08 165.953 31.4 163.713 33C158.113 37 153.873 39.24 152.353 38.84C151.793 38.68 151.953 37.16 152.753 35.24C153.633 33.08 153.633 31.96 152.913 31.4C151.473 30.36 148.513 31.72 143.233 35.88C140.912 37.64 140.032 38.2 140.192 37.8C140.432 37.08 142.353 33.96 143.393 32.52C144.033 31.56 144.113 31.48 143.633 31.08C143.313 30.84 143.073 30.76 142.673 30.92C141.553 31.56 138.432 36.76 138.112 38.52C138.032 39.16 138.112 39.48 138.432 39.8C138.752 39.96 139.152 40.2 139.472 40.2C140.032 40.2 142.993 38.2 145.153 36.28C147.313 34.44 151.233 32.2 151.633 32.52C151.713 32.6 151.473 33.48 151.073 34.44C150.033 37.16 149.873 38.12 150.433 39C151.393 40.44 153.313 40.6 156.193 39.32C159.073 38.12 163.473 35.16 165.713 33.24C166.593 32.52 167.073 32.04 166.993 31.8ZM215.566 19.56C210.846 19.48 207.006 19.4 207.006 19.32C207.006 19.32 207.646 18.28 208.366 17.16C209.726 14.92 209.806 14.04 208.686 14.2C208.286 14.2 207.646 15 206.366 17L204.606 19.72H203.006C200.446 19.72 192.846 20.2 190.366 20.44C187.966 20.76 187.406 21.08 187.966 21.72C188.286 22.04 188.606 22.12 190.526 21.88C193.166 21.56 203.326 21.08 203.486 21.16C203.566 21.24 202.926 22.6 202.046 24.12C201.086 25.64 199.486 28.52 198.286 30.52C197.166 32.52 194.846 36.68 193.006 39.72C188.206 48.12 185.086 54.76 185.646 55.64C186.046 56.12 187.246 56.28 187.566 55.8C187.726 55.64 187.806 55 187.806 54.44C187.886 53 189.966 48.52 202.366 27.32C203.246 25.8 204.366 23.8 204.926 22.84C205.806 21.32 205.966 21.16 206.926 21.08C208.846 20.76 222.606 20.84 222.926 21.16C223.486 21.56 224.846 21.32 225.006 20.76C225.166 19.72 224.686 19.64 215.566 19.56ZM230.093 31.72C229.853 31.24 229.373 31.4 228.573 31.88C227.773 32.28 223.213 35.56 221.213 36.68C219.533 37.56 218.893 37.8 218.093 37.72C217.293 37.64 217.053 37.56 216.973 36.44L216.893 34.76C216.813 32.28 216.733 31.8 216.253 31.56C215.933 31.4 215.373 31.24 215.053 31.24C214.013 31.24 210.893 32.92 208.253 34.92C206.893 36.04 205.693 36.84 205.613 36.76C205.453 36.68 208.013 31.96 209.933 29C212.333 25.24 215.453 20.84 218.413 17.08C219.773 15.32 220.573 14.04 220.573 13.88C220.813 13.16 220.333 13 219.533 13.24C217.693 13.8 206.813 29.48 203.933 35.72C202.653 38.6 202.493 39.32 202.893 39.72C203.133 39.96 203.453 40.12 203.773 40.12C204.013 40.12 205.773 38.92 207.613 37.4C210.733 35 214.013 32.84 214.653 32.84C214.813 32.84 214.893 33.8 214.893 34.92C214.893 36.04 215.053 37.32 215.213 37.72C215.773 39.08 218.093 39.56 220.173 38.84C222.253 38.12 227.053 34.92 229.133 33C229.773 32.36 230.173 31.96 230.093 31.72ZM242.669 33C237.149 37.24 233.549 39.08 230.829 39.08C228.749 39 227.789 38.44 227.629 37.16C227.629 36.68 227.709 35.96 227.789 35.64C228.029 35.16 228.189 35.4 229.789 35.24C230.749 35.24 231.709 35 232.589 34.2C234.189 32.84 234.269 31.4 232.909 30.76C232.589 30.6 232.269 30.6 231.949 30.6C229.469 30.6 226.029 33.64 225.709 36.44C225.469 38.44 226.909 39.88 229.549 40.36C233.069 40.92 237.149 39.24 243.069 34.52C244.909 33.08 245.709 32.12 245.789 31.88C245.869 31.4 245.549 30.84 242.669 33ZM229.789 33.08C230.589 32.44 231.549 31.96 231.949 31.96C232.029 31.96 232.029 31.96 232.109 32.04C232.429 32.28 231.789 33.16 230.909 33.56C229.869 34.12 229.869 34.12 229.389 33.8C229.149 33.72 229.229 33.48 229.789 33.08ZM298.093 31.88C297.933 30.92 297.053 31.4 295.053 33C293.133 34.52 291.213 35 289.213 35.72C288.173 36.12 285.053 36.68 284.893 36.52C284.813 36.44 285.133 35.8 285.613 35C286.733 33.24 286.813 31.88 285.773 31.08C284.093 29.72 281.053 30.92 276.733 34.6L274.173 36.68L275.213 34.84C278.573 28.44 281.613 23.4 285.453 17.96C286.733 16.2 287.613 14.68 287.613 14.44C287.453 13.88 286.413 13.8 285.853 14.28C285.133 15 280.093 22.28 278.093 25.56C275.693 29.56 272.733 35.16 271.533 38.12C270.493 40.6 270.333 41.32 270.733 41.56C271.293 42.04 272.093 41.56 274.173 39.32C278.093 35.16 282.413 31.96 284.013 31.96C285.133 31.96 284.493 33.88 282.733 35.72C282.093 36.44 281.693 36.6 280.493 36.68C278.653 36.92 277.213 37.4 276.333 38.04C273.933 39.88 278.333 40.6 281.453 38.92C282.653 38.2 283.293 38.04 284.973 37.88C289.773 37.48 292.173 37 296.413 33.72C297.693 32.76 298.173 32.28 298.093 31.88ZM309.935 33C304.415 37.24 300.815 39.08 298.095 39.08C296.015 39 295.055 38.44 294.895 37.16C294.895 36.68 294.975 35.96 295.055 35.64C295.295 35.16 295.455 35.4 297.055 35.24C298.015 35.24 298.975 35 299.855 34.2C301.455 32.84 301.535 31.4 300.175 30.76C299.855 30.6 299.535 30.6 299.215 30.6C296.735 30.6 293.295 33.64 292.975 36.44C292.735 38.44 294.175 39.88 296.815 40.36C300.335 40.92 304.415 39.24 310.335 34.52C312.175 33.08 312.975 32.12 313.055 31.88C313.135 31.4 312.815 30.84 309.935 33ZM297.055 33.08C297.855 32.44 298.815 31.96 299.215 31.96C299.295 31.96 299.295 31.96 299.375 32.04C299.695 32.28 299.055 33.16 298.175 33.56C297.135 34.12 297.135 34.12 296.655 33.8C296.415 33.72 296.495 33.48 297.055 33.08ZM333 31.4H332.92C332.52 31.4 331.72 31.64 330.52 32.12C328.6 32.84 327.32 33.32 325.08 34.44C323 35.48 322.76 35.56 322.92 35.16C323 34.84 323.16 33.96 323.24 33.16C323.4 31.96 323.32 31.72 322.84 31.24C321.96 30.52 321.08 30.6 319.16 31.64C317.72 32.44 317.48 32.52 317.32 32.2C317.24 31.96 316.76 31.56 316.36 31.24C315.8 30.76 315.48 30.68 314.28 30.84C313.08 30.92 312.76 31.08 311.24 32.44C307.64 35.48 306.28 39.72 308.68 40.28C310.04 40.52 311.32 39.8 315.72 36.2C319.72 33 321.08 32.12 321.56 32.52C321.64 32.52 321.32 33.64 320.84 34.92C319.96 37 319.8 37.32 318.68 37.96C316.52 39.24 312.44 41.96 309.56 44.04C303.24 48.6 300.44 52.52 302.2 54.12C303.72 55.4 307.24 54.2 310.92 51.24C313.8 48.92 316.68 45.64 319.24 41.72C320.28 40.12 321.32 38.6 321.56 38.28C322.04 37.56 323.56 36.68 328.92 34.36C329.96 33.88 330.76 33.48 331.48 33.16C333.4 32.2 333.72 31.72 333 31.4ZM313.24 36.12C309.32 39.32 308.76 39.48 309.88 37.08C310.68 35.4 312.84 33 314.04 32.52C314.6 32.28 314.84 32.12 315 32.12C315.24 32.12 315.32 32.28 315.48 32.52C315.72 32.76 316.04 33.08 316.2 33.24C316.36 33.4 315.4 34.36 313.24 36.12ZM315.24 43.96C312.52 47.64 309 50.92 306.36 52.36C305.72 52.68 304.84 53 304.44 53.08C303.72 53.24 303.64 53.24 303.64 52.6C303.64 50.92 308.12 46.68 314.2 42.68C316.28 41.24 317.4 40.52 317.64 40.52C317.88 40.6 317 41.64 315.24 43.96ZM337.776 26.76C338.576 25.72 338.496 25.08 337.536 24.92C336.976 24.84 335.456 26.92 335.696 27.4C336.016 28.04 336.976 27.72 337.776 26.76ZM344.576 33.08C339.376 36.44 334.896 38.44 333.136 38.44C331.216 38.44 331.376 37.08 333.696 33.48C334.896 31.64 335.056 31.16 334.736 30.84C334.496 30.6 334.336 30.52 334.096 30.52C333.536 30.6 332.896 31.24 331.776 32.92C330.736 34.44 329.936 36.6 329.936 37.64C329.936 38.28 330.096 38.68 330.816 39.16C331.536 39.72 331.936 39.88 332.976 39.88C334.656 39.88 335.936 39.4 339.296 37.8C341.696 36.6 344.736 34.84 346.896 33.24C347.776 32.6 348.416 32.04 348.416 31.88C348.176 31.08 347.136 31.4 344.576 33.08ZM372.227 31.8C371.907 31.08 371.187 31.4 368.947 33C363.347 37 359.107 39.24 357.587 38.84C357.027 38.68 357.187 37.16 357.987 35.24C358.867 33.08 358.867 31.96 358.147 31.4C356.707 30.36 353.747 31.72 348.467 35.88C346.147 37.64 345.267 38.2 345.427 37.8C345.667 37.08 347.587 33.96 348.627 32.52C349.267 31.56 349.347 31.48 348.867 31.08C348.547 30.84 348.307 30.76 347.907 30.92C346.787 31.56 343.667 36.76 343.347 38.52C343.267 39.16 343.347 39.48 343.667 39.8C343.987 39.96 344.387 40.2 344.707 40.2C345.267 40.2 348.227 38.2 350.387 36.28C352.547 34.44 356.467 32.2 356.867 32.52C356.947 32.6 356.707 33.48 356.307 34.44C355.267 37.16 355.107 38.12 355.667 39C356.627 40.44 358.547 40.6 361.427 39.32C364.307 38.12 368.707 35.16 370.947 33.24C371.827 32.52 372.307 32.04 372.227 31.8ZM396.289 31.8C395.969 31.08 395.249 31.4 393.009 33C387.409 37 383.169 39.24 381.649 38.84C381.089 38.68 381.249 37.16 382.049 35.24C382.929 33.08 382.929 31.96 382.209 31.4C380.769 30.36 377.809 31.72 372.529 35.88C370.209 37.64 369.329 38.2 369.489 37.8C369.729 37.08 371.649 33.96 372.689 32.52C373.329 31.56 373.409 31.48 372.929 31.08C372.609 30.84 372.369 30.76 371.969 30.92C370.849 31.56 367.729 36.76 367.409 38.52C367.329 39.16 367.409 39.48 367.729 39.8C368.049 39.96 368.449 40.2 368.769 40.2C369.329 40.2 372.289 38.2 374.449 36.28C376.609 34.44 380.529 32.2 380.929 32.52C381.009 32.6 380.769 33.48 380.369 34.44C379.329 37.16 379.169 38.12 379.729 39C380.689 40.44 382.609 40.6 385.489 39.32C388.369 38.12 392.769 35.16 395.009 33.24C395.889 32.52 396.369 32.04 396.289 31.8ZM408.763 33C403.243 37.24 399.643 39.08 396.923 39.08C394.843 39 393.883 38.44 393.723 37.16C393.723 36.68 393.803 35.96 393.883 35.64C394.123 35.16 394.283 35.4 395.883 35.24C396.843 35.24 397.803 35 398.683 34.2C400.283 32.84 400.363 31.4 399.003 30.76C398.683 30.6 398.363 30.6 398.043 30.6C395.563 30.6 392.123 33.64 391.803 36.44C391.563 38.44 393.003 39.88 395.643 40.36C399.163 40.92 403.243 39.24 409.163 34.52C411.003 33.08 411.803 32.12 411.883 31.88C411.963 31.4 411.643 30.84 408.763 33ZM395.883 33.08C396.683 32.44 397.643 31.96 398.043 31.96C398.123 31.96 398.123 31.96 398.203 32.04C398.523 32.28 397.883 33.16 397.003 33.56C395.963 34.12 395.963 34.12 395.483 33.8C395.243 33.72 395.323 33.48 395.883 33.08ZM423.988 31.72C422.868 32.2 421.828 32.36 420.708 32.36C418.788 32.36 418.388 31.8 417.748 30.84C416.788 29.24 416.388 29.32 413.428 31.64C411.108 33.56 411.028 33.56 411.668 32.6C412.228 31.64 412.228 31.48 411.828 31.16C411.108 30.52 410.468 31.08 408.708 33.88C406.628 37.32 405.748 39.48 406.228 39.88C406.388 40.12 406.788 40.28 406.948 40.28C407.188 40.28 408.468 39 409.828 37.48C412.548 34.52 415.588 31.64 415.988 31.64C416.148 31.64 416.548 31.88 416.948 32.28C417.908 33.24 419.108 33.88 421.428 33.72C422.868 33.64 424.548 33.16 425.588 32.68C426.148 32.44 426.548 32.12 426.548 31.88C426.548 31.16 425.828 31.08 423.988 31.72ZM432.761 12.36C432.201 12.36 432.121 12.52 432.201 13.48C432.201 14.04 431.241 16.28 430.041 18.36C429.321 19.64 429.321 19.72 429.801 20.04C430.201 20.28 430.361 20.28 430.841 19.96C431.401 19.56 433.161 16.28 433.641 14.68C434.121 13.4 433.721 12.36 432.761 12.36ZM448.486 31.88C447.286 32.36 444.806 33.16 442.566 34.04C440.326 34.92 438.246 35.72 438.086 35.88C437.526 36.2 437.366 35.96 436.966 34.44C436.566 32.92 436.806 31.96 437.686 31.48C438.406 31 438.406 30.52 437.686 30.2C437.526 30.12 437.366 30.12 437.126 30.12C436.406 30.12 435.606 30.76 435.126 31.8C434.726 32.68 434.806 33 435.206 34.84L435.766 36.84L435.126 37.24C433.766 37.88 431.606 39.48 431.046 40.12C430.246 40.92 430.246 42.28 430.966 42.76C431.766 43.24 433.446 43.16 434.886 42.52C436.486 41.88 437.606 40.36 437.926 38.6L438.086 37.4L442.646 35.56C445.206 34.6 447.926 33.64 449.126 33.16C450.886 32.52 451.366 32.2 451.366 31.8C451.366 31.08 450.726 31.08 448.486 31.88ZM434.246 41.08C433.766 41.4 433.046 41.64 432.646 41.64C432.086 41.64 432.006 41.64 432.246 41.24C432.566 40.76 435.446 38.6 435.766 38.6C436.486 38.6 435.446 40.2 434.246 41.08ZM514.914 31.72C514.594 31 513.714 31.48 511.234 33.4C506.674 36.76 504.434 38.28 502.274 38.92C501.074 39.24 500.914 39.24 500.594 38.92C500.194 38.44 500.194 38.6 501.154 35.08C501.954 32.52 501.954 32.44 501.474 31.8C500.994 31.32 500.834 31.24 499.874 31.32C498.514 31.48 497.234 32.2 494.114 34.36L491.874 35.96L492.034 34.6C492.514 31.8 492.114 30.84 490.354 30.84C488.834 30.84 486.994 31.88 483.474 35C482.594 35.8 481.794 36.44 481.714 36.36C481.714 36.36 482.114 35.32 482.674 34.2C484.114 31.08 484.354 30.36 483.954 30.04C483.794 29.96 483.474 29.88 483.154 29.96C482.194 30.28 479.234 36.84 479.234 38.76C479.154 39.72 479.234 39.8 479.954 39.88C480.514 39.96 480.914 39.64 482.274 38.28C485.794 34.76 489.074 32.2 490.114 32.2C490.434 32.2 490.514 32.52 490.274 33.88C490.034 36.2 490.114 36.92 490.674 37.32C491.474 37.8 492.434 37.4 494.834 35.72C497.554 33.72 499.554 32.6 499.794 32.76C499.954 32.84 499.874 33.4 499.634 33.88C499.474 34.44 499.074 35.72 498.834 36.68C498.354 38.76 498.594 39.64 499.714 40.12C502.114 41.08 505.394 39.72 511.394 35.16C514.994 32.44 515.154 32.28 514.914 31.72ZM518.791 26.76C519.591 25.72 519.511 25.08 518.551 24.92C517.991 24.84 516.471 26.92 516.711 27.4C517.031 28.04 517.991 27.72 518.791 26.76ZM525.591 33.08C520.391 36.44 515.911 38.44 514.151 38.44C512.231 38.44 512.391 37.08 514.711 33.48C515.911 31.64 516.071 31.16 515.751 30.84C515.511 30.6 515.351 30.52 515.111 30.52C514.551 30.6 513.911 31.24 512.791 32.92C511.751 34.44 510.951 36.6 510.951 37.64C510.951 38.28 511.111 38.68 511.831 39.16C512.551 39.72 512.951 39.88 513.991 39.88C515.671 39.88 516.951 39.4 520.311 37.8C522.711 36.6 525.751 34.84 527.911 33.24C528.791 32.6 529.431 32.04 529.431 31.88C529.191 31.08 528.151 31.4 525.591 33.08ZM553.243 31.8C552.923 31.08 552.203 31.4 549.963 33C544.363 37 540.123 39.24 538.603 38.84C538.043 38.68 538.203 37.16 539.003 35.24C539.883 33.08 539.883 31.96 539.163 31.4C537.723 30.36 534.763 31.72 529.483 35.88C527.162 37.64 526.282 38.2 526.442 37.8C526.682 37.08 528.603 33.96 529.643 32.52C530.283 31.56 530.363 31.48 529.883 31.08C529.563 30.84 529.323 30.76 528.923 30.92C527.803 31.56 524.682 36.76 524.362 38.52C524.282 39.16 524.362 39.48 524.682 39.8C525.002 39.96 525.402 40.2 525.722 40.2C526.282 40.2 529.243 38.2 531.403 36.28C533.563 34.44 537.483 32.2 537.883 32.52C537.963 32.6 537.723 33.48 537.323 34.44C536.283 37.16 536.123 38.12 536.683 39C537.643 40.44 539.563 40.6 542.443 39.32C545.323 38.12 549.723 35.16 551.963 33.24C552.843 32.52 553.323 32.04 553.243 31.8ZM575.869 31.4C575.389 31.24 574.349 31.88 569.389 35.56C564.669 39.08 561.789 40.2 561.309 38.6C560.589 36.36 566.189 23.32 570.669 16.52C571.789 14.92 571.869 14.6 571.229 14.12C571.149 14.04 570.989 14.04 570.829 14.04C570.269 13.96 569.629 14.84 567.949 17.4C563.469 24.2 561.229 27.48 559.629 29.56L557.949 31.88L556.989 31.08C555.789 30.12 554.749 30.04 553.389 30.84C551.389 31.88 549.149 35.48 549.149 37.4C549.149 39.32 551.149 39.8 553.469 38.52C554.909 37.72 557.549 35.08 559.949 32.04C561.549 30.04 561.549 30.04 560.349 33.24C559.789 34.76 559.629 35.88 559.549 37.32C559.549 39.16 559.629 39.4 560.189 39.96C560.589 40.28 561.149 40.6 561.469 40.68C563.949 41.08 566.589 39.72 572.829 35C576.109 32.44 576.749 31.64 575.869 31.4ZM554.909 35.16C552.829 37.32 551.229 38.28 550.989 37.72C550.509 36.84 553.309 32.52 554.669 31.96C554.909 31.8 555.149 31.8 555.309 31.72C555.709 31.72 556.029 31.96 556.349 32.6C556.749 33.24 556.749 33.32 554.909 35.16ZM624.394 19.56C619.674 19.48 615.834 19.4 615.834 19.32C615.834 19.32 616.474 18.28 617.194 17.16C618.554 14.92 618.634 14.04 617.514 14.2C617.114 14.2 616.474 15 615.194 17L613.434 19.72H611.834C609.274 19.72 601.674 20.2 599.194 20.44C596.794 20.76 596.234 21.08 596.794 21.72C597.114 22.04 597.434 22.12 599.354 21.88C601.994 21.56 612.154 21.08 612.314 21.16C612.394 21.24 611.754 22.6 610.874 24.12C609.914 25.64 608.314 28.52 607.114 30.52C605.994 32.52 603.674 36.68 601.834 39.72C597.034 48.12 593.914 54.76 594.474 55.64C594.874 56.12 596.074 56.28 596.394 55.8C596.554 55.64 596.634 55 596.634 54.44C596.714 53 598.794 48.52 611.194 27.32C612.074 25.8 613.194 23.8 613.754 22.84C614.634 21.32 614.794 21.16 615.754 21.08C617.674 20.76 631.434 20.84 631.754 21.16C632.314 21.56 633.674 21.32 633.834 20.76C633.994 19.72 633.514 19.64 624.394 19.56ZM638.921 31.72C638.681 31.24 638.201 31.4 637.401 31.88C636.601 32.28 632.041 35.56 630.041 36.68C628.361 37.56 627.721 37.8 626.921 37.72C626.121 37.64 625.881 37.56 625.801 36.44L625.721 34.76C625.641 32.28 625.561 31.8 625.081 31.56C624.761 31.4 624.201 31.24 623.881 31.24C622.841 31.24 619.721 32.92 617.081 34.92C615.721 36.04 614.521 36.84 614.441 36.76C614.281 36.68 616.841 31.96 618.761 29C621.161 25.24 624.281 20.84 627.241 17.08C628.601 15.32 629.401 14.04 629.401 13.88C629.641 13.16 629.161 13 628.361 13.24C626.521 13.8 615.641 29.48 612.761 35.72C611.481 38.6 611.321 39.32 611.721 39.72C611.961 39.96 612.281 40.12 612.601 40.12C612.841 40.12 614.601 38.92 616.441 37.4C619.561 35 622.841 32.84 623.481 32.84C623.641 32.84 623.721 33.8 623.721 34.92C623.721 36.04 623.881 37.32 624.041 37.72C624.601 39.08 626.921 39.56 629.001 38.84C631.081 38.12 635.881 34.92 637.961 33C638.601 32.36 639.001 31.96 638.921 31.72ZM651.498 33C645.978 37.24 642.378 39.08 639.658 39.08C637.578 39 636.617 38.44 636.457 37.16C636.457 36.68 636.537 35.96 636.617 35.64C636.857 35.16 637.018 35.4 638.618 35.24C639.577 35.24 640.538 35 641.418 34.2C643.018 32.84 643.098 31.4 641.738 30.76C641.418 30.6 641.098 30.6 640.778 30.6C638.298 30.6 634.857 33.64 634.537 36.44C634.298 38.44 635.737 39.88 638.378 40.36C641.898 40.92 645.978 39.24 651.898 34.52C653.738 33.08 654.538 32.12 654.618 31.88C654.698 31.4 654.378 30.84 651.498 33ZM638.618 33.08C639.418 32.44 640.378 31.96 640.778 31.96C640.858 31.96 640.858 31.96 640.938 32.04C641.258 32.28 640.618 33.16 639.738 33.56C638.698 34.12 638.698 34.12 638.218 33.8C637.978 33.72 638.058 33.48 638.618 33.08ZM666.723 31.72C665.603 32.2 664.563 32.36 663.443 32.36C661.523 32.36 661.123 31.8 660.483 30.84C659.523 29.24 659.123 29.32 656.163 31.64C653.843 33.56 653.763 33.56 654.403 32.6C654.963 31.64 654.963 31.48 654.563 31.16C653.843 30.52 653.203 31.08 651.442 33.88C649.362 37.32 648.482 39.48 648.962 39.88C649.122 40.12 649.522 40.28 649.682 40.28C649.923 40.28 651.202 39 652.562 37.48C655.283 34.52 658.323 31.64 658.723 31.64C658.883 31.64 659.283 31.88 659.683 32.28C660.643 33.24 661.843 33.88 664.163 33.72C665.603 33.64 667.283 33.16 668.323 32.68C668.883 32.44 669.283 32.12 669.283 31.88C669.283 31.16 668.563 31.08 666.723 31.72ZM684.935 33C679.415 37.24 675.815 39.08 673.095 39.08C671.015 39 670.055 38.44 669.895 37.16C669.895 36.68 669.975 35.96 670.055 35.64C670.295 35.16 670.455 35.4 672.055 35.24C673.015 35.24 673.975 35 674.855 34.2C676.455 32.84 676.535 31.4 675.175 30.76C674.855 30.6 674.535 30.6 674.215 30.6C671.735 30.6 668.295 33.64 667.975 36.44C667.735 38.44 669.175 39.88 671.815 40.36C675.335 40.92 679.415 39.24 685.335 34.52C687.175 33.08 687.975 32.12 688.055 31.88C688.135 31.4 687.815 30.84 684.935 33ZM672.055 33.08C672.855 32.44 673.815 31.96 674.215 31.96C674.295 31.96 674.295 31.96 674.375 32.04C674.695 32.28 674.055 33.16 673.175 33.56C672.135 34.12 672.135 34.12 671.655 33.8C671.415 33.72 671.495 33.48 672.055 33.08ZM735.559 32.2C734.999 32.68 734.199 33.24 733.159 34.04C729.479 37 727.159 38.2 725.399 38.44C724.439 38.52 724.199 38.44 723.959 38.04C723.479 37.32 723.799 35.88 724.839 33.96C725.559 32.68 725.639 32.36 725.399 32.04C724.839 31.56 724.519 31.56 723.639 32.28L722.839 32.92L722.359 32.12C721.879 31.16 721.079 30.68 719.959 30.68C719.079 30.76 718.039 31.08 716.919 31.72C712.999 33.88 710.279 38.76 712.279 39.96C713.719 40.84 716.359 39.88 720.039 37.08L721.959 35.64V36.92C721.959 38.12 722.039 38.36 722.919 39.08C724.519 40.36 726.519 40.12 730.039 38.2C732.039 37.08 734.999 34.76 736.599 33.24C737.159 32.68 737.479 32.28 737.479 32.12C737.479 31.24 737.079 31.16 735.559 32.2ZM719.399 35.64C718.279 36.36 716.679 37.48 715.799 37.96C713.719 39.16 713.239 39.24 713.479 38.2C714.039 35.88 718.359 32.12 720.119 32.2C720.279 32.2 720.439 32.28 720.599 32.36C720.679 32.44 720.919 32.92 721.079 33.4C721.239 34.2 721.239 34.28 719.399 35.64ZM749.457 31.72C748.337 32.2 747.297 32.36 746.177 32.36C744.257 32.36 743.857 31.8 743.217 30.84C742.257 29.24 741.857 29.32 738.897 31.64C736.577 33.56 736.497 33.56 737.137 32.6C737.697 31.64 737.697 31.48 737.297 31.16C736.577 30.52 735.937 31.08 734.177 33.88C732.097 37.32 731.217 39.48 731.697 39.88C731.857 40.12 732.257 40.28 732.417 40.28C732.657 40.28 733.937 39 735.297 37.48C738.017 34.52 741.057 31.64 741.457 31.64C741.617 31.64 742.017 31.88 742.417 32.28C743.377 33.24 744.577 33.88 746.897 33.72C748.337 33.64 750.017 33.16 751.057 32.68C751.617 32.44 752.017 32.12 752.017 31.88C752.017 31.16 751.297 31.08 749.457 31.72ZM767.669 33C762.149 37.24 758.549 39.08 755.829 39.08C753.749 39 752.789 38.44 752.629 37.16C752.629 36.68 752.709 35.96 752.789 35.64C753.029 35.16 753.189 35.4 754.789 35.24C755.749 35.24 756.709 35 757.589 34.2C759.189 32.84 759.269 31.4 757.909 30.76C757.589 30.6 757.269 30.6 756.949 30.6C754.469 30.6 751.029 33.64 750.709 36.44C750.469 38.44 751.909 39.88 754.549 40.36C758.069 40.92 762.149 39.24 768.069 34.52C769.909 33.08 770.709 32.12 770.789 31.88C770.869 31.4 770.549 30.84 767.669 33ZM754.789 33.08C755.589 32.44 756.549 31.96 756.949 31.96C757.029 31.96 757.029 31.96 757.109 32.04C757.429 32.28 756.789 33.16 755.909 33.56C754.869 34.12 754.869 34.12 754.389 33.8C754.149 33.72 754.229 33.48 754.789 33.08ZM834.133 31.72C833.813 31 832.933 31.48 830.453 33.4C825.893 36.76 823.653 38.28 821.493 38.92C820.293 39.24 820.133 39.24 819.813 38.92C819.413 38.44 819.413 38.6 820.373 35.08C821.173 32.52 821.173 32.44 820.693 31.8C820.213 31.32 820.053 31.24 819.093 31.32C817.733 31.48 816.453 32.2 813.333 34.36L811.093 35.96L811.253 34.6C811.733 31.8 811.333 30.84 809.573 30.84C808.053 30.84 806.213 31.88 802.693 35C801.813 35.8 801.013 36.44 800.933 36.36C800.933 36.36 801.333 35.32 801.893 34.2C803.333 31.08 803.573 30.36 803.173 30.04C803.013 29.96 802.693 29.88 802.373 29.96C801.413 30.28 798.453 36.84 798.453 38.76C798.373 39.72 798.453 39.8 799.173 39.88C799.733 39.96 800.133 39.64 801.493 38.28C805.013 34.76 808.293 32.2 809.333 32.2C809.653 32.2 809.733 32.52 809.493 33.88C809.253 36.2 809.333 36.92 809.893 37.32C810.693 37.8 811.653 37.4 814.053 35.72C816.773 33.72 818.773 32.6 819.013 32.76C819.173 32.84 819.093 33.4 818.853 33.88C818.693 34.44 818.293 35.72 818.053 36.68C817.573 38.76 817.813 39.64 818.933 40.12C821.333 41.08 824.613 39.72 830.613 35.16C834.213 32.44 834.373 32.28 834.133 31.72ZM851.653 32.2C851.093 32.68 850.293 33.24 849.253 34.04C845.572 37 843.253 38.2 841.493 38.44C840.533 38.52 840.293 38.44 840.053 38.04C839.573 37.32 839.893 35.88 840.933 33.96C841.653 32.68 841.733 32.36 841.493 32.04C840.933 31.56 840.613 31.56 839.733 32.28L838.933 32.92L838.453 32.12C837.973 31.16 837.173 30.68 836.053 30.68C835.173 30.76 834.133 31.08 833.012 31.72C829.092 33.88 826.372 38.76 828.372 39.96C829.812 40.84 832.452 39.88 836.133 37.08L838.053 35.64V36.92C838.053 38.12 838.133 38.36 839.013 39.08C840.613 40.36 842.613 40.12 846.133 38.2C848.133 37.08 851.093 34.76 852.693 33.24C853.253 32.68 853.573 32.28 853.573 32.12C853.573 31.24 853.173 31.16 851.653 32.2ZM835.493 35.64C834.373 36.36 832.772 37.48 831.892 37.96C829.812 39.16 829.332 39.24 829.572 38.2C830.132 35.88 834.453 32.12 836.213 32.2C836.373 32.2 836.533 32.28 836.693 32.36C836.773 32.44 837.013 32.92 837.173 33.4C837.333 34.2 837.333 34.28 835.493 35.64ZM877.071 31.8C876.751 31.08 876.031 31.4 873.791 33C868.191 37 863.951 39.24 862.431 38.84C861.871 38.68 862.031 37.16 862.831 35.24C863.711 33.08 863.711 31.96 862.991 31.4C861.551 30.36 858.591 31.72 853.311 35.88C850.991 37.64 850.111 38.2 850.271 37.8C850.511 37.08 852.431 33.96 853.471 32.52C854.111 31.56 854.191 31.48 853.711 31.08C853.391 30.84 853.151 30.76 852.751 30.92C851.631 31.56 848.511 36.76 848.191 38.52C848.111 39.16 848.191 39.48 848.511 39.8C848.831 39.96 849.231 40.2 849.551 40.2C850.111 40.2 853.071 38.2 855.231 36.28C857.391 34.44 861.311 32.2 861.711 32.52C861.791 32.6 861.551 33.48 861.151 34.44C860.111 37.16 859.951 38.12 860.511 39C861.471 40.44 863.391 40.6 866.271 39.32C869.151 38.12 873.551 35.16 875.791 33.24C876.671 32.52 877.151 32.04 877.071 31.8ZM897.526 31.72C897.366 30.84 896.166 31.24 891.366 33.96C888.646 35.4 886.886 36.12 886.806 36.12C886.726 36.04 886.886 35.24 887.046 34.36C887.366 32.36 887.206 31.64 886.246 31.08C885.526 30.68 885.446 30.68 884.246 31.24C883.526 31.56 882.326 32.44 881.526 33.24C878.646 35.88 875.766 38.28 875.366 38.28C874.966 38.28 874.966 38.04 875.126 37.16C875.366 35.64 875.766 34.68 876.886 32.84C877.766 31.32 877.846 31.16 877.446 30.84C877.206 30.68 877.046 30.6 876.806 30.6C876.406 30.6 875.846 31.08 875.206 32.12C873.446 34.68 872.726 38.04 873.766 39.16C874.166 39.64 874.406 39.72 875.446 39.64C876.966 39.48 877.526 39.08 881.846 35.08C883.446 33.64 884.886 32.44 884.966 32.44C885.126 32.44 885.286 32.68 885.286 33.08C885.286 33.72 884.246 37.8 884.086 37.88C884.006 37.96 882.726 38.76 881.286 39.64C874.726 43.8 869.286 48.12 868.166 50.04C867.046 51.96 867.526 53.64 869.366 54.04C870.406 54.2 870.566 54.2 871.926 53.88C874.566 53.16 878.486 50.44 880.966 47.4C882.406 45.72 884.726 41.72 885.446 39.88C886.086 38.28 885.686 38.68 892.806 34.76C896.246 32.92 897.606 32.04 897.526 31.72ZM879.046 46.84C877.686 48.52 875.206 50.6 873.206 51.72C871.366 52.76 869.686 53 869.366 52.44C869.046 51.72 869.766 50.36 871.206 48.92C873.366 46.84 882.166 40.52 882.886 40.6C883.046 40.92 880.326 45.24 879.046 46.84ZM34.9513 71.4C34.6313 71.16 34.0713 71.4 32.6313 72.52C28.6313 75.32 26.2313 76.2 22.6313 77L20.6313 77.48L21.7513 76.12C24.3913 72.92 24.3913 70.28 21.6713 70.28C19.5113 70.28 15.8313 73.24 12.1512 77.96C11.2712 79.08 10.4712 80.12 10.3913 80.12C10.3112 80.12 10.7112 79.4 11.2712 78.52C14.5513 73.16 15.9913 70.44 15.9113 70.12C15.8313 69.96 15.5113 69.8 15.1913 69.8H15.1113C14.5513 69.88 13.8313 70.92 11.1112 75.32C7.99125 80.28 1.99125 90.84 1.11125 92.76C0.951249 93.24 0.871249 93.8 0.951249 93.96C1.19125 94.44 1.83125 94.44 2.39125 94.04C2.63125 93.8 4.71125 91 7.03125 87.72C11.9912 80.76 12.1512 80.52 12.6312 80.92C13.3513 81.56 15.4313 81.08 17.5913 79.72C18.0713 79.4 19.0313 79.08 19.7513 79C21.7513 78.76 25.2713 77.8 27.2713 77.08C29.5913 76.12 32.4713 74.6 34.3913 73.08C35.0313 72.52 35.5113 72.12 35.5113 71.88C35.5113 71.72 35.2713 71.48 34.9513 71.4ZM16.7113 77.96C16.3913 77.96 15.5113 78.12 14.8713 78.28L13.6713 78.68L14.0713 78.12C15.3513 76.2 19.3513 72.6 20.9513 71.88C21.6713 71.56 21.9113 71.4 21.9913 71.96C22.3113 73.48 18.0713 77.96 16.7113 77.96ZM51.8369 71.48C51.4369 71 50.6369 71.4 48.5569 72.68C45.0369 74.84 41.6769 75.8 39.1169 75.8H37.8369L38.2369 74.76C38.8769 72.84 38.7169 71.88 37.3569 70.76C37.0369 70.36 36.3969 70.2 35.7569 70.2C35.1169 70.2 34.4769 70.36 33.9969 70.6C33.5969 70.84 33.1169 71.08 32.8769 71.16C32.6369 71.24 31.9169 71.96 31.2769 72.76C28.6369 75.88 28.1569 78.76 29.9969 80.04C31.0369 80.84 31.8369 80.92 33.2769 80.44C34.3169 80.04 36.4769 78.28 36.7969 77.64C36.8769 77.32 37.2769 77.24 38.5569 77.24C41.9169 77.24 45.1169 76.44 49.2769 74.04C51.5169 72.68 52.1569 71.96 51.8369 71.48ZM34.6369 77.64C34.3169 78.04 33.5969 78.6 33.0369 78.84C31.8369 79.48 31.2769 79.48 30.8769 78.76C30.4769 78.04 30.7169 77 31.5969 75.48L32.2369 74.36L32.8769 75.16C33.1969 75.64 33.9969 76.12 34.5569 76.52L35.2769 76.92L34.6369 77.64ZM36.5569 74.04C36.3969 74.68 36.1569 75.32 36.0769 75.4C35.9169 75.56 35.4369 75.32 34.9569 75C34.2369 74.52 34.0769 74.2 34.0769 73.64C34.0769 72.68 34.8769 71.72 35.6769 71.64C35.7569 71.64 35.8369 71.64 35.8369 71.64C36.6369 71.72 36.8769 72.6 36.5569 74.04ZM54.87 75.56L52.79 76.76L51.67 75.72C51.03 75.16 50.55 74.6 50.55 74.36C50.55 74.04 52.39 72.6 52.79 72.6C52.87 72.6 53.19 72.76 53.35 73C53.83 73.64 54.39 73.64 55.11 72.92C55.83 72.12 55.83 71.8 55.27 71.32C53.59 69.96 48.55 72.44 48.55 74.6C48.55 74.76 49.11 75.4 49.83 76.04C50.55 76.68 51.11 77.32 51.11 77.4C51.11 77.56 50.63 77.96 50.07 78.28C49.43 78.6 48.55 79.24 47.99 79.72C46.79 80.76 47.03 81.32 48.71 81.4C50.39 81.48 51.67 80.84 52.63 79.4C53.19 78.36 53.75 77.96 55.67 76.84C58.15 75.48 63.03 73 63.27 73C63.35 73 63.43 73.24 63.43 73.56C63.43 73.8 63.67 74.76 64.07 75.64C64.39 76.52 64.63 77.24 64.55 77.32C64.47 77.4 63.19 78.12 61.67 79.08C58.71 80.84 57.83 81.64 57.51 82.6C57.35 83.16 57.99 83.96 58.95 84.28C59.83 84.6 61.91 84.28 63.43 83.64C65.91 82.6 67.35 80.76 67.03 78.76L66.95 77.72L68.23 77C71.27 75.48 74.95 74.04 78.63 72.92C80.15 72.44 80.31 72.28 80.07 71.88C79.91 71.72 79.59 71.56 79.35 71.48C79.11 71.48 77.99 71.64 76.55 72.04C74.39 72.68 70.71 74.2 67.99 75.48C65.99 76.52 66.07 76.28 65.59 74.92C65.11 73.56 65.11 73.48 65.59 72.68C65.83 72.2 66.31 71.72 66.63 71.56C67.27 71.24 67.27 70.36 66.63 70.12C65.75 70.2 59.03 73.32 54.87 75.56ZM64.31 81.24C64.07 81.56 63.11 82.12 62.31 82.44C60.63 83.16 59.43 83.32 59.43 82.76C59.43 82.28 64.39 78.92 65.03 78.92C65.51 78.92 65.03 80.44 64.31 81.24ZM84.1038 66.76C84.9038 65.72 84.8238 65.08 83.8638 64.92C83.3038 64.84 81.7838 66.92 82.0238 67.4C82.3438 68.04 83.3038 67.72 84.1038 66.76ZM90.9038 73.08C85.7038 76.44 81.2238 78.44 79.4638 78.44C77.5437 78.44 77.7037 77.08 80.0238 73.48C81.2238 71.64 81.3838 71.16 81.0638 70.84C80.8238 70.6 80.6638 70.52 80.4238 70.52C79.8638 70.6 79.2238 71.24 78.1037 72.92C77.0637 74.44 76.2637 76.6 76.2637 77.64C76.2637 78.28 76.4237 78.68 77.1437 79.16C77.8637 79.72 78.2637 79.88 79.3038 79.88C80.9837 79.88 82.2638 79.4 85.6238 77.8C88.0238 76.6 91.0638 74.84 93.2238 73.24C94.1038 72.6 94.7438 72.04 94.7438 71.88C94.5038 71.08 93.4638 71.4 90.9038 73.08ZM116.14 71.88C115.98 70.92 115.1 71.4 113.1 73C111.18 74.52 109.26 75 107.26 75.72C106.22 76.12 103.1 76.68 102.94 76.52C102.86 76.44 103.18 75.8 103.66 75C104.78 73.24 104.86 71.88 103.82 71.08C102.14 69.72 99.1 70.92 94.78 74.6L92.22 76.68L93.26 74.84C96.62 68.44 99.66 63.4 103.5 57.96C104.78 56.2 105.66 54.68 105.66 54.44C105.5 53.88 104.46 53.8 103.9 54.28C103.18 55 98.14 62.28 96.14 65.56C93.74 69.56 90.78 75.16 89.58 78.12C88.54 80.6 88.38 81.32 88.78 81.56C89.34 82.04 90.14 81.56 92.22 79.32C96.14 75.16 100.46 71.96 102.06 71.96C103.18 71.96 102.54 73.88 100.78 75.72C100.14 76.44 99.74 76.6 98.54 76.68C96.7 76.92 95.26 77.4 94.38 78.04C91.98 79.88 96.38 80.6 99.5 78.92C100.7 78.2 101.34 78.04 103.02 77.88C107.82 77.48 110.22 77 114.46 73.72C115.74 72.76 116.22 72.28 116.14 71.88ZM119.651 66.76C120.451 65.72 120.371 65.08 119.411 64.92C118.851 64.84 117.331 66.92 117.571 67.4C117.891 68.04 118.851 67.72 119.651 66.76ZM126.451 73.08C121.251 76.44 116.771 78.44 115.011 78.44C113.091 78.44 113.251 77.08 115.571 73.48C116.771 71.64 116.931 71.16 116.611 70.84C116.371 70.6 116.211 70.52 115.971 70.52C115.411 70.6 114.771 71.24 113.651 72.92C112.611 74.44 111.811 76.6 111.811 77.64C111.811 78.28 111.971 78.68 112.691 79.16C113.411 79.72 113.811 79.88 114.851 79.88C116.531 79.88 117.811 79.4 121.171 77.8C123.571 76.6 126.611 74.84 128.771 73.24C129.651 72.6 130.291 72.04 130.291 71.88C130.051 71.08 129.011 71.4 126.451 73.08ZM146.902 71.4C146.662 71.4 144.582 73 143.382 73.88C141.542 75.16 138.822 77.16 137.942 77.72C134.342 79.96 131.222 80.68 130.022 79.64C129.142 78.84 129.302 76.36 130.342 73.48C131.062 71.24 131.142 71.16 132.182 70.84C132.742 70.6 134.022 69.96 135.062 69.4C144.342 64.04 150.662 55.4 146.982 53.16C146.582 52.92 146.422 52.76 146.102 52.76C145.862 52.76 145.542 52.84 144.902 53.08C141.302 54.2 135.542 59.96 131.782 66.2C128.102 72.28 126.662 76.84 127.622 79.16C128.022 80.12 128.902 81 129.782 81.32C131.702 81.96 134.742 81.24 138.502 79.16C140.422 78.04 144.182 75.16 146.262 73.32C146.982 72.6 147.462 72.12 147.462 71.96C147.382 71.72 147.142 71.4 146.902 71.4ZM134.422 65.4C137.382 60.92 142.662 55.64 145.222 54.52C145.702 54.36 145.862 54.28 146.022 54.28C146.182 54.28 146.262 54.36 146.342 54.6C146.662 55.64 145.062 58.76 142.982 61.16C141.142 63.16 137.942 65.8 135.222 67.48C133.862 68.36 132.582 69.08 132.422 69.08C132.182 69.08 133.062 67.48 134.422 65.4ZM151.448 66.76C152.248 65.72 152.168 65.08 151.208 64.92C150.648 64.84 149.128 66.92 149.368 67.4C149.688 68.04 150.648 67.72 151.448 66.76ZM158.248 73.08C153.048 76.44 148.568 78.44 146.808 78.44C144.887 78.44 145.047 77.08 147.368 73.48C148.568 71.64 148.728 71.16 148.408 70.84C148.168 70.6 148.008 70.52 147.768 70.52C147.208 70.6 146.568 71.24 145.447 72.92C144.407 74.44 143.607 76.6 143.607 77.64C143.607 78.28 143.767 78.68 144.487 79.16C145.207 79.72 145.607 79.88 146.648 79.88C148.327 79.88 149.608 79.4 152.968 77.8C155.368 76.6 158.408 74.84 160.568 73.24C161.448 72.6 162.088 72.04 162.088 71.88C161.848 71.08 160.808 71.4 158.248 73.08ZM178.379 59.56C173.659 59.48 169.819 59.4 169.819 59.32C169.819 59.32 170.459 58.28 171.179 57.16C172.539 54.92 172.619 54.04 171.499 54.2C171.099 54.2 170.459 55 169.179 57L167.419 59.72H165.819C163.259 59.72 155.659 60.2 153.179 60.44C150.779 60.76 150.219 61.08 150.779 61.72C151.099 62.04 151.419 62.12 153.339 61.88C155.979 61.56 166.139 61.08 166.299 61.16C166.379 61.24 165.739 62.6 164.859 64.12C163.899 65.64 162.299 68.52 161.099 70.52C159.979 72.52 157.659 76.68 155.819 79.72C151.019 88.12 147.899 94.76 148.459 95.64C148.859 96.12 150.059 96.28 150.379 95.8C150.539 95.64 150.619 95 150.619 94.44C150.699 93 152.779 88.52 165.179 67.32C166.059 65.8 167.179 63.8 167.739 62.84C168.619 61.32 168.779 61.16 169.739 61.08C171.659 60.76 185.419 60.84 185.739 61.16C186.299 61.56 187.659 61.32 187.819 60.76C187.979 59.72 187.499 59.64 178.379 59.56ZM174.963 66.76C175.763 65.72 175.683 65.08 174.723 64.92C174.163 64.84 172.643 66.92 172.883 67.4C173.203 68.04 174.163 67.72 174.963 66.76ZM181.763 73.08C176.563 76.44 172.083 78.44 170.323 78.44C168.403 78.44 168.563 77.08 170.883 73.48C172.083 71.64 172.243 71.16 171.923 70.84C171.683 70.6 171.523 70.52 171.283 70.52C170.723 70.6 170.083 71.24 168.963 72.92C167.923 74.44 167.123 76.6 167.123 77.64C167.123 78.28 167.283 78.68 168.003 79.16C168.723 79.72 169.123 79.88 170.163 79.88C171.843 79.88 173.123 79.4 176.483 77.8C178.883 76.6 181.923 74.84 184.083 73.24C184.963 72.6 185.603 72.04 185.603 71.88C185.363 71.08 184.323 71.4 181.763 73.08ZM198.294 73C192.774 77.24 189.174 79.08 186.454 79.08C184.374 79 183.414 78.44 183.254 77.16C183.254 76.68 183.334 75.96 183.414 75.64C183.654 75.16 183.814 75.4 185.414 75.24C186.374 75.24 187.334 75 188.214 74.2C189.814 72.84 189.894 71.4 188.534 70.76C188.214 70.6 187.894 70.6 187.574 70.6C185.094 70.6 181.654 73.64 181.334 76.44C181.094 78.44 182.534 79.88 185.174 80.36C188.694 80.92 192.774 79.24 198.694 74.52C200.534 73.08 201.334 72.12 201.414 71.88C201.494 71.4 201.174 70.84 198.294 73ZM185.414 73.08C186.214 72.44 187.174 71.96 187.574 71.96C187.654 71.96 187.654 71.96 187.734 72.04C188.054 72.28 187.414 73.16 186.534 73.56C185.494 74.12 185.494 74.12 185.014 73.8C184.774 73.72 184.854 73.48 185.414 73.08ZM212.861 71.88C211.661 72.36 209.181 73.16 206.941 74.04C204.701 74.92 202.621 75.72 202.461 75.88C201.901 76.2 201.741 75.96 201.341 74.44C200.941 72.92 201.181 71.96 202.061 71.48C202.781 71 202.781 70.52 202.061 70.2C201.901 70.12 201.741 70.12 201.501 70.12C200.781 70.12 199.981 70.76 199.501 71.8C199.101 72.68 199.181 73 199.581 74.84L200.141 76.84L199.501 77.24C198.141 77.88 195.981 79.48 195.421 80.12C194.621 80.92 194.621 82.28 195.341 82.76C196.141 83.24 197.821 83.16 199.261 82.52C200.861 81.88 201.981 80.36 202.301 78.6L202.461 77.4L207.021 75.56C209.581 74.6 212.301 73.64 213.501 73.16C215.261 72.52 215.741 72.2 215.741 71.8C215.741 71.08 215.101 71.08 212.861 71.88ZM198.621 81.08C198.141 81.4 197.421 81.64 197.021 81.64C196.461 81.64 196.381 81.64 196.621 81.24C196.941 80.76 199.821 78.6 200.141 78.6C200.861 78.6 199.821 80.2 198.621 81.08ZM217.811 79.72C217.091 79.72 216.691 80.28 217.091 80.92C217.331 81.24 217.251 81.56 216.531 82.2C215.731 82.92 215.491 83.48 215.891 83.8C216.371 84.2 217.091 83.88 218.211 82.68C219.571 81.32 219.331 79.72 217.811 79.72ZM275.359 71.88C275.199 70.92 274.319 71.4 272.319 73C270.399 74.52 268.479 75 266.479 75.72C265.439 76.12 262.319 76.68 262.159 76.52C262.079 76.44 262.399 75.8 262.879 75C263.999 73.24 264.079 71.88 263.039 71.08C261.359 69.72 258.319 70.92 253.999 74.6L251.439 76.68L252.479 74.84C255.839 68.44 258.879 63.4 262.719 57.96C263.999 56.2 264.879 54.68 264.879 54.44C264.719 53.88 263.679 53.8 263.119 54.28C262.399 55 257.359 62.28 255.359 65.56C252.959 69.56 249.999 75.16 248.799 78.12C247.759 80.6 247.599 81.32 247.999 81.56C248.559 82.04 249.359 81.56 251.439 79.32C255.359 75.16 259.679 71.96 261.279 71.96C262.399 71.96 261.759 73.88 259.999 75.72C259.359 76.44 258.959 76.6 257.759 76.68C255.919 76.92 254.479 77.4 253.599 78.04C251.199 79.88 255.599 80.6 258.719 78.92C259.919 78.2 260.559 78.04 262.239 77.88C267.039 77.48 269.439 77 273.679 73.72C274.959 72.76 275.439 72.28 275.359 71.88ZM296.843 71.72C296.603 71.24 295.883 71.4 295.323 71.8C294.843 72.12 294.203 72.52 293.563 72.92C286.523 77.72 282.283 79.4 282.283 77.32C282.283 77 282.603 75.72 283.083 74.52C283.643 73.24 283.963 72.12 283.803 71.96C283.403 71 282.763 71.32 279.883 73.64C276.603 76.2 274.283 77.96 273.883 77.96C273.563 77.96 273.643 76.68 274.123 75.56C274.363 75 275.003 73.8 275.563 72.84C276.523 71.24 276.603 71.08 276.203 70.76C275.403 70.12 274.843 70.52 273.483 72.84C271.883 75.56 271.403 77.64 272.043 78.52C273.243 79.96 275.083 79.4 278.603 76.68L280.763 74.92L280.603 76.52C280.443 77.96 281.083 79.48 283.403 79.56C285.323 79.64 289.323 77.64 293.643 74.76C296.763 72.6 297.083 72.28 296.843 71.72ZM313.848 59.56C309.128 59.48 305.288 59.4 305.288 59.32C305.288 59.32 305.928 58.28 306.648 57.16C308.008 54.92 308.088 54.04 306.968 54.2C306.568 54.2 305.928 55 304.648 57L302.888 59.72H301.288C298.728 59.72 291.127 60.2 288.647 60.44C286.247 60.76 285.688 61.08 286.247 61.72C286.567 62.04 286.887 62.12 288.807 61.88C291.447 61.56 301.608 61.08 301.768 61.16C301.848 61.24 301.208 62.6 300.328 64.12C299.368 65.64 297.768 68.52 296.568 70.52C295.447 72.52 293.127 76.68 291.287 79.72C286.487 88.12 283.367 94.76 283.928 95.64C284.327 96.12 285.527 96.28 285.847 95.8C286.007 95.64 286.087 95 286.087 94.44C286.167 93 288.247 88.52 300.648 67.32C301.528 65.8 302.648 63.8 303.208 62.84C304.088 61.32 304.248 61.16 305.208 61.08C307.128 60.76 320.888 60.84 321.208 61.16C321.768 61.56 323.128 61.32 323.288 60.76C323.448 59.72 322.968 59.64 313.848 59.56ZM343.948 66.76C344.748 65.72 344.668 65.08 343.708 64.92C343.148 64.84 341.628 66.92 341.868 67.4C342.188 68.04 343.148 67.72 343.948 66.76ZM350.748 73.08C345.548 76.44 341.068 78.44 339.308 78.44C337.387 78.44 337.547 77.08 339.868 73.48C341.068 71.64 341.228 71.16 340.908 70.84C340.668 70.6 340.508 70.52 340.268 70.52C339.708 70.6 339.068 71.24 337.947 72.92C336.907 74.44 336.107 76.6 336.107 77.64C336.107 78.28 336.267 78.68 336.987 79.16C337.707 79.72 338.107 79.88 339.148 79.88C340.827 79.88 342.108 79.4 345.468 77.8C347.868 76.6 350.908 74.84 353.068 73.24C353.948 72.6 354.588 72.04 354.588 71.88C354.348 71.08 353.308 71.4 350.748 73.08ZM378.399 71.8C378.079 71.08 377.359 71.4 375.119 73C369.519 77 365.279 79.24 363.759 78.84C363.199 78.68 363.359 77.16 364.159 75.24C365.039 73.08 365.039 71.96 364.319 71.4C362.879 70.36 359.919 71.72 354.639 75.88C352.319 77.64 351.439 78.2 351.599 77.8C351.839 77.08 353.759 73.96 354.799 72.52C355.439 71.56 355.519 71.48 355.039 71.08C354.719 70.84 354.479 70.76 354.079 70.92C352.959 71.56 349.839 76.76 349.519 78.52C349.439 79.16 349.519 79.48 349.839 79.8C350.159 79.96 350.559 80.2 350.879 80.2C351.439 80.2 354.399 78.2 356.559 76.28C358.719 74.44 362.639 72.2 363.039 72.52C363.119 72.6 362.879 73.48 362.479 74.44C361.439 77.16 361.279 78.12 361.839 79C362.799 80.44 364.719 80.6 367.599 79.32C370.479 78.12 374.879 75.16 377.119 73.24C377.999 72.52 378.479 72.04 378.399 71.8ZM426.973 59.56C422.253 59.48 418.413 59.4 418.413 59.32C418.413 59.32 419.053 58.28 419.773 57.16C421.133 54.92 421.213 54.04 420.093 54.2C419.693 54.2 419.053 55 417.773 57L416.013 59.72H414.413C411.853 59.72 404.252 60.2 401.772 60.44C399.372 60.76 398.812 61.08 399.372 61.72C399.692 62.04 400.012 62.12 401.932 61.88C404.572 61.56 414.733 61.08 414.893 61.16C414.973 61.24 414.333 62.6 413.453 64.12C412.493 65.64 410.893 68.52 409.693 70.52C408.572 72.52 406.252 76.68 404.412 79.72C399.612 88.12 396.492 94.76 397.053 95.64C397.452 96.12 398.652 96.28 398.972 95.8C399.132 95.64 399.212 95 399.212 94.44C399.292 93 401.372 88.52 413.773 67.32C414.653 65.8 415.773 63.8 416.333 62.84C417.213 61.32 417.373 61.16 418.333 61.08C420.253 60.76 434.013 60.84 434.333 61.16C434.893 61.56 436.253 61.32 436.413 60.76C436.573 59.72 436.093 59.64 426.973 59.56ZM441.499 71.72C441.259 71.24 440.779 71.4 439.979 71.88C439.179 72.28 434.619 75.56 432.619 76.68C430.939 77.56 430.299 77.8 429.499 77.72C428.699 77.64 428.459 77.56 428.379 76.44L428.299 74.76C428.219 72.28 428.139 71.8 427.659 71.56C427.339 71.4 426.779 71.24 426.459 71.24C425.419 71.24 422.299 72.92 419.659 74.92C418.299 76.04 417.099 76.84 417.019 76.76C416.859 76.68 419.419 71.96 421.339 69C423.739 65.24 426.859 60.84 429.819 57.08C431.179 55.32 431.979 54.04 431.979 53.88C432.219 53.16 431.739 53 430.939 53.24C429.099 53.8 418.219 69.48 415.339 75.72C414.059 78.6 413.899 79.32 414.299 79.72C414.539 79.96 414.859 80.12 415.179 80.12C415.419 80.12 417.179 78.92 419.019 77.4C422.139 75 425.419 72.84 426.059 72.84C426.219 72.84 426.299 73.8 426.299 74.92C426.299 76.04 426.459 77.32 426.619 77.72C427.179 79.08 429.499 79.56 431.579 78.84C433.659 78.12 438.459 74.92 440.539 73C441.179 72.36 441.579 71.96 441.499 71.72ZM454.076 73C448.556 77.24 444.956 79.08 442.236 79.08C440.156 79 439.196 78.44 439.036 77.16C439.036 76.68 439.116 75.96 439.196 75.64C439.436 75.16 439.596 75.4 441.196 75.24C442.156 75.24 443.116 75 443.996 74.2C445.596 72.84 445.676 71.4 444.316 70.76C443.996 70.6 443.676 70.6 443.356 70.6C440.876 70.6 437.436 73.64 437.116 76.44C436.876 78.44 438.316 79.88 440.956 80.36C444.476 80.92 448.556 79.24 454.476 74.52C456.316 73.08 457.116 72.12 457.196 71.88C457.276 71.4 456.956 70.84 454.076 73ZM441.196 73.08C441.996 72.44 442.956 71.96 443.356 71.96C443.436 71.96 443.436 71.96 443.516 72.04C443.836 72.28 443.196 73.16 442.316 73.56C441.276 74.12 441.276 74.12 440.796 73.8C440.556 73.72 440.636 73.48 441.196 73.08ZM501.419 73C495.899 77.24 492.299 79.08 489.579 79.08C487.499 79 486.539 78.44 486.379 77.16C486.379 76.68 486.459 75.96 486.539 75.64C486.779 75.16 486.939 75.4 488.539 75.24C489.499 75.24 490.459 75 491.339 74.2C492.939 72.84 493.019 71.4 491.659 70.76C491.339 70.6 491.019 70.6 490.699 70.6C488.219 70.6 484.779 73.64 484.459 76.44C484.219 78.44 485.659 79.88 488.299 80.36C491.819 80.92 495.899 79.24 501.819 74.52C503.659 73.08 504.459 72.12 504.539 71.88C504.619 71.4 504.299 70.84 501.419 73ZM488.539 73.08C489.339 72.44 490.299 71.96 490.699 71.96C490.779 71.96 490.779 71.96 490.859 72.04C491.179 72.28 490.539 73.16 489.659 73.56C488.619 74.12 488.619 74.12 488.139 73.8C487.899 73.72 487.979 73.48 488.539 73.08ZM524.281 71.24C523.881 71 523.241 71.4 519.961 73.96C518.441 75.24 515.161 77.96 511.561 77.96C510.041 77.96 508.601 77.08 507.801 76.2L507.241 75.64C507.081 75.48 507.001 75.48 507.241 75.32L509.721 73.24C512.361 71.08 512.841 70.28 511.561 70.12C511.161 70.12 510.281 70.68 508.761 71.96C506.521 73.8 506.201 73.96 506.041 73.56C506.041 73.4 505.721 72.6 505.401 71.64C504.921 70.28 504.761 70.04 504.201 70.12C503.641 70.2 503.561 70.36 503.641 71.24C503.721 71.8 503.961 72.92 504.281 73.64C504.921 75.16 504.841 75.48 503.721 76.28C502.281 77.32 500.361 79.48 500.521 79.8C500.921 80.68 502.201 79.96 504.921 77.24L505.481 76.68C505.641 76.52 505.721 76.52 506.041 76.76L507.081 77.64C509.001 79 511.241 79.64 513.081 79.24C516.441 78.52 519.721 76.28 522.441 73.96C522.921 73.4 523.481 73 523.881 72.68C524.281 72.28 524.761 71.56 524.281 71.24ZM544.951 71.4C544.631 71.16 544.071 71.4 542.631 72.52C538.631 75.32 536.231 76.2 532.631 77L530.631 77.48L531.751 76.12C534.391 72.92 534.391 70.28 531.671 70.28C529.511 70.28 525.831 73.24 522.151 77.96C521.271 79.08 520.471 80.12 520.391 80.12C520.311 80.12 520.711 79.4 521.271 78.52C524.551 73.16 525.991 70.44 525.911 70.12C525.831 69.96 525.511 69.8 525.191 69.8H525.111C524.551 69.88 523.831 70.92 521.111 75.32C517.991 80.28 511.991 90.84 511.111 92.76C510.951 93.24 510.871 93.8 510.951 93.96C511.191 94.44 511.831 94.44 512.391 94.04C512.631 93.8 514.711 91 517.031 87.72C521.991 80.76 522.151 80.52 522.631 80.92C523.351 81.56 525.431 81.08 527.591 79.72C528.071 79.4 529.031 79.08 529.751 79C531.751 78.76 535.271 77.8 537.271 77.08C539.591 76.12 542.471 74.6 544.391 73.08C545.031 72.52 545.511 72.12 545.511 71.88C545.511 71.72 545.271 71.48 544.951 71.4ZM526.711 77.96C526.391 77.96 525.511 78.12 524.871 78.28L523.671 78.68L524.071 78.12C525.351 76.2 529.351 72.6 530.951 71.88C531.671 71.56 531.911 71.4 531.991 71.96C532.311 73.48 528.071 77.96 526.711 77.96ZM557.357 73C551.837 77.24 548.237 79.08 545.517 79.08C543.437 79 542.477 78.44 542.317 77.16C542.317 76.68 542.397 75.96 542.477 75.64C542.717 75.16 542.877 75.4 544.477 75.24C545.437 75.24 546.397 75 547.277 74.2C548.877 72.84 548.957 71.4 547.597 70.76C547.277 70.6 546.957 70.6 546.637 70.6C544.157 70.6 540.717 73.64 540.397 76.44C540.157 78.44 541.597 79.88 544.237 80.36C547.757 80.92 551.837 79.24 557.757 74.52C559.597 73.08 560.397 72.12 560.477 71.88C560.557 71.4 560.237 70.84 557.357 73ZM544.477 73.08C545.277 72.44 546.237 71.96 546.637 71.96C546.717 71.96 546.717 71.96 546.797 72.04C547.117 72.28 546.477 73.16 545.597 73.56C544.557 74.12 544.557 74.12 544.077 73.8C543.837 73.72 543.917 73.48 544.477 73.08ZM572.582 71.72C571.462 72.2 570.422 72.36 569.302 72.36C567.382 72.36 566.982 71.8 566.342 70.84C565.382 69.24 564.982 69.32 562.022 71.64C559.702 73.56 559.622 73.56 560.262 72.6C560.822 71.64 560.822 71.48 560.422 71.16C559.702 70.52 559.062 71.08 557.302 73.88C555.222 77.32 554.342 79.48 554.822 79.88C554.982 80.12 555.382 80.28 555.542 80.28C555.782 80.28 557.062 79 558.422 77.48C561.142 74.52 564.182 71.64 564.582 71.64C564.742 71.64 565.142 71.88 565.542 72.28C566.502 73.24 567.702 73.88 570.022 73.72C571.462 73.64 573.142 73.16 574.182 72.68C574.742 72.44 575.142 72.12 575.142 71.88C575.142 71.16 574.422 71.08 572.582 71.72ZM594.394 59.56C589.674 59.48 585.834 59.4 585.834 59.32C585.834 59.32 586.474 58.28 587.194 57.16C588.554 54.92 588.634 54.04 587.514 54.2C587.114 54.2 586.474 55 585.194 57L583.434 59.72H581.834C579.274 59.72 571.674 60.2 569.194 60.44C566.794 60.76 566.234 61.08 566.794 61.72C567.114 62.04 567.434 62.12 569.354 61.88C571.994 61.56 582.154 61.08 582.314 61.16C582.394 61.24 581.754 62.6 580.874 64.12C579.914 65.64 578.314 68.52 577.114 70.52C575.994 72.52 573.674 76.68 571.834 79.72C567.034 88.12 563.914 94.76 564.474 95.64C564.874 96.12 566.074 96.28 566.394 95.8C566.554 95.64 566.634 95 566.634 94.44C566.714 93 568.794 88.52 581.194 67.32C582.074 65.8 583.194 63.8 583.754 62.84C584.634 61.32 584.794 61.16 585.754 61.08C587.674 60.76 601.434 60.84 601.754 61.16C602.314 61.56 603.674 61.32 603.834 60.76C603.994 59.72 603.514 59.64 594.394 59.56ZM592.136 52.36C591.576 52.36 591.496 52.52 591.576 53.48C591.576 54.04 590.616 56.28 589.416 58.36C588.696 59.64 588.696 59.72 589.176 60.04C589.576 60.28 589.736 60.28 590.216 59.96C590.776 59.56 592.536 56.28 593.016 54.68C593.496 53.4 593.096 52.36 592.136 52.36ZM607.861 71.88C606.661 72.36 604.181 73.16 601.941 74.04C599.701 74.92 597.621 75.72 597.461 75.88C596.901 76.2 596.741 75.96 596.341 74.44C595.941 72.92 596.181 71.96 597.061 71.48C597.781 71 597.781 70.52 597.061 70.2C596.901 70.12 596.741 70.12 596.501 70.12C595.781 70.12 594.981 70.76 594.501 71.8C594.101 72.68 594.181 73 594.581 74.84L595.141 76.84L594.501 77.24C593.141 77.88 590.981 79.48 590.421 80.12C589.621 80.92 589.621 82.28 590.341 82.76C591.141 83.24 592.821 83.16 594.261 82.52C595.861 81.88 596.981 80.36 597.301 78.6L597.461 77.4L602.021 75.56C604.581 74.6 607.301 73.64 608.501 73.16C610.261 72.52 610.741 72.2 610.741 71.8C610.741 71.08 610.101 71.08 607.861 71.88ZM593.621 81.08C593.141 81.4 592.421 81.64 592.021 81.64C591.461 81.64 591.381 81.64 591.621 81.24C591.941 80.76 594.821 78.6 595.141 78.6C595.861 78.6 594.821 80.2 593.621 81.08ZM658.769 59.56C654.049 59.48 650.209 59.4 650.209 59.32C650.209 59.32 650.849 58.28 651.569 57.16C652.929 54.92 653.009 54.04 651.889 54.2C651.489 54.2 650.849 55 649.569 57L647.809 59.72H646.209C643.649 59.72 636.049 60.2 633.569 60.44C631.169 60.76 630.609 61.08 631.169 61.72C631.489 62.04 631.809 62.12 633.729 61.88C636.369 61.56 646.529 61.08 646.689 61.16C646.769 61.24 646.129 62.6 645.249 64.12C644.289 65.64 642.689 68.52 641.489 70.52C640.369 72.52 638.049 76.68 636.209 79.72C631.409 88.12 628.289 94.76 628.849 95.64C629.249 96.12 630.449 96.28 630.769 95.8C630.929 95.64 631.009 95 631.009 94.44C631.089 93 633.169 88.52 645.569 67.32C646.449 65.8 647.569 63.8 648.129 62.84C649.009 61.32 649.169 61.16 650.129 61.08C652.049 60.76 665.809 60.84 666.129 61.16C666.689 61.56 668.049 61.32 668.209 60.76C668.369 59.72 667.889 59.64 658.769 59.56ZM673.296 71.72C673.056 71.24 672.576 71.4 671.776 71.88C670.976 72.28 666.416 75.56 664.416 76.68C662.736 77.56 662.096 77.8 661.296 77.72C660.496 77.64 660.256 77.56 660.176 76.44L660.096 74.76C660.016 72.28 659.936 71.8 659.456 71.56C659.136 71.4 658.576 71.24 658.256 71.24C657.216 71.24 654.096 72.92 651.456 74.92C650.096 76.04 648.896 76.84 648.816 76.76C648.656 76.68 651.216 71.96 653.136 69C655.536 65.24 658.656 60.84 661.616 57.08C662.976 55.32 663.776 54.04 663.776 53.88C664.016 53.16 663.536 53 662.736 53.24C660.896 53.8 650.016 69.48 647.136 75.72C645.856 78.6 645.696 79.32 646.096 79.72C646.336 79.96 646.656 80.12 646.976 80.12C647.216 80.12 648.976 78.92 650.816 77.4C653.936 75 657.216 72.84 657.856 72.84C658.016 72.84 658.096 73.8 658.096 74.92C658.096 76.04 658.256 77.32 658.416 77.72C658.976 79.08 661.296 79.56 663.376 78.84C665.456 78.12 670.256 74.92 672.336 73C672.976 72.36 673.376 71.96 673.296 71.72ZM685.873 73C680.353 77.24 676.753 79.08 674.033 79.08C671.953 79 670.992 78.44 670.832 77.16C670.832 76.68 670.912 75.96 670.992 75.64C671.232 75.16 671.393 75.4 672.993 75.24C673.952 75.24 674.913 75 675.793 74.2C677.393 72.84 677.473 71.4 676.113 70.76C675.793 70.6 675.473 70.6 675.153 70.6C672.673 70.6 669.232 73.64 668.912 76.44C668.673 78.44 670.112 79.88 672.753 80.36C676.273 80.92 680.353 79.24 686.273 74.52C688.113 73.08 688.913 72.12 688.993 71.88C689.073 71.4 688.753 70.84 685.873 73ZM672.993 73.08C673.793 72.44 674.753 71.96 675.153 71.96C675.233 71.96 675.233 71.96 675.313 72.04C675.633 72.28 674.993 73.16 674.113 73.56C673.073 74.12 673.073 74.12 672.593 73.8C672.353 73.72 672.433 73.48 672.993 73.08ZM701.098 71.72C699.978 72.2 698.938 72.36 697.818 72.36C695.898 72.36 695.498 71.8 694.858 70.84C693.898 69.24 693.498 69.32 690.538 71.64C688.218 73.56 688.138 73.56 688.778 72.6C689.338 71.64 689.338 71.48 688.938 71.16C688.218 70.52 687.578 71.08 685.817 73.88C683.737 77.32 682.857 79.48 683.337 79.88C683.497 80.12 683.897 80.28 684.057 80.28C684.298 80.28 685.577 79 686.938 77.48C689.658 74.52 692.698 71.64 693.098 71.64C693.258 71.64 693.658 71.88 694.058 72.28C695.018 73.24 696.218 73.88 698.538 73.72C699.978 73.64 701.658 73.16 702.698 72.68C703.258 72.44 703.658 72.12 703.658 71.88C703.658 71.16 702.938 71.08 701.098 71.72ZM719.31 73C713.79 77.24 710.19 79.08 707.47 79.08C705.39 79 704.43 78.44 704.27 77.16C704.27 76.68 704.35 75.96 704.43 75.64C704.67 75.16 704.83 75.4 706.43 75.24C707.39 75.24 708.35 75 709.23 74.2C710.83 72.84 710.91 71.4 709.55 70.76C709.23 70.6 708.91 70.6 708.59 70.6C706.11 70.6 702.67 73.64 702.35 76.44C702.11 78.44 703.55 79.88 706.19 80.36C709.71 80.92 713.79 79.24 719.71 74.52C721.55 73.08 722.35 72.12 722.43 71.88C722.51 71.4 722.19 70.84 719.31 73ZM706.43 73.08C707.23 72.44 708.19 71.96 708.59 71.96C708.67 71.96 708.67 71.96 708.75 72.04C709.07 72.28 708.43 73.16 707.55 73.56C706.51 74.12 706.51 74.12 706.03 73.8C705.79 73.72 705.87 73.48 706.43 73.08ZM769.934 72.2C769.374 72.68 768.574 73.24 767.534 74.04C763.854 77 761.534 78.2 759.774 78.44C758.814 78.52 758.574 78.44 758.334 78.04C757.854 77.32 758.174 75.88 759.214 73.96C759.934 72.68 760.014 72.36 759.774 72.04C759.214 71.56 758.894 71.56 758.014 72.28L757.214 72.92L756.734 72.12C756.254 71.16 755.454 70.68 754.334 70.68C753.454 70.76 752.414 71.08 751.294 71.72C747.374 73.88 744.654 78.76 746.654 79.96C748.094 80.84 750.734 79.88 754.414 77.08L756.334 75.64V76.92C756.334 78.12 756.414 78.36 757.294 79.08C758.894 80.36 760.894 80.12 764.414 78.2C766.414 77.08 769.374 74.76 770.974 73.24C771.534 72.68 771.854 72.28 771.854 72.12C771.854 71.24 771.454 71.16 769.934 72.2ZM753.774 75.64C752.654 76.36 751.054 77.48 750.174 77.96C748.094 79.16 747.614 79.24 747.854 78.2C748.414 75.88 752.734 72.12 754.494 72.2C754.654 72.2 754.814 72.28 754.974 72.36C755.054 72.44 755.294 72.92 755.454 73.4C755.614 74.2 755.614 74.28 753.774 75.64ZM783.832 71.72C782.712 72.2 781.672 72.36 780.552 72.36C778.632 72.36 778.232 71.8 777.592 70.84C776.632 69.24 776.232 69.32 773.272 71.64C770.952 73.56 770.872 73.56 771.512 72.6C772.072 71.64 772.072 71.48 771.672 71.16C770.952 70.52 770.312 71.08 768.552 73.88C766.472 77.32 765.592 79.48 766.072 79.88C766.232 80.12 766.632 80.28 766.792 80.28C767.032 80.28 768.312 79 769.672 77.48C772.392 74.52 775.432 71.64 775.832 71.64C775.992 71.64 776.392 71.88 776.792 72.28C777.752 73.24 778.952 73.88 781.272 73.72C782.712 73.64 784.392 73.16 785.432 72.68C785.992 72.44 786.392 72.12 786.392 71.88C786.392 71.16 785.672 71.08 783.832 71.72ZM802.044 73C796.524 77.24 792.924 79.08 790.204 79.08C788.124 79 787.164 78.44 787.004 77.16C787.004 76.68 787.084 75.96 787.164 75.64C787.404 75.16 787.564 75.4 789.164 75.24C790.124 75.24 791.084 75 791.964 74.2C793.564 72.84 793.644 71.4 792.284 70.76C791.964 70.6 791.644 70.6 791.324 70.6C788.844 70.6 785.404 73.64 785.084 76.44C784.844 78.44 786.284 79.88 788.924 80.36C792.444 80.92 796.524 79.24 802.444 74.52C804.284 73.08 805.084 72.12 805.164 71.88C805.244 71.4 804.924 70.84 802.044 73ZM789.164 73.08C789.964 72.44 790.924 71.96 791.324 71.96C791.404 71.96 791.404 71.96 791.484 72.04C791.804 72.28 791.164 73.16 790.284 73.56C789.244 74.12 789.244 74.12 788.764 73.8C788.524 73.72 788.604 73.48 789.164 73.08ZM848.588 72.04C846.268 73.16 841.788 74.68 840.108 75.08C839.228 75.24 837.708 75.48 836.828 75.56C835.308 75.72 835.148 75.64 835.308 75.24C835.868 73.96 841.708 64.52 843.868 61.48C847.788 55.96 848.028 55.64 847.868 55.24C847.708 55 847.388 54.84 847.068 54.84C846.588 54.84 845.868 55.64 843.708 58.52C840.828 62.44 837.228 68.12 834.588 72.76L832.988 75.56L831.708 75.64C830.108 75.8 829.948 76.36 831.148 77.08L831.948 77.56L831.308 78.92C830.908 79.64 830.188 81.48 829.628 82.92C827.468 88.76 827.148 91.8 828.748 92.92C830.908 94.44 834.188 92.12 835.948 87.88C836.588 86.36 836.668 85.64 836.668 83.4C836.748 81.08 836.668 80.52 836.028 79.56C835.708 78.92 835.148 78.12 834.828 77.8C834.428 77.56 834.268 77.24 834.348 77.24C834.348 77.16 835.628 77 837.148 76.84C841.148 76.44 844.988 75.32 849.228 73.24C850.428 72.6 850.588 72.2 850.588 71.96C850.588 71.32 849.708 71.48 848.588 72.04ZM835.068 82.28C835.388 85.16 833.468 90.04 831.388 91.4C829.948 92.44 829.708 92.28 829.708 90.36C829.708 88.36 832.508 79.88 833.468 79.08C833.468 79.08 833.468 79.08 833.548 79C833.948 79 834.908 81 835.068 82.28ZM862.513 73C856.993 77.24 853.393 79.08 850.673 79.08C848.593 79 847.633 78.44 847.473 77.16C847.473 76.68 847.553 75.96 847.633 75.64C847.873 75.16 848.033 75.4 849.633 75.24C850.593 75.24 851.553 75 852.433 74.2C854.033 72.84 854.113 71.4 852.753 70.76C852.433 70.6 852.113 70.6 851.793 70.6C849.313 70.6 845.873 73.64 845.553 76.44C845.313 78.44 846.753 79.88 849.393 80.36C852.913 80.92 856.993 79.24 862.913 74.52C864.753 73.08 865.553 72.12 865.633 71.88C865.713 71.4 865.393 70.84 862.513 73ZM849.633 73.08C850.433 72.44 851.393 71.96 851.793 71.96C851.873 71.96 851.873 71.96 851.953 72.04C852.273 72.28 851.633 73.16 850.753 73.56C849.713 74.12 849.713 74.12 849.233 73.8C848.993 73.72 849.073 73.48 849.633 73.08ZM891.236 71.64C891.076 70.92 889.956 71.16 888.276 72.2C885.716 73.88 883.556 74.36 881.556 74.36C880.596 74.36 879.796 74.36 879.636 74.28C879.556 74.2 879.716 73.48 879.956 72.84C880.596 71.16 880.276 70.28 878.996 70.36C878.036 70.44 877.156 71.8 877.156 73.32C877.156 74.12 876.996 74.68 876.356 75.56C875.476 76.6 872.836 78.76 872.356 78.76C871.796 78.76 871.476 76.92 871.556 75.08C871.716 73.56 871.636 73 871.316 72.76C870.436 72.04 869.956 72.36 867.156 75.48C865.476 77.32 864.436 78.2 864.196 77.96C863.956 77.72 865.156 74.28 866.036 72.6C866.996 70.84 866.996 70.28 865.876 70.28C865.316 70.28 865.076 70.52 864.516 71.56C863.396 73.64 862.676 75.72 862.436 77.24C862.356 78.52 862.356 78.76 862.916 79.16C863.236 79.48 863.716 79.64 864.036 79.64C864.996 79.64 866.436 78.68 868.036 76.92L869.636 75.16L869.716 76.2C869.876 77.96 870.116 78.68 870.676 79.32C871.396 80.04 872.756 80.12 874.036 79.56C874.916 79.16 877.236 77.16 878.036 76.12C878.516 75.4 878.676 75.4 880.116 75.72C881.316 75.96 883.876 75.64 885.876 74.92C886.996 74.52 887.956 74.12 889.316 73.24C890.436 72.52 891.236 71.88 891.236 71.64ZM892.228 79.32C891.588 79.56 891.428 80.44 891.988 80.84C892.468 81.32 893.588 81.24 893.908 80.68C894.468 79.8 893.268 78.84 892.228 79.32ZM223.401 111.32C223.321 110.84 223.241 110.84 217.641 110.84C206.041 111 199.641 111.24 199.481 111.56C199.401 111.72 199.561 112.04 199.801 112.2C200.121 112.44 200.921 112.6 202.201 112.6C205.641 112.6 221.961 112.12 222.761 111.96C223.321 111.88 223.481 111.72 223.401 111.32ZM262.216 138.52C264.936 139.24 272.376 137.8 277.976 135.48C287.976 131.32 291.016 126.12 285.416 122.44C284.536 121.88 281.096 120.36 277.656 119C269.896 115.88 267.896 114.84 265.576 112.84C259.416 107.4 260.856 102.12 270.696 94.28C278.936 87.72 288.856 83 296.296 82.12C299.336 81.72 300.856 81.96 301.816 82.92C303.016 84.12 302.696 86.04 302.056 88.12C301.576 89.56 300.856 91.16 299.496 93.56C297.096 97.48 292.296 103.24 288.856 106.28C287.576 107.48 287.336 108.2 288.136 108.44C288.776 108.68 291.656 106.2 294.856 102.6C299.256 97.56 302.376 92.84 303.736 89.08C304.056 88.04 304.296 87.08 304.376 86.2C304.856 81.88 302.056 79.88 296.456 80.52C288.616 81.4 279.496 85.4 270.856 91.8C266.136 95.24 263.176 98.28 261.256 101.48C260.136 103.48 260.056 103.56 260.056 106.04C260.056 108.36 260.136 108.52 261.176 110.2C263.256 113.8 267.016 116.36 274.056 119.08C284.776 123.32 286.296 124.2 286.296 126.36C286.216 130.12 278.456 134.52 268.136 136.76C267.176 137 265.416 137.16 264.296 137.16C262.536 137.24 262.216 137.16 261.576 136.68C259.656 135.24 260.376 133.16 263.816 130.44C267.576 127.4 271.656 125.4 272.376 126.36C272.696 126.76 273.656 126.6 273.656 126.2C273.656 125.4 272.536 124.68 271.256 124.68C270.056 124.68 267.256 126.04 264.456 127.96C261.496 129.96 260.216 131.16 259.336 132.68C257.976 135.16 259.256 137.8 262.216 138.52ZM319.546 111.72C319.306 111.24 318.826 111.4 318.026 111.88C317.226 112.28 312.666 115.56 310.666 116.68C308.986 117.56 308.346 117.8 307.546 117.72C306.746 117.64 306.506 117.56 306.426 116.44L306.346 114.76C306.266 112.28 306.186 111.8 305.706 111.56C305.386 111.4 304.826 111.24 304.506 111.24C303.466 111.24 300.346 112.92 297.706 114.92C296.346 116.04 295.146 116.84 295.066 116.76C294.906 116.68 297.466 111.96 299.386 109C301.786 105.24 304.906 100.84 307.866 97.08C309.226 95.32 310.026 94.04 310.026 93.88C310.266 93.16 309.786 93 308.986 93.24C307.146 93.8 296.266 109.48 293.386 115.72C292.106 118.6 291.946 119.32 292.346 119.72C292.586 119.96 292.906 120.12 293.226 120.12C293.466 120.12 295.226 118.92 297.066 117.4C300.186 115 303.466 112.84 304.106 112.84C304.266 112.84 304.346 113.8 304.346 114.92C304.346 116.04 304.506 117.32 304.666 117.72C305.226 119.08 307.546 119.56 309.626 118.84C311.706 118.12 316.506 114.92 318.586 113C319.226 112.36 319.626 111.96 319.546 111.72ZM340.671 111.72C340.431 111.24 339.711 111.4 339.151 111.8C338.671 112.12 338.031 112.52 337.391 112.92C330.351 117.72 326.111 119.4 326.111 117.32C326.111 117 326.431 115.72 326.911 114.52C327.471 113.24 327.791 112.12 327.631 111.96C327.231 111 326.591 111.32 323.711 113.64C320.431 116.2 318.111 117.96 317.711 117.96C317.391 117.96 317.471 116.68 317.951 115.56C318.191 115 318.831 113.8 319.391 112.84C320.351 111.24 320.431 111.08 320.031 110.76C319.231 110.12 318.671 110.52 317.311 112.84C315.711 115.56 315.231 117.64 315.871 118.52C317.071 119.96 318.911 119.4 322.431 116.68L324.591 114.92L324.431 116.52C324.271 117.96 324.911 119.48 327.231 119.56C329.151 119.64 333.151 117.64 337.471 114.76C340.591 112.6 340.911 112.28 340.671 111.72ZM364.414 111.8C364.094 111.08 363.374 111.4 361.134 113C355.534 117 351.294 119.24 349.774 118.84C349.214 118.68 349.374 117.16 350.174 115.24C351.054 113.08 351.054 111.96 350.334 111.4C348.894 110.36 345.934 111.72 340.654 115.88C338.334 117.64 337.454 118.2 337.614 117.8C337.854 117.08 339.774 113.96 340.814 112.52C341.454 111.56 341.534 111.48 341.054 111.08C340.734 110.84 340.494 110.76 340.094 110.92C338.974 111.56 335.854 116.76 335.534 118.52C335.454 119.16 335.534 119.48 335.854 119.8C336.174 119.96 336.574 120.2 336.894 120.2C337.454 120.2 340.414 118.2 342.574 116.28C344.734 114.44 348.654 112.2 349.054 112.52C349.134 112.6 348.894 113.48 348.494 114.44C347.454 117.16 347.294 118.12 347.854 119C348.814 120.44 350.734 120.6 353.614 119.32C356.494 118.12 360.894 115.16 363.134 113.24C364.014 112.52 364.494 112.04 364.414 111.8ZM377.269 111.72C376.149 112.2 375.109 112.36 373.989 112.36C372.069 112.36 371.669 111.8 371.029 110.84C370.069 109.24 369.669 109.32 366.709 111.64C364.389 113.56 364.309 113.56 364.949 112.6C365.509 111.64 365.509 111.48 365.109 111.16C364.389 110.52 363.749 111.08 361.989 113.88C359.909 117.32 359.029 119.48 359.509 119.88C359.669 120.12 360.069 120.28 360.229 120.28C360.469 120.28 361.749 119 363.109 117.48C365.829 114.52 368.869 111.64 369.269 111.64C369.429 111.64 369.829 111.88 370.229 112.28C371.189 113.24 372.389 113.88 374.709 113.72C376.149 113.64 377.829 113.16 378.869 112.68C379.429 112.44 379.829 112.12 379.829 111.88C379.829 111.16 379.109 111.08 377.269 111.72ZM402.682 111.72C402.522 110.84 401.322 111.24 396.522 113.96C393.802 115.4 392.042 116.12 391.962 116.12C391.882 116.04 392.042 115.24 392.202 114.36C392.522 112.36 392.362 111.64 391.402 111.08C390.682 110.68 390.602 110.68 389.402 111.24C388.682 111.56 387.482 112.44 386.682 113.24C383.802 115.88 380.922 118.28 380.522 118.28C380.122 118.28 380.122 118.04 380.282 117.16C380.522 115.64 380.922 114.68 382.042 112.84C382.922 111.32 383.002 111.16 382.602 110.84C382.362 110.68 382.202 110.6 381.962 110.6C381.562 110.6 381.002 111.08 380.362 112.12C378.602 114.68 377.882 118.04 378.922 119.16C379.322 119.64 379.562 119.72 380.602 119.64C382.122 119.48 382.682 119.08 387.002 115.08C388.602 113.64 390.042 112.44 390.122 112.44C390.282 112.44 390.442 112.68 390.442 113.08C390.442 113.72 389.402 117.8 389.242 117.88C389.162 117.96 387.882 118.76 386.442 119.64C379.882 123.8 374.442 128.12 373.322 130.04C372.202 131.96 372.682 133.64 374.522 134.04C375.562 134.2 375.722 134.2 377.082 133.88C379.722 133.16 383.642 130.44 386.122 127.4C387.562 125.72 389.882 121.72 390.602 119.88C391.242 118.28 390.842 118.68 397.962 114.76C401.402 112.92 402.762 112.04 402.682 111.72ZM384.202 126.84C382.842 128.52 380.362 130.6 378.362 131.72C376.522 132.76 374.842 133 374.522 132.44C374.202 131.72 374.922 130.36 376.362 128.92C378.522 126.84 387.322 120.52 388.042 120.6C388.202 120.92 385.482 125.24 384.202 126.84ZM423.796 111.72C423.556 111.24 422.836 111.4 422.276 111.8C421.796 112.12 421.156 112.52 420.516 112.92C413.476 117.72 409.236 119.4 409.236 117.32C409.236 117 409.556 115.72 410.036 114.52C410.596 113.24 410.916 112.12 410.756 111.96C410.356 111 409.716 111.32 406.836 113.64C403.556 116.2 401.236 117.96 400.836 117.96C400.516 117.96 400.596 116.68 401.076 115.56C401.316 115 401.956 113.8 402.516 112.84C403.476 111.24 403.556 111.08 403.156 110.76C402.356 110.12 401.796 110.52 400.436 112.84C398.836 115.56 398.356 117.64 398.996 118.52C400.196 119.96 402.036 119.4 405.556 116.68L407.716 114.92L407.556 116.52C407.396 117.96 408.036 119.48 410.356 119.56C412.276 119.64 416.276 117.64 420.596 114.76C423.716 112.6 424.036 112.28 423.796 111.72ZM459.559 138.52C462.279 139.24 469.719 137.8 475.319 135.48C485.319 131.32 488.359 126.12 482.759 122.44C481.879 121.88 478.439 120.36 474.999 119C467.239 115.88 465.239 114.84 462.919 112.84C456.759 107.4 458.199 102.12 468.039 94.28C476.279 87.72 486.199 83 493.639 82.12C496.679 81.72 498.199 81.96 499.159 82.92C500.359 84.12 500.039 86.04 499.399 88.12C498.919 89.56 498.199 91.16 496.839 93.56C494.439 97.48 489.639 103.24 486.199 106.28C484.919 107.48 484.679 108.2 485.479 108.44C486.119 108.68 488.999 106.2 492.199 102.6C496.599 97.56 499.719 92.84 501.079 89.08C501.399 88.04 501.639 87.08 501.719 86.2C502.199 81.88 499.399 79.88 493.799 80.52C485.959 81.4 476.839 85.4 468.199 91.8C463.479 95.24 460.519 98.28 458.599 101.48C457.479 103.48 457.399 103.56 457.399 106.04C457.399 108.36 457.479 108.52 458.519 110.2C460.599 113.8 464.359 116.36 471.399 119.08C482.119 123.32 483.639 124.2 483.639 126.36C483.559 130.12 475.799 134.52 465.479 136.76C464.519 137 462.759 137.16 461.639 137.16C459.879 137.24 459.559 137.16 458.919 136.68C456.999 135.24 457.719 133.16 461.159 130.44C464.919 127.4 468.999 125.4 469.719 126.36C470.039 126.76 470.999 126.6 470.999 126.2C470.999 125.4 469.879 124.68 468.599 124.68C467.399 124.68 464.599 126.04 461.799 127.96C458.839 129.96 457.559 131.16 456.679 132.68C455.319 135.16 456.599 137.8 459.559 138.52ZM514.89 111.72C514.65 111.24 513.93 111.4 513.37 111.8C512.89 112.12 512.25 112.52 511.61 112.92C504.57 117.72 500.33 119.4 500.33 117.32C500.33 117 500.65 115.72 501.13 114.52C501.69 113.24 502.01 112.12 501.85 111.96C501.45 111 500.81 111.32 497.93 113.64C494.65 116.2 492.33 117.96 491.93 117.96C491.61 117.96 491.69 116.68 492.17 115.56C492.41 115 493.05 113.8 493.61 112.84C494.57 111.24 494.65 111.08 494.25 110.76C493.45 110.12 492.89 110.52 491.53 112.84C489.93 115.56 489.45 117.64 490.09 118.52C491.29 119.96 493.13 119.4 496.65 116.68L498.81 114.92L498.65 116.52C498.49 117.96 499.13 119.48 501.45 119.56C503.37 119.64 507.37 117.64 511.69 114.76C514.81 112.6 515.13 112.28 514.89 111.72ZM536.374 111.64C536.134 110.92 535.094 111.08 533.574 112.12C528.614 115.32 523.654 117.24 519.734 118.04C517.254 118.52 514.774 118.76 514.774 118.52C514.774 118.44 515.974 117.64 517.494 116.76C520.534 114.92 525.094 111.4 525.094 110.76C525.094 109.96 524.294 109.72 522.694 110.04C516.614 111.32 516.694 111.24 515.974 110.76C515.494 110.36 515.254 110.28 514.934 110.52C514.214 111 514.374 111.88 515.174 112.36C515.894 112.68 516.134 112.68 518.294 112.36C519.574 112.12 520.854 111.88 521.174 111.8L521.734 111.64L521.174 112.2C520.294 113 515.414 116.36 513.494 117.4C511.174 118.68 511.014 118.92 511.814 119.56C512.134 119.8 512.854 119.88 514.934 119.88C520.134 119.88 524.374 118.68 530.374 115.56C532.694 114.36 533.574 113.96 534.854 113C535.814 112.36 536.374 111.88 536.374 111.64ZM557.546 111.72C557.306 111.24 556.586 111.4 556.026 111.8C555.546 112.12 554.906 112.52 554.266 112.92C547.226 117.72 542.986 119.4 542.986 117.32C542.986 117 543.306 115.72 543.786 114.52C544.346 113.24 544.666 112.12 544.506 111.96C544.106 111 543.466 111.32 540.586 113.64C537.306 116.2 534.986 117.96 534.586 117.96C534.266 117.96 534.346 116.68 534.826 115.56C535.066 115 535.706 113.8 536.266 112.84C537.226 111.24 537.306 111.08 536.906 110.76C536.106 110.12 535.546 110.52 534.186 112.84C532.586 115.56 532.106 117.64 532.746 118.52C533.946 119.96 535.786 119.4 539.306 116.68L541.466 114.92L541.306 116.52C541.146 117.96 541.786 119.48 544.106 119.56C546.026 119.64 550.026 117.64 554.346 114.76C557.466 112.6 557.786 112.28 557.546 111.72ZM578.889 111.64C578.569 111.08 577.849 111.64 576.329 112.84C574.169 114.52 570.409 116.2 568.249 117.16C565.049 118.52 562.969 118.52 561.369 117.24C560.169 116.28 560.169 115.56 561.449 115.32C562.809 115.08 565.369 114.12 566.329 113.4C567.449 112.52 568.009 111.48 567.769 110.84C567.209 108.84 563.209 110.2 558.169 114.2L555.609 116.2L556.649 114.36C558.409 111.24 563.129 103.88 566.649 98.84C568.409 96.28 569.929 93.88 569.929 93.64C569.929 93.24 569.609 93 569.209 93.08C568.969 93.08 568.729 93.16 568.489 93.32C567.289 94.28 560.329 104.36 556.489 110.84C553.049 116.68 550.969 121 551.369 121.4C551.529 121.56 551.849 121.72 552.089 121.72C552.329 121.72 553.689 120.52 555.209 119.08C556.649 117.64 558.009 116.36 558.169 116.28C558.329 116.2 558.649 116.44 558.889 116.92C559.449 117.96 560.649 118.84 562.169 119.32C563.929 119.88 566.089 119.64 568.569 118.68C570.889 117.72 574.889 115.64 577.529 113.64C578.969 112.6 579.129 111.96 578.889 111.64ZM561.929 113.48C562.249 113.08 564.889 111.72 565.209 111.72C565.609 111.72 565.289 112.2 564.489 112.6C564.089 112.92 563.209 113.24 562.569 113.48C561.609 113.8 561.529 113.8 561.929 113.48ZM582.698 106.76C583.498 105.72 583.418 105.08 582.458 104.92C581.898 104.84 580.378 106.92 580.618 107.4C580.938 108.04 581.898 107.72 582.698 106.76ZM589.498 113.08C584.298 116.44 579.818 118.44 578.058 118.44C576.137 118.44 576.297 117.08 578.618 113.48C579.818 111.64 579.978 111.16 579.658 110.84C579.418 110.6 579.258 110.52 579.018 110.52C578.458 110.6 577.818 111.24 576.697 112.92C575.657 114.44 574.857 116.6 574.857 117.64C574.857 118.28 575.017 118.68 575.737 119.16C576.457 119.72 576.857 119.88 577.898 119.88C579.577 119.88 580.858 119.4 584.218 117.8C586.618 116.6 589.658 114.84 591.818 113.24C592.698 112.6 593.338 112.04 593.338 111.88C593.098 111.08 592.058 111.4 589.498 113.08ZM595.389 119.72C594.669 119.72 594.269 120.28 594.669 120.92C594.909 121.24 594.829 121.56 594.109 122.2C593.309 122.92 593.069 123.48 593.469 123.8C593.949 124.2 594.669 123.88 595.789 122.68C597.149 121.32 596.909 119.72 595.389 119.72ZM632.297 134.6C632.617 134.76 633.097 134.76 639.977 133.56C647.497 132.36 651.817 131.8 661.097 131.08C668.057 130.44 669.897 130.44 680.217 130.36C686.537 130.36 691.977 130.44 692.457 130.52C692.857 130.68 693.257 130.92 693.337 131.24C693.417 131.56 693.657 131.72 694.297 131.64C695.257 131.56 695.817 130.92 695.337 130.36C694.457 129.16 691.177 128.84 679.977 128.84C673.817 128.76 669.497 128.92 665.977 129.16C653.657 130.12 647.097 130.84 640.777 131.88C638.617 132.28 636.777 132.52 636.777 132.52C636.697 132.44 643.817 127.8 647.977 125.16C653.097 121.88 657.897 118.84 663.337 115.24L668.137 112.04L670.617 111.88C671.977 111.8 674.617 111.72 676.377 111.64C679.097 111.64 679.657 111.56 679.737 111.24C679.897 110.52 678.777 110.36 674.697 110.44C672.457 110.44 670.697 110.52 670.697 110.44C670.697 110.44 672.217 109.32 674.137 108.04C689.737 97.32 704.297 86.28 705.817 83.88C706.457 82.84 706.457 82.84 705.977 82.2C705.737 81.88 705.177 81.48 704.697 81.32C704.297 81.16 701.337 81 697.497 81C690.457 80.84 686.217 81.16 676.377 82.6C669.897 83.48 666.617 84.12 661.257 85.64C654.457 87.48 651.497 88.68 651.497 89.56C651.497 90.36 652.057 90.28 654.697 89.24C659.737 87.24 667.257 85.48 675.417 84.2C684.617 82.84 688.857 82.44 696.137 82.44C702.697 82.44 704.377 82.52 704.377 83.08C704.377 83.4 697.657 88.84 691.817 93.16C682.937 99.8 667.977 110.28 666.777 110.6C666.537 110.68 664.057 111 661.417 111.24C656.297 111.64 655.337 111.88 656.137 112.6C656.537 113.08 657.177 113 662.057 112.52C663.257 112.36 664.217 112.28 664.297 112.36C664.377 112.36 660.857 114.76 656.457 117.56C652.137 120.36 645.337 124.76 641.417 127.32C637.497 129.88 633.817 132.36 633.257 132.76C632.217 133.4 631.817 134.2 632.297 134.6ZM713.998 113C708.478 117.24 704.878 119.08 702.158 119.08C700.078 119 699.117 118.44 698.957 117.16C698.957 116.68 699.037 115.96 699.117 115.64C699.357 115.16 699.518 115.4 701.118 115.24C702.077 115.24 703.038 115 703.918 114.2C705.518 112.84 705.598 111.4 704.238 110.76C703.918 110.6 703.598 110.6 703.278 110.6C700.798 110.6 697.357 113.64 697.037 116.44C696.798 118.44 698.237 119.88 700.878 120.36C704.398 120.92 708.478 119.24 714.398 114.52C716.238 113.08 717.038 112.12 717.118 111.88C717.198 111.4 716.878 110.84 713.998 113ZM701.118 113.08C701.918 112.44 702.878 111.96 703.278 111.96C703.358 111.96 703.358 111.96 703.438 112.04C703.758 112.28 703.118 113.16 702.238 113.56C701.198 114.12 701.198 114.12 700.718 113.8C700.478 113.72 700.558 113.48 701.118 113.08ZM740.743 111.8C740.423 111.08 739.703 111.4 737.463 113C731.863 117 727.623 119.24 726.103 118.84C725.543 118.68 725.703 117.16 726.503 115.24C727.383 113.08 727.383 111.96 726.663 111.4C725.223 110.36 722.263 111.72 716.983 115.88C714.662 117.64 713.782 118.2 713.942 117.8C714.182 117.08 716.103 113.96 717.143 112.52C717.783 111.56 717.863 111.48 717.383 111.08C717.063 110.84 716.823 110.76 716.423 110.92C715.303 111.56 712.182 116.76 711.862 118.52C711.782 119.16 711.862 119.48 712.182 119.8C712.502 119.96 712.902 120.2 713.222 120.2C713.782 120.2 716.743 118.2 718.903 116.28C721.063 114.44 724.983 112.2 725.383 112.52C725.463 112.6 725.223 113.48 724.823 114.44C723.783 117.16 723.623 118.12 724.183 119C725.143 120.44 727.063 120.6 729.943 119.32C732.823 118.12 737.223 115.16 739.463 113.24C740.343 112.52 740.823 112.04 740.743 111.8ZM774.596 129.72C777.876 123.32 779.716 119.96 782.116 115.8C786.036 108.92 794.116 95.72 796.436 92.28C798.596 89.16 801.476 85.4 801.716 85.4C801.956 85.4 801.316 89 800.516 91.88C800.196 93.08 799.076 97 797.956 100.44C795.956 106.92 793.396 116.76 793.396 118.04C793.396 118.84 794.036 119.48 794.756 119.48C795.396 119.48 796.916 118.2 799.156 115.8C807.636 106.28 819.556 93.8 824.996 88.6C828.036 85.72 833.716 80.92 834.036 80.92C834.596 80.92 833.156 84.04 828.676 92.76C820.276 109.24 815.796 119.16 812.996 127.48C810.836 133.88 810.196 136.52 810.596 137.08C811.156 137.96 812.676 137.4 812.436 136.44C812.036 135.24 816.596 122.52 820.676 113.56C821.636 111.4 827.556 99.4 829.956 94.6C831.476 91.8 833.076 88.44 833.716 87.24C836.756 81.08 836.996 79.08 834.916 79.08C833.796 79.08 832.836 79.64 829.556 82.36C825.076 86.12 822.596 88.44 816.276 94.92C807.636 103.8 804.916 106.68 801.156 111C796.596 116.12 795.636 117.16 795.556 117.08C795.316 116.92 797.716 108.12 800.116 100.44C803.076 91.24 804.276 85.8 803.796 84.28C803.636 83.96 803.236 83.48 802.836 83.24C802.116 83 801.956 83 801.316 83.32C798.996 84.6 790.836 96.92 781.236 113.56C775.636 123.32 772.676 129.24 772.996 129.96C773.236 130.44 774.276 130.36 774.596 129.72ZM833.166 106.76C833.966 105.72 833.886 105.08 832.926 104.92C832.366 104.84 830.846 106.92 831.086 107.4C831.406 108.04 832.366 107.72 833.166 106.76ZM839.966 113.08C834.766 116.44 830.286 118.44 828.526 118.44C826.606 118.44 826.766 117.08 829.086 113.48C830.286 111.64 830.446 111.16 830.126 110.84C829.886 110.6 829.726 110.52 829.486 110.52C828.926 110.6 828.286 111.24 827.166 112.92C826.126 114.44 825.326 116.6 825.326 117.64C825.326 118.28 825.486 118.68 826.206 119.16C826.926 119.72 827.326 119.88 828.366 119.88C830.046 119.88 831.326 119.4 834.686 117.8C837.086 116.6 840.126 114.84 842.286 113.24C843.166 112.6 843.806 112.04 843.806 111.88C843.566 111.08 842.526 111.4 839.966 113.08ZM867.618 111.8C867.298 111.08 866.578 111.4 864.338 113C858.738 117 854.498 119.24 852.978 118.84C852.418 118.68 852.578 117.16 853.378 115.24C854.258 113.08 854.258 111.96 853.538 111.4C852.098 110.36 849.138 111.72 843.858 115.88C841.537 117.64 840.657 118.2 840.817 117.8C841.057 117.08 842.978 113.96 844.018 112.52C844.658 111.56 844.738 111.48 844.258 111.08C843.938 110.84 843.698 110.76 843.298 110.92C842.178 111.56 839.057 116.76 838.737 118.52C838.657 119.16 838.737 119.48 839.057 119.8C839.377 119.96 839.777 120.2 840.097 120.2C840.657 120.2 843.618 118.2 845.778 116.28C847.938 114.44 851.858 112.2 852.258 112.52C852.338 112.6 852.098 113.48 851.698 114.44C850.658 117.16 850.498 118.12 851.058 119C852.018 120.44 853.938 120.6 856.818 119.32C859.698 118.12 864.098 115.16 866.338 113.24C867.218 112.52 867.698 112.04 867.618 111.8ZM890.244 111.4C889.764 111.24 888.724 111.88 883.764 115.56C879.044 119.08 876.164 120.2 875.684 118.6C874.964 116.36 880.564 103.32 885.044 96.52C886.164 94.92 886.244 94.6 885.604 94.12C885.524 94.04 885.364 94.04 885.204 94.04C884.644 93.96 884.004 94.84 882.324 97.4C877.844 104.2 875.604 107.48 874.004 109.56L872.324 111.88L871.364 111.08C870.164 110.12 869.124 110.04 867.764 110.84C865.764 111.88 863.524 115.48 863.524 117.4C863.524 119.32 865.524 119.8 867.844 118.52C869.284 117.72 871.924 115.08 874.324 112.04C875.924 110.04 875.924 110.04 874.724 113.24C874.164 114.76 874.004 115.88 873.924 117.32C873.924 119.16 874.004 119.4 874.564 119.96C874.964 120.28 875.524 120.6 875.844 120.68C878.324 121.08 880.964 119.72 887.204 115C890.484 112.44 891.124 111.64 890.244 111.4ZM869.284 115.16C867.204 117.32 865.604 118.28 865.364 117.72C864.884 116.84 867.684 112.52 869.044 111.96C869.284 111.8 869.524 111.8 869.684 111.72C870.084 111.72 870.404 111.96 870.724 112.6C871.124 113.24 871.124 113.32 869.284 115.16ZM892.811 119.72C892.091 119.72 891.691 120.28 892.091 120.92C892.331 121.24 892.251 121.56 891.531 122.2C890.731 122.92 890.491 123.48 890.891 123.8C891.371 124.2 892.091 123.88 893.211 122.68C894.571 121.32 894.331 119.72 892.811 119.72ZM596.176 124.28C594.976 123.16 593.536 122.52 591.056 121.88C589.536 121.48 587.456 121.32 585.056 121.32C581.216 121.4 576.576 121.96 572.496 123.08C561.456 126.12 549.776 133.32 546.976 139C546.176 140.52 546.096 141.24 546.736 141.96C547.296 142.68 548.496 142.6 548.336 141.88C547.936 140.2 548.416 139.24 550.736 136.68C554.656 132.52 563.616 127.4 571.296 125.08C576.496 123.48 579.776 123 585.136 123C589.456 123 590.016 123 591.536 123.56C593.856 124.28 594.736 124.84 595.456 126.04C596.256 127.4 596.016 128.84 594.896 130.84C591.536 136.52 581.536 143.48 569.856 148.2C567.536 149.16 565.456 149.96 565.216 149.96C564.816 149.96 565.216 149.16 569.856 141.4C571.776 138.2 574.416 134.2 575.696 132.44C578.096 129.16 578.416 128.36 577.136 128.36C576.656 128.36 576.096 128.84 574.496 130.92C572.256 133.88 568.336 140.12 564.976 146.12C563.616 148.44 562.416 150.36 562.256 150.44C562.016 150.6 561.296 150.76 560.656 150.92C559.936 151.08 559.296 151.32 559.216 151.56C558.976 152.12 559.536 152.68 560.416 152.68C560.816 152.68 561.136 152.68 561.136 152.76C561.136 152.84 560.256 154.6 559.296 156.68C558.256 158.68 557.456 160.52 557.456 160.6C557.456 160.76 556.336 161.32 555.056 161.8C551.536 163.08 548.976 164.6 546.496 166.52C544.096 168.6 542.896 170.28 542.656 172.12C542.336 174.28 544.096 175.88 547.216 176.44C548.896 176.68 551.056 176.52 554.096 175.8C566.256 173 575.536 166.84 578.576 159.56C579.296 157.88 579.296 155.4 578.576 154.2C577.456 152.36 574.256 150.68 571.136 150.28C570.496 150.2 570.016 150.12 570.016 150.04C570.016 149.96 571.296 149.32 572.816 148.68C586.256 143.16 597.216 134.12 597.616 128.44C597.776 126.52 597.376 125.4 596.176 124.28ZM573.936 152.6C577.776 154.12 578.336 156.6 575.776 160.84C572.096 167.08 562.176 172.84 551.456 174.84C549.296 175.24 548.336 175.32 546.816 174.92C545.456 174.68 544.256 173.56 544.256 172.68C544.256 170.68 547.376 167.4 551.216 165.24C552.976 164.2 556.016 162.84 556.416 162.84C556.416 162.84 556.576 163.16 556.656 163.64C556.896 164.52 557.456 165 558.176 164.92C558.576 164.84 558.656 164.6 558.576 163.88C558.416 162.28 558.656 162.04 560.896 161.24C564.336 160.12 567.776 159.32 569.536 159.24C570.896 159.24 571.296 159.16 571.376 158.84C571.616 157.56 568.176 157.72 563.296 159.08C561.376 159.56 559.776 159.96 559.776 159.88C559.696 159.88 561.776 155.56 562.976 153.4C563.856 151.96 564.176 151.72 566.576 151.48C566.976 151.48 567.456 151.48 567.856 151.48C569.856 151.48 572.176 151.88 573.936 152.6ZM600.794 153C595.274 157.24 591.674 159.08 588.954 159.08C586.874 159 585.914 158.44 585.754 157.16C585.754 156.68 585.834 155.96 585.914 155.64C586.154 155.16 586.314 155.4 587.914 155.24C588.874 155.24 589.834 155 590.714 154.2C592.314 152.84 592.394 151.4 591.034 150.76C590.714 150.6 590.394 150.6 590.074 150.6C587.594 150.6 584.154 153.64 583.834 156.44C583.594 158.44 585.034 159.88 587.674 160.36C591.194 160.92 595.274 159.24 601.194 154.52C603.034 153.08 603.834 152.12 603.914 151.88C603.994 151.4 603.674 150.84 600.794 153ZM587.914 153.08C588.714 152.44 589.674 151.96 590.074 151.96C590.154 151.96 590.154 151.96 590.234 152.04C590.554 152.28 589.914 153.16 589.034 153.56C587.994 154.12 587.994 154.12 587.514 153.8C587.274 153.72 587.354 153.48 587.914 153.08ZM623.859 151.4H623.779C623.379 151.4 622.579 151.64 621.379 152.12C619.459 152.84 618.179 153.32 615.939 154.44C613.859 155.48 613.619 155.56 613.779 155.16C613.859 154.84 614.019 153.96 614.099 153.16C614.259 151.96 614.179 151.72 613.699 151.24C612.819 150.52 611.939 150.6 610.019 151.64C608.579 152.44 608.339 152.52 608.179 152.2C608.099 151.96 607.619 151.56 607.219 151.24C606.659 150.76 606.339 150.68 605.139 150.84C603.939 150.92 603.619 151.08 602.099 152.44C598.499 155.48 597.139 159.72 599.539 160.28C600.899 160.52 602.179 159.8 606.579 156.2C610.579 153 611.939 152.12 612.419 152.52C612.499 152.52 612.179 153.64 611.699 154.92C610.819 157 610.659 157.32 609.539 157.96C607.379 159.24 603.299 161.96 600.419 164.04C594.099 168.6 591.299 172.52 593.059 174.12C594.579 175.4 598.099 174.2 601.779 171.24C604.659 168.92 607.539 165.64 610.099 161.72C611.139 160.12 612.179 158.6 612.419 158.28C612.899 157.56 614.419 156.68 619.779 154.36C620.819 153.88 621.619 153.48 622.339 153.16C624.259 152.2 624.579 151.72 623.859 151.4ZM604.099 156.12C600.179 159.32 599.619 159.48 600.739 157.08C601.539 155.4 603.699 153 604.899 152.52C605.459 152.28 605.699 152.12 605.859 152.12C606.099 152.12 606.179 152.28 606.339 152.52C606.579 152.76 606.899 153.08 607.059 153.24C607.219 153.4 606.259 154.36 604.099 156.12ZM606.099 163.96C603.379 167.64 599.859 170.92 597.219 172.36C596.579 172.68 595.699 173 595.299 173.08C594.579 173.24 594.499 173.24 594.499 172.6C594.499 170.92 598.979 166.68 605.059 162.68C607.139 161.24 608.259 160.52 608.499 160.52C608.739 160.6 607.859 161.64 606.099 163.96ZM628.635 146.76C629.435 145.72 629.355 145.08 628.395 144.92C627.835 144.84 626.315 146.92 626.555 147.4C626.875 148.04 627.835 147.72 628.635 146.76ZM635.435 153.08C630.235 156.44 625.755 158.44 623.995 158.44C622.075 158.44 622.235 157.08 624.555 153.48C625.755 151.64 625.915 151.16 625.595 150.84C625.355 150.6 625.195 150.52 624.955 150.52C624.395 150.6 623.755 151.24 622.635 152.92C621.595 154.44 620.795 156.6 620.795 157.64C620.795 158.28 620.955 158.68 621.675 159.16C622.395 159.72 622.795 159.88 623.835 159.88C625.515 159.88 626.795 159.4 630.155 157.8C632.555 156.6 635.595 154.84 637.755 153.24C638.635 152.6 639.275 152.04 639.275 151.88C639.035 151.08 637.995 151.4 635.435 153.08ZM663.086 151.8C662.766 151.08 662.046 151.4 659.806 153C654.206 157 649.966 159.24 648.446 158.84C647.886 158.68 648.046 157.16 648.846 155.24C649.726 153.08 649.726 151.96 649.006 151.4C647.566 150.36 644.606 151.72 639.326 155.88C637.006 157.64 636.126 158.2 636.286 157.8C636.526 157.08 638.446 153.96 639.486 152.52C640.126 151.56 640.206 151.48 639.726 151.08C639.406 150.84 639.166 150.76 638.766 150.92C637.646 151.56 634.526 156.76 634.206 158.52C634.126 159.16 634.206 159.48 634.526 159.8C634.846 159.96 635.246 160.2 635.566 160.2C636.126 160.2 639.086 158.2 641.246 156.28C643.406 154.44 647.326 152.2 647.726 152.52C647.806 152.6 647.566 153.48 647.166 154.44C646.126 157.16 645.966 158.12 646.526 159C647.486 160.44 649.406 160.6 652.286 159.32C655.166 158.12 659.566 155.16 661.806 153.24C662.686 152.52 663.166 152.04 663.086 151.8ZM687.149 151.8C686.829 151.08 686.109 151.4 683.869 153C678.269 157 674.029 159.24 672.509 158.84C671.949 158.68 672.109 157.16 672.909 155.24C673.789 153.08 673.789 151.96 673.069 151.4C671.629 150.36 668.669 151.72 663.389 155.88C661.069 157.64 660.189 158.2 660.349 157.8C660.589 157.08 662.509 153.96 663.549 152.52C664.189 151.56 664.269 151.48 663.789 151.08C663.469 150.84 663.229 150.76 662.829 150.92C661.709 151.56 658.589 156.76 658.269 158.52C658.189 159.16 658.269 159.48 658.589 159.8C658.909 159.96 659.309 160.2 659.629 160.2C660.189 160.2 663.149 158.2 665.309 156.28C667.469 154.44 671.389 152.2 671.789 152.52C671.869 152.6 671.629 153.48 671.229 154.44C670.189 157.16 670.029 158.12 670.589 159C671.549 160.44 673.469 160.6 676.349 159.32C679.229 158.12 683.629 155.16 685.869 153.24C686.749 152.52 687.229 152.04 687.149 151.8ZM699.623 153C694.103 157.24 690.503 159.08 687.783 159.08C685.703 159 684.742 158.44 684.582 157.16C684.582 156.68 684.662 155.96 684.742 155.64C684.982 155.16 685.143 155.4 686.743 155.24C687.702 155.24 688.663 155 689.543 154.2C691.143 152.84 691.223 151.4 689.863 150.76C689.543 150.6 689.223 150.6 688.903 150.6C686.423 150.6 682.982 153.64 682.662 156.44C682.423 158.44 683.862 159.88 686.503 160.36C690.023 160.92 694.103 159.24 700.023 154.52C701.863 153.08 702.663 152.12 702.743 151.88C702.823 151.4 702.503 150.84 699.623 153ZM686.743 153.08C687.543 152.44 688.503 151.96 688.903 151.96C688.983 151.96 688.983 151.96 689.063 152.04C689.383 152.28 688.743 153.16 687.863 153.56C686.823 154.12 686.823 154.12 686.343 153.8C686.103 153.72 686.183 153.48 686.743 153.08ZM714.848 151.72C713.728 152.2 712.688 152.36 711.568 152.36C709.648 152.36 709.248 151.8 708.608 150.84C707.648 149.24 707.248 149.32 704.288 151.64C701.968 153.56 701.888 153.56 702.528 152.6C703.088 151.64 703.088 151.48 702.688 151.16C701.968 150.52 701.328 151.08 699.567 153.88C697.487 157.32 696.607 159.48 697.087 159.88C697.247 160.12 697.647 160.28 697.807 160.28C698.048 160.28 699.327 159 700.688 157.48C703.408 154.52 706.448 151.64 706.848 151.64C707.008 151.64 707.408 151.88 707.808 152.28C708.768 153.24 709.968 153.88 712.288 153.72C713.728 153.64 715.408 153.16 716.448 152.68C717.008 152.44 717.408 152.12 717.408 151.88C717.408 151.16 716.688 151.08 714.848 151.72ZM723.62 132.36C723.06 132.36 722.98 132.52 723.06 133.48C723.06 134.04 722.1 136.28 720.9 138.36C720.18 139.64 720.18 139.72 720.66 140.04C721.06 140.28 721.22 140.28 721.7 139.96C722.26 139.56 724.02 136.28 724.5 134.68C724.98 133.4 724.58 132.36 723.62 132.36ZM739.345 151.88C738.145 152.36 735.665 153.16 733.425 154.04C731.185 154.92 729.105 155.72 728.945 155.88C728.385 156.2 728.225 155.96 727.825 154.44C727.425 152.92 727.665 151.96 728.545 151.48C729.265 151 729.265 150.52 728.545 150.2C728.385 150.12 728.225 150.12 727.985 150.12C727.265 150.12 726.465 150.76 725.985 151.8C725.585 152.68 725.665 153 726.065 154.84L726.625 156.84L725.985 157.24C724.625 157.88 722.465 159.48 721.905 160.12C721.105 160.92 721.105 162.28 721.825 162.76C722.625 163.24 724.305 163.16 725.745 162.52C727.345 161.88 728.465 160.36 728.785 158.6L728.945 157.4L733.505 155.56C736.065 154.6 738.785 153.64 739.985 153.16C741.745 152.52 742.225 152.2 742.225 151.8C742.225 151.08 741.585 151.08 739.345 151.88ZM725.105 161.08C724.625 161.4 723.905 161.64 723.505 161.64C722.945 161.64 722.865 161.64 723.105 161.24C723.425 160.76 726.305 158.6 726.625 158.6C727.345 158.6 726.305 160.2 725.105 161.08ZM775.534 169.72C778.814 163.32 780.654 159.96 783.054 155.8C786.974 148.92 795.054 135.72 797.374 132.28C799.534 129.16 802.414 125.4 802.654 125.4C802.894 125.4 802.254 129 801.454 131.88C801.134 133.08 800.014 137 798.894 140.44C796.894 146.92 794.334 156.76 794.334 158.04C794.334 158.84 794.974 159.48 795.694 159.48C796.334 159.48 797.854 158.2 800.094 155.8C808.574 146.28 820.494 133.8 825.934 128.6C828.974 125.72 834.654 120.92 834.974 120.92C835.534 120.92 834.094 124.04 829.614 132.76C821.214 149.24 816.734 159.16 813.934 167.48C811.774 173.88 811.134 176.52 811.534 177.08C812.094 177.96 813.614 177.4 813.374 176.44C812.974 175.24 817.534 162.52 821.614 153.56C822.574 151.4 828.494 139.4 830.894 134.6C832.414 131.8 834.014 128.44 834.654 127.24C837.694 121.08 837.934 119.08 835.854 119.08C834.734 119.08 833.774 119.64 830.494 122.36C826.014 126.12 823.534 128.44 817.214 134.92C808.574 143.8 805.854 146.68 802.094 151C797.534 156.12 796.574 157.16 796.494 157.08C796.254 156.92 798.654 148.12 801.054 140.44C804.014 131.24 805.214 125.8 804.734 124.28C804.574 123.96 804.174 123.48 803.774 123.24C803.054 123 802.894 123 802.254 123.32C799.934 124.6 791.774 136.92 782.174 153.56C776.574 163.32 773.614 169.24 773.934 169.96C774.174 170.44 775.214 170.36 775.534 169.72ZM834.104 146.76C834.904 145.72 834.824 145.08 833.864 144.92C833.304 144.84 831.784 146.92 832.024 147.4C832.344 148.04 833.304 147.72 834.104 146.76ZM840.904 153.08C835.704 156.44 831.224 158.44 829.464 158.44C827.544 158.44 827.704 157.08 830.024 153.48C831.224 151.64 831.384 151.16 831.064 150.84C830.824 150.6 830.664 150.52 830.424 150.52C829.864 150.6 829.224 151.24 828.104 152.92C827.064 154.44 826.264 156.6 826.264 157.64C826.264 158.28 826.424 158.68 827.144 159.16C827.864 159.72 828.264 159.88 829.304 159.88C830.984 159.88 832.264 159.4 835.624 157.8C838.024 156.6 841.064 154.84 843.224 153.24C844.104 152.6 844.744 152.04 844.744 151.88C844.504 151.08 843.464 151.4 840.904 153.08ZM868.555 151.8C868.235 151.08 867.515 151.4 865.275 153C859.675 157 855.435 159.24 853.915 158.84C853.355 158.68 853.515 157.16 854.315 155.24C855.195 153.08 855.195 151.96 854.475 151.4C853.035 150.36 850.075 151.72 844.795 155.88C842.475 157.64 841.595 158.2 841.755 157.8C841.995 157.08 843.915 153.96 844.955 152.52C845.595 151.56 845.675 151.48 845.195 151.08C844.875 150.84 844.635 150.76 844.235 150.92C843.115 151.56 839.995 156.76 839.675 158.52C839.595 159.16 839.675 159.48 839.995 159.8C840.315 159.96 840.715 160.2 841.035 160.2C841.595 160.2 844.555 158.2 846.715 156.28C848.875 154.44 852.795 152.2 853.195 152.52C853.275 152.6 853.035 153.48 852.635 154.44C851.595 157.16 851.435 158.12 851.995 159C852.955 160.44 854.875 160.6 857.755 159.32C860.635 158.12 865.035 155.16 867.275 153.24C868.155 152.52 868.635 152.04 868.555 151.8ZM891.181 151.4C890.701 151.24 889.661 151.88 884.701 155.56C879.981 159.08 877.101 160.2 876.621 158.6C875.901 156.36 881.501 143.32 885.981 136.52C887.101 134.92 887.181 134.6 886.541 134.12C886.461 134.04 886.301 134.04 886.141 134.04C885.581 133.96 884.941 134.84 883.261 137.4C878.781 144.2 876.541 147.48 874.941 149.56L873.261 151.88L872.301 151.08C871.101 150.12 870.061 150.04 868.701 150.84C866.701 151.88 864.461 155.48 864.461 157.4C864.461 159.32 866.461 159.8 868.781 158.52C870.221 157.72 872.861 155.08 875.261 152.04C876.861 150.04 876.861 150.04 875.661 153.24C875.101 154.76 874.941 155.88 874.861 157.32C874.861 159.16 874.941 159.4 875.501 159.96C875.901 160.28 876.461 160.6 876.781 160.68C879.261 161.08 881.901 159.72 888.141 155C891.421 152.44 892.061 151.64 891.181 151.4ZM870.221 155.16C868.141 157.32 866.541 158.28 866.301 157.72C865.821 156.84 868.621 152.52 869.981 151.96C870.221 151.8 870.461 151.8 870.621 151.72C871.021 151.72 871.341 151.96 871.661 152.6C872.061 153.24 872.061 153.32 870.221 155.16ZM892.228 159.32C891.588 159.56 891.428 160.44 891.988 160.84C892.468 161.32 893.588 161.24 893.908 160.68C894.468 159.8 893.268 158.84 892.228 159.32Z" fill="black" fill-opacity="0.2"/>
</svg>
